<svg xmlns="http://www.w3.org/2000/svg" width="300" viewBox="0 0 300 150" height="150" version="1.0"><defs><clipPath id="a"><path d="M 0 35.570312 L 67.5 35.570312 L 67.5 114.320312 L 0 114.320312 Z M 0 35.570312"/></clipPath></defs><g clip-path="url(#a)"><path fill="#FFF" d="M 0.921875 55.476562 C 0.636719 55.65625 0.410156 55.890625 0.25 56.1875 C 0.0859375 56.480469 0 56.796875 0 57.132812 L 0 93.652344 C 0 93.996094 0.0859375 94.316406 0.257812 94.617188 C 0.425781 94.914062 0.660156 95.152344 0.957031 95.328125 L 32.578125 114.027344 C 32.882812 114.203125 33.210938 114.289062 33.5625 114.289062 C 33.914062 114.289062 34.242188 114.203125 34.546875 114.027344 L 66.46875 95.320312 C 66.765625 95.148438 67 94.910156 67.171875 94.609375 C 67.34375 94.3125 67.433594 93.988281 67.433594 93.640625 L 67.492188 57.125 C 67.492188 56.785156 67.40625 56.464844 67.242188 56.167969 C 67.074219 55.871094 66.847656 55.632812 66.558594 55.457031 L 34.585938 35.878906 C 34.273438 35.6875 33.929688 35.589844 33.5625 35.589844 C 33.195312 35.589844 32.855469 35.6875 32.539062 35.878906 Z M 33.574219 39.839844 L 63.597656 58.226562 L 63.542969 92.53125 L 33.574219 110.082031 L 3.902344 92.539062 L 3.902344 58.222656 Z M 33.574219 39.839844"/></g><path fill="#FFF" d="M 8.269531 91.007812 C 15.398438 95.097656 23.808594 99.941406 32.207031 104.808594 C 33.246094 105.410156 34.125 105.410156 35.148438 104.808594 C 37.679688 103.332031 40.210938 101.855469 42.746094 100.382812 C 48.140625 97.246094 53.714844 94.003906 59.164062 90.753906 C 59.699219 90.433594 60.132812 89.40625 60.199219 88.640625 C 60.296875 87.464844 60.28125 86.246094 60.269531 85.070312 C 60.257812 84.238281 60.246094 83.378906 60.269531 82.53125 C 60.292969 81.734375 60.050781 81.324219 59.328125 80.898438 C 56.554688 79.292969 53.796875 77.667969 51.050781 76.023438 C 48.855469 74.722656 46.65625 73.425781 44.453125 72.128906 C 41.386719 70.332031 38.308594 68.554688 35.203125 66.765625 L 30.785156 64.214844 L 31.121094 63.890625 C 32.617188 62.441406 33.929688 62.277344 35.644531 63.304688 C 43.035156 67.746094 50.605469 72.066406 57.113281 75.761719 C 57.84375 76.175781 58.96875 76.347656 59.347656 76.105469 C 59.917969 75.730469 60.34375 74.617188 60.367188 73.851562 C 60.425781 71.742188 60.417969 69.585938 60.414062 67.5 C 60.414062 65.558594 60.398438 63.554688 60.449219 61.585938 C 60.480469 60.1875 59.964844 59.332031 58.65625 58.636719 C 57.050781 57.78125 55.453125 56.859375 53.90625 55.964844 L 50.015625 53.730469 C 44.960938 50.832031 39.910156 47.925781 34.871094 45.011719 C 34.007812 44.515625 33.335938 44.511719 32.519531 44.984375 C 29.808594 46.566406 27.097656 48.148438 24.378906 49.730469 C 19.125 52.796875 13.695312 55.957031 8.378906 59.113281 C 7.71875 59.578125 7.328125 60.210938 7.199219 61.003906 C 7.054688 63.1875 7.054688 65.367188 7.199219 67.546875 C 7.273438 68.121094 7.539062 68.582031 8.003906 68.933594 C 10.871094 70.753906 13.847656 72.503906 16.378906 73.972656 C 21.265625 76.8125 26.160156 79.648438 31.066406 82.480469 L 36.671875 85.71875 L 36.3125 86.042969 C 35.105469 87.15625 33.714844 87.992188 31.832031 86.65625 C 30.578125 85.808594 29.289062 85.027344 27.953125 84.3125 C 27.417969 84.015625 26.882812 83.714844 26.355469 83.40625 L 22.875 81.386719 C 18.789062 79.007812 14.558594 76.542969 10.355469 74.199219 C 9.847656 73.9375 9.308594 73.808594 8.742188 73.808594 C 8.449219 73.796875 8.171875 73.851562 7.902344 73.96875 C 7.464844 74.1875 7.101562 75.300781 7.082031 76.09375 C 7.03125 78.503906 7.042969 80.9375 7.050781 83.300781 C 7.050781 85.140625 7.066406 86.980469 7.050781 88.824219 C 7.03125 89.871094 7.386719 90.5 8.269531 91.007812 Z M 8.269531 91.007812"/><g fill="#FFF"><g><g><path d="M 9.25 0.25 C 7.582031 0.25 6.109375 -0.03125 4.828125 -0.59375 C 3.546875 -1.164062 2.550781 -1.976562 1.84375 -3.03125 C 1.144531 -4.082031 0.796875 -5.300781 0.796875 -6.6875 L 0.796875 -6.984375 C 0.796875 -7.378906 0.992188 -7.578125 1.390625 -7.578125 L 5.9375 -7.578125 C 6.332031 -7.578125 6.53125 -7.472656 6.53125 -7.265625 L 6.53125 -6.9375 C 6.53125 -6.375 6.828125 -5.863281 7.421875 -5.40625 C 8.023438 -4.957031 8.78125 -4.734375 9.6875 -4.734375 C 10.445312 -4.734375 10.988281 -4.890625 11.3125 -5.203125 C 11.644531 -5.523438 11.8125 -5.882812 11.8125 -6.28125 C 11.8125 -6.726562 11.601562 -7.066406 11.1875 -7.296875 C 10.78125 -7.523438 10.03125 -7.804688 8.9375 -8.140625 L 8.046875 -8.390625 C 6.003906 -9.003906 4.289062 -9.828125 2.90625 -10.859375 C 1.519531 -11.890625 0.828125 -13.382812 0.828125 -15.34375 C 0.828125 -16.644531 1.175781 -17.796875 1.875 -18.796875 C 2.582031 -19.796875 3.550781 -20.5625 4.78125 -21.09375 C 6.007812 -21.632812 7.382812 -21.90625 8.90625 -21.90625 C 10.519531 -21.90625 11.976562 -21.601562 13.28125 -21 C 14.59375 -20.40625 15.625 -19.5625 16.375 -18.46875 C 17.132812 -17.375 17.515625 -16.125 17.515625 -14.71875 L 17.515625 -14.578125 C 17.515625 -14.179688 17.316406 -13.984375 16.921875 -13.984375 L 12.375 -13.984375 C 11.976562 -13.984375 11.78125 -14.066406 11.78125 -14.234375 L 11.78125 -14.484375 C 11.78125 -15.097656 11.5 -15.65625 10.9375 -16.15625 C 10.382812 -16.664062 9.632812 -16.921875 8.6875 -16.921875 C 8.03125 -16.921875 7.507812 -16.785156 7.125 -16.515625 C 6.75 -16.253906 6.5625 -15.882812 6.5625 -15.40625 C 6.5625 -15.03125 6.695312 -14.710938 6.96875 -14.453125 C 7.25 -14.203125 7.675781 -13.957031 8.25 -13.71875 C 8.832031 -13.476562 9.722656 -13.175781 10.921875 -12.8125 C 11.085938 -12.75 11.8125 -12.523438 13.09375 -12.140625 C 14.382812 -11.765625 15.460938 -11.070312 16.328125 -10.0625 C 17.203125 -9.0625 17.640625 -7.851562 17.640625 -6.4375 C 17.640625 -5.09375 17.285156 -3.914062 16.578125 -2.90625 C 15.878906 -1.894531 14.894531 -1.113281 13.625 -0.5625 C 12.351562 -0.0195312 10.894531 0.25 9.25 0.25 Z M 9.25 0.25" transform="translate(70.468 87.426)"/></g></g></g><g fill="#FFF"><g><g><path d="M 16.890625 -17.265625 C 16.890625 -16.867188 16.691406 -16.671875 16.296875 -16.671875 L 7.265625 -16.671875 C 7.097656 -16.671875 7.015625 -16.585938 7.015625 -16.421875 L 7.015625 -13.703125 C 7.015625 -13.535156 7.097656 -13.453125 7.265625 -13.453125 L 12.78125 -13.453125 C 13.164062 -13.453125 13.359375 -13.257812 13.359375 -12.875 L 13.359375 -9.09375 C 13.359375 -8.695312 13.164062 -8.5 12.78125 -8.5 L 7.265625 -8.5 C 7.097656 -8.5 7.015625 -8.421875 7.015625 -8.265625 L 7.015625 -5.234375 C 7.015625 -5.066406 7.097656 -4.984375 7.265625 -4.984375 L 16.296875 -4.984375 C 16.691406 -4.984375 16.890625 -4.785156 16.890625 -4.390625 L 16.890625 -0.59375 C 16.890625 -0.195312 16.691406 0 16.296875 0 L 1.796875 0 C 1.398438 0 1.203125 -0.195312 1.203125 -0.59375 L 1.203125 -21.0625 C 1.203125 -21.457031 1.398438 -21.65625 1.796875 -21.65625 L 16.296875 -21.65625 C 16.691406 -21.65625 16.890625 -21.457031 16.890625 -21.0625 Z M 16.890625 -17.265625" transform="translate(91.01 87.426)"/></g></g></g><g fill="#FFF"><g><g><path d="M 15.8125 0 C 15.457031 0 15.238281 -0.164062 15.15625 -0.5 L 14.546875 -2.71875 C 14.503906 -2.863281 14.410156 -2.9375 14.265625 -2.9375 L 7.828125 -2.9375 C 7.679688 -2.9375 7.585938 -2.863281 7.546875 -2.71875 L 6.9375 -0.5 C 6.851562 -0.164062 6.632812 0 6.28125 0 L 1.265625 0 C 1.054688 0 0.90625 -0.0625 0.8125 -0.1875 C 0.726562 -0.3125 0.710938 -0.476562 0.765625 -0.6875 L 7.203125 -21.15625 C 7.304688 -21.488281 7.523438 -21.65625 7.859375 -21.65625 L 14.234375 -21.65625 C 14.554688 -21.65625 14.769531 -21.488281 14.875 -21.15625 L 21.3125 -0.6875 C 21.332031 -0.625 21.34375 -0.550781 21.34375 -0.46875 C 21.34375 -0.15625 21.171875 0 20.828125 0 Z M 8.90625 -7.609375 C 8.90625 -7.460938 8.976562 -7.390625 9.125 -7.390625 L 12.96875 -7.390625 C 13.050781 -7.390625 13.109375 -7.414062 13.140625 -7.46875 C 13.179688 -7.519531 13.191406 -7.585938 13.171875 -7.671875 L 11.203125 -14.8125 C 11.179688 -14.914062 11.132812 -14.96875 11.0625 -14.96875 C 10.988281 -14.96875 10.929688 -14.914062 10.890625 -14.8125 L 8.90625 -7.671875 Z M 8.90625 -7.609375" transform="translate(110.716 87.426)"/></g></g></g><g fill="#FFF"><g><g><path d="M 1.796875 0 C 1.398438 0 1.203125 -0.195312 1.203125 -0.59375 L 1.203125 -21.0625 C 1.203125 -21.457031 1.398438 -21.65625 1.796875 -21.65625 L 6.40625 -21.65625 C 6.738281 -21.65625 6.972656 -21.519531 7.109375 -21.25 L 10.859375 -15.15625 C 10.898438 -15.070312 10.960938 -15.03125 11.046875 -15.03125 C 11.128906 -15.03125 11.191406 -15.070312 11.234375 -15.15625 L 14.96875 -21.25 C 15.113281 -21.519531 15.351562 -21.65625 15.6875 -21.65625 L 20.296875 -21.65625 C 20.679688 -21.65625 20.875 -21.457031 20.875 -21.0625 L 20.875 -0.59375 C 20.875 -0.195312 20.679688 0 20.296875 0 L 15.65625 0 C 15.257812 0 15.0625 -0.195312 15.0625 -0.59375 L 15.0625 -11.515625 C 15.0625 -11.628906 15.023438 -11.695312 14.953125 -11.71875 C 14.878906 -11.738281 14.8125 -11.695312 14.75 -11.59375 L 12.84375 -8.421875 C 12.695312 -8.148438 12.457031 -8.015625 12.125 -8.015625 L 9.96875 -8.015625 C 9.632812 -8.015625 9.394531 -8.148438 9.25 -8.421875 L 7.328125 -11.59375 C 7.265625 -11.675781 7.203125 -11.71875 7.140625 -11.71875 C 7.054688 -11.71875 7.015625 -11.648438 7.015625 -11.515625 L 7.015625 -0.59375 C 7.015625 -0.195312 6.820312 0 6.4375 0 Z M 1.796875 0" transform="translate(134.876 87.426)"/></g></g></g><g fill="#FFF"><g><g><path d="M 9.25 0.25 C 7.582031 0.25 6.109375 -0.03125 4.828125 -0.59375 C 3.546875 -1.164062 2.550781 -1.976562 1.84375 -3.03125 C 1.144531 -4.082031 0.796875 -5.300781 0.796875 -6.6875 L 0.796875 -6.984375 C 0.796875 -7.378906 0.992188 -7.578125 1.390625 -7.578125 L 5.9375 -7.578125 C 6.332031 -7.578125 6.53125 -7.472656 6.53125 -7.265625 L 6.53125 -6.9375 C 6.53125 -6.375 6.828125 -5.863281 7.421875 -5.40625 C 8.023438 -4.957031 8.78125 -4.734375 9.6875 -4.734375 C 10.445312 -4.734375 10.988281 -4.890625 11.3125 -5.203125 C 11.644531 -5.523438 11.8125 -5.882812 11.8125 -6.28125 C 11.8125 -6.726562 11.601562 -7.066406 11.1875 -7.296875 C 10.78125 -7.523438 10.03125 -7.804688 8.9375 -8.140625 L 8.046875 -8.390625 C 6.003906 -9.003906 4.289062 -9.828125 2.90625 -10.859375 C 1.519531 -11.890625 0.828125 -13.382812 0.828125 -15.34375 C 0.828125 -16.644531 1.175781 -17.796875 1.875 -18.796875 C 2.582031 -19.796875 3.550781 -20.5625 4.78125 -21.09375 C 6.007812 -21.632812 7.382812 -21.90625 8.90625 -21.90625 C 10.519531 -21.90625 11.976562 -21.601562 13.28125 -21 C 14.59375 -20.40625 15.625 -19.5625 16.375 -18.46875 C 17.132812 -17.375 17.515625 -16.125 17.515625 -14.71875 L 17.515625 -14.578125 C 17.515625 -14.179688 17.316406 -13.984375 16.921875 -13.984375 L 12.375 -13.984375 C 11.976562 -13.984375 11.78125 -14.066406 11.78125 -14.234375 L 11.78125 -14.484375 C 11.78125 -15.097656 11.5 -15.65625 10.9375 -16.15625 C 10.382812 -16.664062 9.632812 -16.921875 8.6875 -16.921875 C 8.03125 -16.921875 7.507812 -16.785156 7.125 -16.515625 C 6.75 -16.253906 6.5625 -15.882812 6.5625 -15.40625 C 6.5625 -15.03125 6.695312 -14.710938 6.96875 -14.453125 C 7.25 -14.203125 7.675781 -13.957031 8.25 -13.71875 C 8.832031 -13.476562 9.722656 -13.175781 10.921875 -12.8125 C 11.085938 -12.75 11.8125 -12.523438 13.09375 -12.140625 C 14.382812 -11.765625 15.460938 -11.070312 16.328125 -10.0625 C 17.203125 -9.0625 17.640625 -7.851562 17.640625 -6.4375 C 17.640625 -5.09375 17.285156 -3.914062 16.578125 -2.90625 C 15.878906 -1.894531 14.894531 -1.113281 13.625 -0.5625 C 12.351562 -0.0195312 10.894531 0.25 9.25 0.25 Z M 9.25 0.25" transform="translate(159.037 87.426)"/></g></g></g><g fill="#FFF"><g><g><path d="M 17.265625 -21.65625 C 17.648438 -21.65625 17.84375 -21.457031 17.84375 -21.0625 L 17.84375 -17.234375 C 17.84375 -16.835938 17.648438 -16.640625 17.265625 -16.640625 L 12.28125 -16.640625 C 12.113281 -16.640625 12.03125 -16.554688 12.03125 -16.390625 L 12.03125 -0.59375 C 12.03125 -0.195312 11.835938 0 11.453125 0 L 6.8125 0 C 6.414062 0 6.21875 -0.195312 6.21875 -0.59375 L 6.21875 -16.390625 C 6.21875 -16.554688 6.132812 -16.640625 5.96875 -16.640625 L 1.140625 -16.640625 C 0.753906 -16.640625 0.5625 -16.835938 0.5625 -17.234375 L 0.5625 -21.0625 C 0.5625 -21.457031 0.753906 -21.65625 1.140625 -21.65625 Z M 17.265625 -21.65625" transform="translate(179.578 87.426)"/></g></g></g><g fill="#FFF"><g><g><path d="M 12.71875 0 C 12.382812 0 12.15625 -0.144531 12.03125 -0.4375 L 8.6875 -8.140625 C 8.644531 -8.265625 8.546875 -8.328125 8.390625 -8.328125 L 7.265625 -8.328125 C 7.097656 -8.328125 7.015625 -8.242188 7.015625 -8.078125 L 7.015625 -0.59375 C 7.015625 -0.195312 6.820312 0 6.4375 0 L 1.796875 0 C 1.398438 0 1.203125 -0.195312 1.203125 -0.59375 L 1.203125 -21.0625 C 1.203125 -21.457031 1.398438 -21.65625 1.796875 -21.65625 L 11.046875 -21.65625 C 12.441406 -21.65625 13.671875 -21.363281 14.734375 -20.78125 C 15.796875 -20.207031 16.617188 -19.398438 17.203125 -18.359375 C 17.796875 -17.316406 18.09375 -16.113281 18.09375 -14.75 C 18.09375 -13.414062 17.769531 -12.242188 17.125 -11.234375 C 16.476562 -10.222656 15.578125 -9.46875 14.421875 -8.96875 C 14.273438 -8.90625 14.234375 -8.800781 14.296875 -8.65625 L 18.0625 -0.6875 C 18.101562 -0.601562 18.125 -0.5 18.125 -0.375 C 18.125 -0.125 17.960938 0 17.640625 0 Z M 7.265625 -16.671875 C 7.097656 -16.671875 7.015625 -16.585938 7.015625 -16.421875 L 7.015625 -13 C 7.015625 -12.832031 7.097656 -12.75 7.265625 -12.75 L 10.078125 -12.75 C 10.742188 -12.75 11.28125 -12.925781 11.6875 -13.28125 C 12.101562 -13.644531 12.3125 -14.113281 12.3125 -14.6875 C 12.3125 -15.289062 12.101562 -15.769531 11.6875 -16.125 C 11.28125 -16.488281 10.742188 -16.671875 10.078125 -16.671875 Z M 7.265625 -16.671875" transform="translate(200.057 87.426)"/></g></g></g><g fill="#FFF"><g><g><path d="M 16.890625 -17.265625 C 16.890625 -16.867188 16.691406 -16.671875 16.296875 -16.671875 L 7.265625 -16.671875 C 7.097656 -16.671875 7.015625 -16.585938 7.015625 -16.421875 L 7.015625 -13.703125 C 7.015625 -13.535156 7.097656 -13.453125 7.265625 -13.453125 L 12.78125 -13.453125 C 13.164062 -13.453125 13.359375 -13.257812 13.359375 -12.875 L 13.359375 -9.09375 C 13.359375 -8.695312 13.164062 -8.5 12.78125 -8.5 L 7.265625 -8.5 C 7.097656 -8.5 7.015625 -8.421875 7.015625 -8.265625 L 7.015625 -5.234375 C 7.015625 -5.066406 7.097656 -4.984375 7.265625 -4.984375 L 16.296875 -4.984375 C 16.691406 -4.984375 16.890625 -4.785156 16.890625 -4.390625 L 16.890625 -0.59375 C 16.890625 -0.195312 16.691406 0 16.296875 0 L 1.796875 0 C 1.398438 0 1.203125 -0.195312 1.203125 -0.59375 L 1.203125 -21.0625 C 1.203125 -21.457031 1.398438 -21.65625 1.796875 -21.65625 L 16.296875 -21.65625 C 16.691406 -21.65625 16.890625 -21.457031 16.890625 -21.0625 Z M 16.890625 -17.265625" transform="translate(221.155 87.426)"/></g></g></g><g fill="#FFF"><g><g><path d="M 9.25 0.25 C 7.582031 0.25 6.109375 -0.03125 4.828125 -0.59375 C 3.546875 -1.164062 2.550781 -1.976562 1.84375 -3.03125 C 1.144531 -4.082031 0.796875 -5.300781 0.796875 -6.6875 L 0.796875 -6.984375 C 0.796875 -7.378906 0.992188 -7.578125 1.390625 -7.578125 L 5.9375 -7.578125 C 6.332031 -7.578125 6.53125 -7.472656 6.53125 -7.265625 L 6.53125 -6.9375 C 6.53125 -6.375 6.828125 -5.863281 7.421875 -5.40625 C 8.023438 -4.957031 8.78125 -4.734375 9.6875 -4.734375 C 10.445312 -4.734375 10.988281 -4.890625 11.3125 -5.203125 C 11.644531 -5.523438 11.8125 -5.882812 11.8125 -6.28125 C 11.8125 -6.726562 11.601562 -7.066406 11.1875 -7.296875 C 10.78125 -7.523438 10.03125 -7.804688 8.9375 -8.140625 L 8.046875 -8.390625 C 6.003906 -9.003906 4.289062 -9.828125 2.90625 -10.859375 C 1.519531 -11.890625 0.828125 -13.382812 0.828125 -15.34375 C 0.828125 -16.644531 1.175781 -17.796875 1.875 -18.796875 C 2.582031 -19.796875 3.550781 -20.5625 4.78125 -21.09375 C 6.007812 -21.632812 7.382812 -21.90625 8.90625 -21.90625 C 10.519531 -21.90625 11.976562 -21.601562 13.28125 -21 C 14.59375 -20.40625 15.625 -19.5625 16.375 -18.46875 C 17.132812 -17.375 17.515625 -16.125 17.515625 -14.71875 L 17.515625 -14.578125 C 17.515625 -14.179688 17.316406 -13.984375 16.921875 -13.984375 L 12.375 -13.984375 C 11.976562 -13.984375 11.78125 -14.066406 11.78125 -14.234375 L 11.78125 -14.484375 C 11.78125 -15.097656 11.5 -15.65625 10.9375 -16.15625 C 10.382812 -16.664062 9.632812 -16.921875 8.6875 -16.921875 C 8.03125 -16.921875 7.507812 -16.785156 7.125 -16.515625 C 6.75 -16.253906 6.5625 -15.882812 6.5625 -15.40625 C 6.5625 -15.03125 6.695312 -14.710938 6.96875 -14.453125 C 7.25 -14.203125 7.675781 -13.957031 8.25 -13.71875 C 8.832031 -13.476562 9.722656 -13.175781 10.921875 -12.8125 C 11.085938 -12.75 11.8125 -12.523438 13.09375 -12.140625 C 14.382812 -11.765625 15.460938 -11.070312 16.328125 -10.0625 C 17.203125 -9.0625 17.640625 -7.851562 17.640625 -6.4375 C 17.640625 -5.09375 17.285156 -3.914062 16.578125 -2.90625 C 15.878906 -1.894531 14.894531 -1.113281 13.625 -0.5625 C 12.351562 -0.0195312 10.894531 0.25 9.25 0.25 Z M 9.25 0.25" transform="translate(240.861 87.426)"/></g></g></g><g fill="#FFF"><g><g><path d="M 9.25 0.25 C 7.582031 0.25 6.109375 -0.03125 4.828125 -0.59375 C 3.546875 -1.164062 2.550781 -1.976562 1.84375 -3.03125 C 1.144531 -4.082031 0.796875 -5.300781 0.796875 -6.6875 L 0.796875 -6.984375 C 0.796875 -7.378906 0.992188 -7.578125 1.390625 -7.578125 L 5.9375 -7.578125 C 6.332031 -7.578125 6.53125 -7.472656 6.53125 -7.265625 L 6.53125 -6.9375 C 6.53125 -6.375 6.828125 -5.863281 7.421875 -5.40625 C 8.023438 -4.957031 8.78125 -4.734375 9.6875 -4.734375 C 10.445312 -4.734375 10.988281 -4.890625 11.3125 -5.203125 C 11.644531 -5.523438 11.8125 -5.882812 11.8125 -6.28125 C 11.8125 -6.726562 11.601562 -7.066406 11.1875 -7.296875 C 10.78125 -7.523438 10.03125 -7.804688 8.9375 -8.140625 L 8.046875 -8.390625 C 6.003906 -9.003906 4.289062 -9.828125 2.90625 -10.859375 C 1.519531 -11.890625 0.828125 -13.382812 0.828125 -15.34375 C 0.828125 -16.644531 1.175781 -17.796875 1.875 -18.796875 C 2.582031 -19.796875 3.550781 -20.5625 4.78125 -21.09375 C 6.007812 -21.632812 7.382812 -21.90625 8.90625 -21.90625 C 10.519531 -21.90625 11.976562 -21.601562 13.28125 -21 C 14.59375 -20.40625 15.625 -19.5625 16.375 -18.46875 C 17.132812 -17.375 17.515625 -16.125 17.515625 -14.71875 L 17.515625 -14.578125 C 17.515625 -14.179688 17.316406 -13.984375 16.921875 -13.984375 L 12.375 -13.984375 C 11.976562 -13.984375 11.78125 -14.066406 11.78125 -14.234375 L 11.78125 -14.484375 C 11.78125 -15.097656 11.5 -15.65625 10.9375 -16.15625 C 10.382812 -16.664062 9.632812 -16.921875 8.6875 -16.921875 C 8.03125 -16.921875 7.507812 -16.785156 7.125 -16.515625 C 6.75 -16.253906 6.5625 -15.882812 6.5625 -15.40625 C 6.5625 -15.03125 6.695312 -14.710938 6.96875 -14.453125 C 7.25 -14.203125 7.675781 -13.957031 8.25 -13.71875 C 8.832031 -13.476562 9.722656 -13.175781 10.921875 -12.8125 C 11.085938 -12.75 11.8125 -12.523438 13.09375 -12.140625 C 14.382812 -11.765625 15.460938 -11.070312 16.328125 -10.0625 C 17.203125 -9.0625 17.640625 -7.851562 17.640625 -6.4375 C 17.640625 -5.09375 17.285156 -3.914062 16.578125 -2.90625 C 15.878906 -1.894531 14.894531 -1.113281 13.625 -0.5625 C 12.351562 -0.0195312 10.894531 0.25 9.25 0.25 Z M 9.25 0.25" transform="translate(261.403 87.426)"/></g></g></g><g fill="#FFF"><g><g><path d="M 5.859375 0 C 5.753906 0 5.6875 -0.046875 5.65625 -0.140625 L 5.25 -1.421875 C 5.238281 -1.453125 5.222656 -1.46875 5.203125 -1.46875 L 2 -1.46875 C 1.976562 -1.46875 1.960938 -1.453125 1.953125 -1.421875 L 1.546875 -0.140625 C 1.515625 -0.046875 1.445312 0 1.34375 0 L 0.53125 0 C 0.40625 0 0.363281 -0.0625 0.40625 -0.1875 L 2.875 -7.875 C 2.90625 -7.96875 2.96875 -8.015625 3.0625 -8.015625 L 4.125 -8.015625 C 4.21875 -8.015625 4.28125 -7.96875 4.3125 -7.875 L 6.8125 -0.1875 C 6.820312 -0.175781 6.828125 -0.15625 6.828125 -0.125 C 6.828125 -0.0390625 6.773438 0 6.671875 0 Z M 2.25 -2.40625 C 2.238281 -2.363281 2.253906 -2.34375 2.296875 -2.34375 L 4.90625 -2.34375 C 4.957031 -2.34375 4.972656 -2.363281 4.953125 -2.40625 L 3.625 -6.671875 C 3.625 -6.703125 3.613281 -6.71875 3.59375 -6.71875 C 3.582031 -6.71875 3.570312 -6.703125 3.5625 -6.671875 Z M 2.25 -2.40625" transform="translate(87.313 104.214)"/></g></g></g><g fill="#FFF"><g><g><path d="M 3.40625 -5.90625 C 4.03125 -5.90625 4.523438 -5.722656 4.890625 -5.359375 C 5.253906 -5.003906 5.4375 -4.515625 5.4375 -3.890625 L 5.4375 -0.171875 C 5.4375 -0.117188 5.421875 -0.078125 5.390625 -0.046875 C 5.359375 -0.015625 5.316406 0 5.265625 0 L 4.515625 0 C 4.460938 0 4.421875 -0.015625 4.390625 -0.046875 C 4.359375 -0.078125 4.34375 -0.117188 4.34375 -0.171875 L 4.34375 -3.671875 C 4.34375 -4.054688 4.226562 -4.363281 4 -4.59375 C 3.78125 -4.832031 3.488281 -4.953125 3.125 -4.953125 C 2.800781 -4.953125 2.523438 -4.851562 2.296875 -4.65625 C 2.066406 -4.46875 1.9375 -4.207031 1.90625 -3.875 L 1.90625 -0.171875 C 1.90625 -0.117188 1.890625 -0.078125 1.859375 -0.046875 C 1.828125 -0.015625 1.785156 0 1.734375 0 L 0.96875 0 C 0.914062 0 0.875 -0.015625 0.84375 -0.046875 C 0.8125 -0.078125 0.796875 -0.117188 0.796875 -0.171875 L 0.796875 -5.65625 C 0.796875 -5.707031 0.8125 -5.75 0.84375 -5.78125 C 0.875 -5.8125 0.914062 -5.828125 0.96875 -5.828125 L 1.734375 -5.828125 C 1.785156 -5.828125 1.828125 -5.8125 1.859375 -5.78125 C 1.890625 -5.75 1.90625 -5.707031 1.90625 -5.65625 L 1.90625 -5.34375 C 1.90625 -5.3125 1.910156 -5.289062 1.921875 -5.28125 C 1.941406 -5.28125 1.953125 -5.285156 1.953125 -5.296875 C 2.273438 -5.703125 2.757812 -5.90625 3.40625 -5.90625 Z M 3.40625 -5.90625" transform="translate(95.42 104.214)"/></g></g></g><g fill="#FFF"><g><g><path d="M 5.859375 0 C 5.753906 0 5.6875 -0.046875 5.65625 -0.140625 L 5.25 -1.421875 C 5.238281 -1.453125 5.222656 -1.46875 5.203125 -1.46875 L 2 -1.46875 C 1.976562 -1.46875 1.960938 -1.453125 1.953125 -1.421875 L 1.546875 -0.140625 C 1.515625 -0.046875 1.445312 0 1.34375 0 L 0.53125 0 C 0.40625 0 0.363281 -0.0625 0.40625 -0.1875 L 2.875 -7.875 C 2.90625 -7.96875 2.96875 -8.015625 3.0625 -8.015625 L 4.125 -8.015625 C 4.21875 -8.015625 4.28125 -7.96875 4.3125 -7.875 L 6.8125 -0.1875 C 6.820312 -0.175781 6.828125 -0.15625 6.828125 -0.125 C 6.828125 -0.0390625 6.773438 0 6.671875 0 Z M 2.25 -2.40625 C 2.238281 -2.363281 2.253906 -2.34375 2.296875 -2.34375 L 4.90625 -2.34375 C 4.957031 -2.34375 4.972656 -2.363281 4.953125 -2.40625 L 3.625 -6.671875 C 3.625 -6.703125 3.613281 -6.71875 3.59375 -6.71875 C 3.582031 -6.71875 3.570312 -6.703125 3.5625 -6.671875 Z M 2.25 -2.40625" transform="translate(105.702 104.214)"/></g></g></g><g fill="#FFF"><g><g><path d="M 1.4375 -6.703125 C 1.21875 -6.703125 1.035156 -6.765625 0.890625 -6.890625 C 0.753906 -7.023438 0.6875 -7.203125 0.6875 -7.421875 C 0.6875 -7.640625 0.753906 -7.8125 0.890625 -7.9375 C 1.035156 -8.070312 1.21875 -8.140625 1.4375 -8.140625 C 1.664062 -8.140625 1.847656 -8.070312 1.984375 -7.9375 C 2.117188 -7.8125 2.1875 -7.640625 2.1875 -7.421875 C 2.1875 -7.203125 2.117188 -7.023438 1.984375 -6.890625 C 1.847656 -6.765625 1.664062 -6.703125 1.4375 -6.703125 Z M 1.0625 0 C 1.007812 0 0.96875 -0.015625 0.9375 -0.046875 C 0.90625 -0.078125 0.890625 -0.117188 0.890625 -0.171875 L 0.890625 -5.65625 C 0.890625 -5.707031 0.90625 -5.75 0.9375 -5.78125 C 0.96875 -5.8125 1.007812 -5.828125 1.0625 -5.828125 L 1.828125 -5.828125 C 1.878906 -5.828125 1.921875 -5.8125 1.953125 -5.78125 C 1.984375 -5.75 2 -5.707031 2 -5.65625 L 2 -0.171875 C 2 -0.117188 1.984375 -0.078125 1.953125 -0.046875 C 1.921875 -0.015625 1.878906 0 1.828125 0 Z M 1.0625 0" transform="translate(113.81 104.214)"/></g></g></g><g fill="#FFF"><g><g><path d="M 3.515625 0.109375 C 2.960938 0.109375 2.472656 0 2.046875 -0.21875 C 1.628906 -0.4375 1.300781 -0.742188 1.0625 -1.140625 C 0.832031 -1.546875 0.71875 -2.007812 0.71875 -2.53125 L 0.71875 -5.5 C 0.71875 -6.019531 0.832031 -6.472656 1.0625 -6.859375 C 1.300781 -7.253906 1.628906 -7.5625 2.046875 -7.78125 C 2.472656 -8 2.960938 -8.109375 3.515625 -8.109375 C 4.066406 -8.109375 4.550781 -8.003906 4.96875 -7.796875 C 5.382812 -7.585938 5.707031 -7.289062 5.9375 -6.90625 C 6.175781 -6.519531 6.296875 -6.078125 6.296875 -5.578125 C 6.296875 -5.503906 6.238281 -5.457031 6.125 -5.4375 L 5.375 -5.390625 L 5.328125 -5.390625 C 5.285156 -5.390625 5.253906 -5.394531 5.234375 -5.40625 C 5.210938 -5.425781 5.203125 -5.445312 5.203125 -5.46875 L 5.203125 -5.53125 C 5.203125 -6.019531 5.046875 -6.410156 4.734375 -6.703125 C 4.429688 -7.003906 4.023438 -7.15625 3.515625 -7.15625 C 3.003906 -7.15625 2.59375 -7.003906 2.28125 -6.703125 C 1.976562 -6.410156 1.828125 -6.019531 1.828125 -5.53125 L 1.828125 -2.484375 C 1.828125 -1.992188 1.976562 -1.597656 2.28125 -1.296875 C 2.59375 -1.003906 3.003906 -0.859375 3.515625 -0.859375 C 4.023438 -0.859375 4.429688 -1.003906 4.734375 -1.296875 C 5.046875 -1.597656 5.203125 -1.992188 5.203125 -2.484375 C 5.203125 -2.523438 5.21875 -2.554688 5.25 -2.578125 C 5.28125 -2.609375 5.320312 -2.617188 5.375 -2.609375 L 6.125 -2.5625 C 6.238281 -2.550781 6.296875 -2.535156 6.296875 -2.515625 L 6.296875 -2.453125 C 6.296875 -1.941406 6.175781 -1.492188 5.9375 -1.109375 C 5.707031 -0.722656 5.382812 -0.421875 4.96875 -0.203125 C 4.550781 0.00390625 4.066406 0.109375 3.515625 0.109375 Z M 3.515625 0.109375" transform="translate(120.761 104.214)"/></g></g></g><g fill="#FFF"><g><g><path d="M 3.203125 0.09375 C 2.628906 0.09375 2.132812 -0.046875 1.71875 -0.328125 C 1.300781 -0.617188 1.007812 -1.019531 0.84375 -1.53125 C 0.695312 -1.945312 0.625 -2.414062 0.625 -2.9375 C 0.625 -3.476562 0.691406 -3.9375 0.828125 -4.3125 C 0.992188 -4.8125 1.285156 -5.203125 1.703125 -5.484375 C 2.128906 -5.773438 2.628906 -5.921875 3.203125 -5.921875 C 3.753906 -5.921875 4.234375 -5.773438 4.640625 -5.484375 C 5.046875 -5.203125 5.335938 -4.8125 5.515625 -4.3125 C 5.660156 -3.925781 5.734375 -3.46875 5.734375 -2.9375 C 5.734375 -2.40625 5.660156 -1.9375 5.515625 -1.53125 C 5.347656 -1.019531 5.054688 -0.617188 4.640625 -0.328125 C 4.234375 -0.046875 3.753906 0.09375 3.203125 0.09375 Z M 3.203125 -0.859375 C 3.503906 -0.859375 3.769531 -0.941406 4 -1.109375 C 4.226562 -1.285156 4.390625 -1.53125 4.484375 -1.84375 C 4.566406 -2.132812 4.609375 -2.492188 4.609375 -2.921875 C 4.609375 -3.347656 4.570312 -3.703125 4.5 -3.984375 C 4.40625 -4.296875 4.242188 -4.535156 4.015625 -4.703125 C 3.785156 -4.878906 3.503906 -4.96875 3.171875 -4.96875 C 2.859375 -4.96875 2.585938 -4.878906 2.359375 -4.703125 C 2.128906 -4.535156 1.960938 -4.296875 1.859375 -3.984375 C 1.773438 -3.710938 1.734375 -3.359375 1.734375 -2.921875 C 1.734375 -2.472656 1.773438 -2.113281 1.859375 -1.84375 C 1.953125 -1.53125 2.113281 -1.285156 2.34375 -1.109375 C 2.582031 -0.941406 2.867188 -0.859375 3.203125 -0.859375 Z M 3.203125 -0.859375" transform="translate(128.605 104.214)"/></g></g></g><g fill="#FFF"><g><g><path d="M 5.53125 -4.359375 C 5.664062 -3.984375 5.734375 -3.492188 5.734375 -2.890625 C 5.734375 -2.335938 5.675781 -1.878906 5.5625 -1.515625 C 5.40625 -1.003906 5.140625 -0.609375 4.765625 -0.328125 C 4.398438 -0.046875 3.9375 0.09375 3.375 0.09375 C 3.101562 0.09375 2.851562 0.046875 2.625 -0.046875 C 2.40625 -0.148438 2.207031 -0.300781 2.03125 -0.5 C 2.019531 -0.507812 2.003906 -0.507812 1.984375 -0.5 C 1.972656 -0.5 1.96875 -0.488281 1.96875 -0.46875 L 1.96875 2.015625 C 1.96875 2.066406 1.953125 2.109375 1.921875 2.140625 C 1.890625 2.171875 1.847656 2.1875 1.796875 2.1875 L 1.046875 2.1875 C 0.992188 2.1875 0.953125 2.171875 0.921875 2.140625 C 0.890625 2.109375 0.875 2.066406 0.875 2.015625 L 0.875 -5.65625 C 0.875 -5.707031 0.890625 -5.75 0.921875 -5.78125 C 0.953125 -5.8125 0.992188 -5.828125 1.046875 -5.828125 L 1.796875 -5.828125 C 1.847656 -5.828125 1.890625 -5.8125 1.921875 -5.78125 C 1.953125 -5.75 1.96875 -5.707031 1.96875 -5.65625 L 1.96875 -5.359375 C 1.96875 -5.335938 1.972656 -5.320312 1.984375 -5.3125 C 2.003906 -5.300781 2.019531 -5.304688 2.03125 -5.328125 C 2.207031 -5.515625 2.40625 -5.660156 2.625 -5.765625 C 2.851562 -5.867188 3.101562 -5.921875 3.375 -5.921875 C 3.914062 -5.921875 4.367188 -5.785156 4.734375 -5.515625 C 5.097656 -5.242188 5.363281 -4.859375 5.53125 -4.359375 Z M 4.265625 -1.40625 C 4.515625 -1.789062 4.640625 -2.296875 4.640625 -2.921875 C 4.640625 -3.503906 4.546875 -3.976562 4.359375 -4.34375 C 4.128906 -4.757812 3.757812 -4.96875 3.25 -4.96875 C 2.8125 -4.96875 2.476562 -4.765625 2.25 -4.359375 C 2.070312 -4.023438 1.984375 -3.539062 1.984375 -2.90625 C 1.984375 -2.28125 2.082031 -1.789062 2.28125 -1.4375 C 2.5 -1.050781 2.820312 -0.859375 3.25 -0.859375 C 3.695312 -0.859375 4.035156 -1.039062 4.265625 -1.40625 Z M 4.265625 -1.40625" transform="translate(135.854 104.214)"/></g></g></g><g fill="#FFF"><g><g><path d="M 0.625 2.296875 C 0.601562 2.296875 0.582031 2.28125 0.5625 2.25 C 0.550781 2.21875 0.546875 2.175781 0.546875 2.125 L 0.546875 1.53125 C 0.546875 1.414062 0.570312 1.359375 0.625 1.359375 L 0.6875 1.359375 C 0.988281 1.359375 1.222656 1.320312 1.390625 1.25 C 1.566406 1.1875 1.710938 1.0625 1.828125 0.875 C 1.953125 0.6875 2.066406 0.40625 2.171875 0.03125 C 2.179688 0.0195312 2.179688 0 2.171875 -0.03125 L 0.28125 -5.640625 C 0.28125 -5.648438 0.28125 -5.671875 0.28125 -5.703125 C 0.28125 -5.785156 0.328125 -5.828125 0.421875 -5.828125 L 1.21875 -5.828125 C 1.320312 -5.828125 1.390625 -5.78125 1.421875 -5.6875 L 2.71875 -1.5625 C 2.71875 -1.53125 2.722656 -1.515625 2.734375 -1.515625 C 2.753906 -1.515625 2.769531 -1.53125 2.78125 -1.5625 L 4.03125 -5.6875 C 4.039062 -5.726562 4.0625 -5.757812 4.09375 -5.78125 C 4.132812 -5.8125 4.175781 -5.828125 4.21875 -5.828125 L 5.03125 -5.828125 C 5.09375 -5.828125 5.132812 -5.8125 5.15625 -5.78125 C 5.175781 -5.75 5.179688 -5.703125 5.171875 -5.640625 L 3.109375 0.40625 C 2.941406 0.925781 2.769531 1.316406 2.59375 1.578125 C 2.414062 1.835938 2.1875 2.019531 1.90625 2.125 C 1.625 2.238281 1.222656 2.296875 0.703125 2.296875 Z M 0.625 2.296875" transform="translate(143.068 104.214)"/></g></g></g><g fill="#FFF"><g><g><path d="M 2.578125 0 C 2.472656 0 2.40625 -0.0507812 2.375 -0.15625 L 0.28125 -7.828125 C 0.269531 -7.835938 0.265625 -7.859375 0.265625 -7.890625 C 0.265625 -7.972656 0.3125 -8.015625 0.40625 -8.015625 L 1.234375 -8.015625 C 1.335938 -8.015625 1.398438 -7.96875 1.421875 -7.875 L 2.90625 -2.234375 C 2.914062 -2.210938 2.925781 -2.203125 2.9375 -2.203125 C 2.957031 -2.203125 2.972656 -2.210938 2.984375 -2.234375 L 4.375 -7.875 C 4.394531 -7.96875 4.457031 -8.015625 4.5625 -8.015625 L 5.375 -8.015625 C 5.46875 -8.015625 5.53125 -7.96875 5.5625 -7.875 L 7.03125 -2.234375 C 7.039062 -2.210938 7.050781 -2.203125 7.0625 -2.203125 C 7.082031 -2.203125 7.09375 -2.210938 7.09375 -2.234375 L 8.59375 -7.875 C 8.613281 -7.96875 8.671875 -8.015625 8.765625 -8.015625 L 9.546875 -8.015625 C 9.597656 -8.015625 9.640625 -8 9.671875 -7.96875 C 9.703125 -7.9375 9.707031 -7.890625 9.6875 -7.828125 L 7.640625 -0.15625 C 7.617188 -0.0507812 7.554688 0 7.453125 0 L 6.671875 0 C 6.566406 0 6.503906 -0.0507812 6.484375 -0.15625 L 5 -5.984375 C 5 -6.015625 4.988281 -6.03125 4.96875 -6.03125 C 4.957031 -6.03125 4.945312 -6.015625 4.9375 -5.984375 L 3.5 -0.15625 C 3.476562 -0.0507812 3.421875 0 3.328125 0 Z M 2.578125 0" transform="translate(152.596 104.214)"/></g></g></g><g fill="#FFF"><g><g><path d="M 3.359375 -5.890625 C 3.585938 -5.890625 3.789062 -5.847656 3.96875 -5.765625 C 4.050781 -5.710938 4.082031 -5.640625 4.0625 -5.546875 L 3.90625 -4.796875 C 3.894531 -4.722656 3.859375 -4.6875 3.796875 -4.6875 C 3.753906 -4.6875 3.722656 -4.691406 3.703125 -4.703125 C 3.585938 -4.734375 3.457031 -4.75 3.3125 -4.75 C 3.238281 -4.75 3.179688 -4.742188 3.140625 -4.734375 C 2.773438 -4.722656 2.476562 -4.597656 2.25 -4.359375 C 2.019531 -4.128906 1.90625 -3.828125 1.90625 -3.453125 L 1.90625 -0.171875 C 1.90625 -0.117188 1.890625 -0.078125 1.859375 -0.046875 C 1.828125 -0.015625 1.785156 0 1.734375 0 L 0.96875 0 C 0.914062 0 0.875 -0.015625 0.84375 -0.046875 C 0.8125 -0.078125 0.796875 -0.117188 0.796875 -0.171875 L 0.796875 -5.65625 C 0.796875 -5.707031 0.8125 -5.75 0.84375 -5.78125 C 0.875 -5.8125 0.914062 -5.828125 0.96875 -5.828125 L 1.734375 -5.828125 C 1.785156 -5.828125 1.828125 -5.8125 1.859375 -5.78125 C 1.890625 -5.75 1.90625 -5.707031 1.90625 -5.65625 L 1.90625 -5.125 C 1.90625 -5.09375 1.910156 -5.078125 1.921875 -5.078125 C 1.929688 -5.078125 1.941406 -5.085938 1.953125 -5.109375 C 2.296875 -5.628906 2.765625 -5.890625 3.359375 -5.890625 Z M 3.359375 -5.890625" transform="translate(163.44 104.214)"/></g></g></g><g fill="#FFF"><g><g><path d="M 1.4375 -6.703125 C 1.21875 -6.703125 1.035156 -6.765625 0.890625 -6.890625 C 0.753906 -7.023438 0.6875 -7.203125 0.6875 -7.421875 C 0.6875 -7.640625 0.753906 -7.8125 0.890625 -7.9375 C 1.035156 -8.070312 1.21875 -8.140625 1.4375 -8.140625 C 1.664062 -8.140625 1.847656 -8.070312 1.984375 -7.9375 C 2.117188 -7.8125 2.1875 -7.640625 2.1875 -7.421875 C 2.1875 -7.203125 2.117188 -7.023438 1.984375 -6.890625 C 1.847656 -6.765625 1.664062 -6.703125 1.4375 -6.703125 Z M 1.0625 0 C 1.007812 0 0.96875 -0.015625 0.9375 -0.046875 C 0.90625 -0.078125 0.890625 -0.117188 0.890625 -0.171875 L 0.890625 -5.65625 C 0.890625 -5.707031 0.90625 -5.75 0.9375 -5.78125 C 0.96875 -5.8125 1.007812 -5.828125 1.0625 -5.828125 L 1.828125 -5.828125 C 1.878906 -5.828125 1.921875 -5.8125 1.953125 -5.78125 C 1.984375 -5.75 2 -5.707031 2 -5.65625 L 2 -0.171875 C 2 -0.117188 1.984375 -0.078125 1.953125 -0.046875 C 1.921875 -0.015625 1.878906 0 1.828125 0 Z M 1.0625 0" transform="translate(168.581 104.214)"/></g></g></g><g fill="#FFF"><g><g><path d="M 3.671875 -5.09375 C 3.671875 -5.039062 3.65625 -5 3.625 -4.96875 C 3.59375 -4.9375 3.550781 -4.921875 3.5 -4.921875 L 2.34375 -4.921875 C 2.300781 -4.921875 2.28125 -4.90625 2.28125 -4.875 L 2.28125 -1.875 C 2.28125 -1.550781 2.347656 -1.316406 2.484375 -1.171875 C 2.628906 -1.035156 2.859375 -0.96875 3.171875 -0.96875 L 3.453125 -0.96875 C 3.503906 -0.96875 3.546875 -0.953125 3.578125 -0.921875 C 3.609375 -0.890625 3.625 -0.847656 3.625 -0.796875 L 3.625 -0.203125 C 3.625 -0.0976562 3.566406 -0.0351562 3.453125 -0.015625 L 2.984375 -0.015625 C 2.390625 -0.015625 1.945312 -0.113281 1.65625 -0.3125 C 1.363281 -0.519531 1.21875 -0.910156 1.21875 -1.484375 L 1.21875 -4.875 C 1.21875 -4.90625 1.203125 -4.921875 1.171875 -4.921875 L 0.53125 -4.921875 C 0.476562 -4.921875 0.4375 -4.9375 0.40625 -4.96875 C 0.375 -5 0.359375 -5.039062 0.359375 -5.09375 L 0.359375 -5.65625 C 0.359375 -5.707031 0.375 -5.75 0.40625 -5.78125 C 0.4375 -5.8125 0.476562 -5.828125 0.53125 -5.828125 L 1.171875 -5.828125 C 1.203125 -5.828125 1.21875 -5.847656 1.21875 -5.890625 L 1.21875 -7.171875 C 1.21875 -7.222656 1.234375 -7.265625 1.265625 -7.296875 C 1.296875 -7.328125 1.335938 -7.34375 1.390625 -7.34375 L 2.109375 -7.34375 C 2.160156 -7.34375 2.203125 -7.328125 2.234375 -7.296875 C 2.265625 -7.265625 2.28125 -7.222656 2.28125 -7.171875 L 2.28125 -5.890625 C 2.28125 -5.847656 2.300781 -5.828125 2.34375 -5.828125 L 3.5 -5.828125 C 3.550781 -5.828125 3.59375 -5.8125 3.625 -5.78125 C 3.65625 -5.75 3.671875 -5.707031 3.671875 -5.65625 Z M 3.671875 -5.09375" transform="translate(172.35 104.214)"/></g></g></g><g fill="#FFF"><g><g><path d="M 1.4375 -6.703125 C 1.21875 -6.703125 1.035156 -6.765625 0.890625 -6.890625 C 0.753906 -7.023438 0.6875 -7.203125 0.6875 -7.421875 C 0.6875 -7.640625 0.753906 -7.8125 0.890625 -7.9375 C 1.035156 -8.070312 1.21875 -8.140625 1.4375 -8.140625 C 1.664062 -8.140625 1.847656 -8.070312 1.984375 -7.9375 C 2.117188 -7.8125 2.1875 -7.640625 2.1875 -7.421875 C 2.1875 -7.203125 2.117188 -7.023438 1.984375 -6.890625 C 1.847656 -6.765625 1.664062 -6.703125 1.4375 -6.703125 Z M 1.0625 0 C 1.007812 0 0.96875 -0.015625 0.9375 -0.046875 C 0.90625 -0.078125 0.890625 -0.117188 0.890625 -0.171875 L 0.890625 -5.65625 C 0.890625 -5.707031 0.90625 -5.75 0.9375 -5.78125 C 0.96875 -5.8125 1.007812 -5.828125 1.0625 -5.828125 L 1.828125 -5.828125 C 1.878906 -5.828125 1.921875 -5.8125 1.953125 -5.78125 C 1.984375 -5.75 2 -5.707031 2 -5.65625 L 2 -0.171875 C 2 -0.117188 1.984375 -0.078125 1.953125 -0.046875 C 1.921875 -0.015625 1.878906 0 1.828125 0 Z M 1.0625 0" transform="translate(177.468 104.214)"/></g></g></g><g fill="#FFF"><g><g><path d="M 3.40625 -5.90625 C 4.03125 -5.90625 4.523438 -5.722656 4.890625 -5.359375 C 5.253906 -5.003906 5.4375 -4.515625 5.4375 -3.890625 L 5.4375 -0.171875 C 5.4375 -0.117188 5.421875 -0.078125 5.390625 -0.046875 C 5.359375 -0.015625 5.316406 0 5.265625 0 L 4.515625 0 C 4.460938 0 4.421875 -0.015625 4.390625 -0.046875 C 4.359375 -0.078125 4.34375 -0.117188 4.34375 -0.171875 L 4.34375 -3.671875 C 4.34375 -4.054688 4.226562 -4.363281 4 -4.59375 C 3.78125 -4.832031 3.488281 -4.953125 3.125 -4.953125 C 2.800781 -4.953125 2.523438 -4.851562 2.296875 -4.65625 C 2.066406 -4.46875 1.9375 -4.207031 1.90625 -3.875 L 1.90625 -0.171875 C 1.90625 -0.117188 1.890625 -0.078125 1.859375 -0.046875 C 1.828125 -0.015625 1.785156 0 1.734375 0 L 0.96875 0 C 0.914062 0 0.875 -0.015625 0.84375 -0.046875 C 0.8125 -0.078125 0.796875 -0.117188 0.796875 -0.171875 L 0.796875 -5.65625 C 0.796875 -5.707031 0.8125 -5.75 0.84375 -5.78125 C 0.875 -5.8125 0.914062 -5.828125 0.96875 -5.828125 L 1.734375 -5.828125 C 1.785156 -5.828125 1.828125 -5.8125 1.859375 -5.78125 C 1.890625 -5.75 1.90625 -5.707031 1.90625 -5.65625 L 1.90625 -5.34375 C 1.90625 -5.3125 1.910156 -5.289062 1.921875 -5.28125 C 1.941406 -5.28125 1.953125 -5.285156 1.953125 -5.296875 C 2.273438 -5.703125 2.757812 -5.90625 3.40625 -5.90625 Z M 3.40625 -5.90625" transform="translate(181.236 104.214)"/></g></g></g><g fill="#FFF"><g><g><path d="M 4.390625 -5.65625 C 4.390625 -5.707031 4.40625 -5.75 4.4375 -5.78125 C 4.46875 -5.8125 4.507812 -5.828125 4.5625 -5.828125 L 5.3125 -5.828125 C 5.363281 -5.828125 5.40625 -5.8125 5.4375 -5.78125 C 5.46875 -5.75 5.484375 -5.707031 5.484375 -5.65625 L 5.484375 -0.296875 C 5.484375 0.617188 5.222656 1.273438 4.703125 1.671875 C 4.179688 2.078125 3.484375 2.28125 2.609375 2.28125 C 2.484375 2.28125 2.304688 2.269531 2.078125 2.25 C 1.972656 2.25 1.921875 2.191406 1.921875 2.078125 L 1.953125 1.390625 C 1.953125 1.335938 1.96875 1.296875 2 1.265625 C 2.039062 1.234375 2.085938 1.222656 2.140625 1.234375 C 2.242188 1.242188 2.394531 1.25 2.59375 1.25 C 3.21875 1.25 3.671875 1.128906 3.953125 0.890625 C 4.242188 0.648438 4.390625 0.242188 4.390625 -0.328125 L 4.390625 -0.53125 C 4.390625 -0.550781 4.378906 -0.5625 4.359375 -0.5625 C 4.347656 -0.570312 4.332031 -0.566406 4.3125 -0.546875 C 3.988281 -0.179688 3.523438 0 2.921875 0 C 2.421875 0 1.96875 -0.128906 1.5625 -0.390625 C 1.164062 -0.648438 0.894531 -1.03125 0.75 -1.53125 C 0.644531 -1.863281 0.59375 -2.332031 0.59375 -2.9375 C 0.59375 -3.5625 0.648438 -4.046875 0.765625 -4.390625 C 0.910156 -4.847656 1.164062 -5.21875 1.53125 -5.5 C 1.90625 -5.78125 2.347656 -5.921875 2.859375 -5.921875 C 3.484375 -5.921875 3.96875 -5.734375 4.3125 -5.359375 C 4.332031 -5.335938 4.347656 -5.328125 4.359375 -5.328125 C 4.378906 -5.335938 4.390625 -5.359375 4.390625 -5.390625 Z M 4.3125 -1.859375 C 4.34375 -1.984375 4.363281 -2.113281 4.375 -2.25 C 4.382812 -2.394531 4.390625 -2.625 4.390625 -2.9375 C 4.390625 -3.257812 4.382812 -3.488281 4.375 -3.625 C 4.363281 -3.757812 4.34375 -3.890625 4.3125 -4.015625 C 4.25 -4.296875 4.109375 -4.523438 3.890625 -4.703125 C 3.679688 -4.878906 3.414062 -4.96875 3.09375 -4.96875 C 2.769531 -4.96875 2.5 -4.878906 2.28125 -4.703125 C 2.070312 -4.523438 1.921875 -4.296875 1.828125 -4.015625 C 1.742188 -3.785156 1.703125 -3.425781 1.703125 -2.9375 C 1.703125 -2.414062 1.742188 -2.054688 1.828125 -1.859375 C 1.898438 -1.578125 2.046875 -1.347656 2.265625 -1.171875 C 2.492188 -0.992188 2.769531 -0.90625 3.09375 -0.90625 C 3.425781 -0.90625 3.695312 -0.992188 3.90625 -1.171875 C 4.113281 -1.347656 4.25 -1.578125 4.3125 -1.859375 Z M 4.3125 -1.859375" transform="translate(188.335 104.214)"/></g></g></g><g fill="#FFF"><g><g><path d="M 3.40625 0.09375 C 2.832031 0.09375 2.332031 0.00390625 1.90625 -0.171875 C 1.476562 -0.359375 1.148438 -0.617188 0.921875 -0.953125 C 0.691406 -1.296875 0.578125 -1.691406 0.578125 -2.140625 L 0.578125 -2.421875 C 0.578125 -2.472656 0.59375 -2.515625 0.625 -2.546875 C 0.65625 -2.578125 0.695312 -2.59375 0.75 -2.59375 L 1.484375 -2.59375 C 1.535156 -2.59375 1.578125 -2.578125 1.609375 -2.546875 C 1.640625 -2.515625 1.65625 -2.472656 1.65625 -2.421875 L 1.65625 -2.203125 C 1.65625 -1.804688 1.820312 -1.484375 2.15625 -1.234375 C 2.488281 -0.984375 2.9375 -0.859375 3.5 -0.859375 C 4.019531 -0.859375 4.410156 -0.96875 4.671875 -1.1875 C 4.941406 -1.40625 5.078125 -1.695312 5.078125 -2.0625 C 5.078125 -2.300781 5.007812 -2.503906 4.875 -2.671875 C 4.738281 -2.835938 4.535156 -2.988281 4.265625 -3.125 C 4.003906 -3.269531 3.625 -3.441406 3.125 -3.640625 C 2.570312 -3.859375 2.128906 -4.050781 1.796875 -4.21875 C 1.472656 -4.394531 1.203125 -4.625 0.984375 -4.90625 C 0.773438 -5.195312 0.671875 -5.5625 0.671875 -6 C 0.671875 -6.65625 0.90625 -7.171875 1.375 -7.546875 C 1.84375 -7.921875 2.476562 -8.109375 3.28125 -8.109375 C 3.851562 -8.109375 4.351562 -8.007812 4.78125 -7.8125 C 5.207031 -7.625 5.535156 -7.359375 5.765625 -7.015625 C 5.992188 -6.671875 6.109375 -6.273438 6.109375 -5.828125 L 6.109375 -5.65625 C 6.109375 -5.601562 6.09375 -5.5625 6.0625 -5.53125 C 6.039062 -5.5 6 -5.484375 5.9375 -5.484375 L 5.203125 -5.484375 C 5.148438 -5.484375 5.109375 -5.492188 5.078125 -5.515625 C 5.046875 -5.546875 5.03125 -5.585938 5.03125 -5.640625 L 5.03125 -5.765625 C 5.03125 -6.171875 4.867188 -6.503906 4.546875 -6.765625 C 4.234375 -7.023438 3.796875 -7.15625 3.234375 -7.15625 C 2.765625 -7.15625 2.398438 -7.054688 2.140625 -6.859375 C 1.878906 -6.671875 1.75 -6.394531 1.75 -6.03125 C 1.75 -5.769531 1.8125 -5.5625 1.9375 -5.40625 C 2.070312 -5.25 2.265625 -5.101562 2.515625 -4.96875 C 2.773438 -4.84375 3.171875 -4.679688 3.703125 -4.484375 C 4.242188 -4.273438 4.679688 -4.078125 5.015625 -3.890625 C 5.347656 -3.710938 5.625 -3.476562 5.84375 -3.1875 C 6.070312 -2.894531 6.1875 -2.53125 6.1875 -2.09375 C 6.1875 -1.65625 6.070312 -1.269531 5.84375 -0.9375 C 5.625 -0.613281 5.304688 -0.359375 4.890625 -0.171875 C 4.472656 0.00390625 3.976562 0.09375 3.40625 0.09375 Z M 3.40625 0.09375" transform="translate(198.63 104.214)"/></g></g></g><g fill="#FFF"><g><g><path d="M 3.203125 0.09375 C 2.628906 0.09375 2.132812 -0.046875 1.71875 -0.328125 C 1.300781 -0.617188 1.007812 -1.019531 0.84375 -1.53125 C 0.695312 -1.945312 0.625 -2.414062 0.625 -2.9375 C 0.625 -3.476562 0.691406 -3.9375 0.828125 -4.3125 C 0.992188 -4.8125 1.285156 -5.203125 1.703125 -5.484375 C 2.128906 -5.773438 2.628906 -5.921875 3.203125 -5.921875 C 3.753906 -5.921875 4.234375 -5.773438 4.640625 -5.484375 C 5.046875 -5.203125 5.335938 -4.8125 5.515625 -4.3125 C 5.660156 -3.925781 5.734375 -3.46875 5.734375 -2.9375 C 5.734375 -2.40625 5.660156 -1.9375 5.515625 -1.53125 C 5.347656 -1.019531 5.054688 -0.617188 4.640625 -0.328125 C 4.234375 -0.046875 3.753906 0.09375 3.203125 0.09375 Z M 3.203125 -0.859375 C 3.503906 -0.859375 3.769531 -0.941406 4 -1.109375 C 4.226562 -1.285156 4.390625 -1.53125 4.484375 -1.84375 C 4.566406 -2.132812 4.609375 -2.492188 4.609375 -2.921875 C 4.609375 -3.347656 4.570312 -3.703125 4.5 -3.984375 C 4.40625 -4.296875 4.242188 -4.535156 4.015625 -4.703125 C 3.785156 -4.878906 3.503906 -4.96875 3.171875 -4.96875 C 2.859375 -4.96875 2.585938 -4.878906 2.359375 -4.703125 C 2.128906 -4.535156 1.960938 -4.296875 1.859375 -3.984375 C 1.773438 -3.710938 1.734375 -3.359375 1.734375 -2.921875 C 1.734375 -2.472656 1.773438 -2.113281 1.859375 -1.84375 C 1.953125 -1.53125 2.113281 -1.285156 2.34375 -1.109375 C 2.582031 -0.941406 2.867188 -0.859375 3.203125 -0.859375 Z M 3.203125 -0.859375" transform="translate(206.257 104.214)"/></g></g></g><g fill="#FFF"><g><g><path d="M 0.984375 0 C 0.929688 0 0.890625 -0.015625 0.859375 -0.046875 C 0.828125 -0.078125 0.8125 -0.117188 0.8125 -0.171875 L 0.8125 -7.84375 C 0.8125 -7.894531 0.828125 -7.9375 0.859375 -7.96875 C 0.890625 -8 0.929688 -8.015625 0.984375 -8.015625 L 1.734375 -8.015625 C 1.796875 -8.015625 1.835938 -8 1.859375 -7.96875 C 1.890625 -7.9375 1.90625 -7.894531 1.90625 -7.84375 L 1.90625 -0.171875 C 1.90625 -0.117188 1.890625 -0.078125 1.859375 -0.046875 C 1.835938 -0.015625 1.796875 0 1.734375 0 Z M 0.984375 0" transform="translate(213.505 104.214)"/></g></g></g><g fill="#FFF"><g><g><path d="M 4.265625 -5.65625 C 4.265625 -5.707031 4.28125 -5.75 4.3125 -5.78125 C 4.34375 -5.8125 4.382812 -5.828125 4.4375 -5.828125 L 5.1875 -5.828125 C 5.238281 -5.828125 5.28125 -5.8125 5.3125 -5.78125 C 5.34375 -5.75 5.359375 -5.707031 5.359375 -5.65625 L 5.359375 -0.171875 C 5.359375 -0.117188 5.34375 -0.078125 5.3125 -0.046875 C 5.28125 -0.015625 5.238281 0 5.1875 0 L 4.4375 0 C 4.382812 0 4.34375 -0.015625 4.3125 -0.046875 C 4.28125 -0.078125 4.265625 -0.117188 4.265625 -0.171875 L 4.265625 -0.515625 C 4.265625 -0.535156 4.253906 -0.546875 4.234375 -0.546875 C 4.222656 -0.554688 4.210938 -0.550781 4.203125 -0.53125 C 3.898438 -0.125 3.4375 0.078125 2.8125 0.078125 C 2.4375 0.078125 2.085938 0.00390625 1.765625 -0.140625 C 1.453125 -0.285156 1.195312 -0.5 1 -0.78125 C 0.8125 -1.0625 0.71875 -1.40625 0.71875 -1.8125 L 0.71875 -5.65625 C 0.71875 -5.707031 0.734375 -5.75 0.765625 -5.78125 C 0.796875 -5.8125 0.835938 -5.828125 0.890625 -5.828125 L 1.640625 -5.828125 C 1.691406 -5.828125 1.734375 -5.8125 1.765625 -5.78125 C 1.796875 -5.75 1.8125 -5.707031 1.8125 -5.65625 L 1.8125 -2.15625 C 1.8125 -1.757812 1.914062 -1.445312 2.125 -1.21875 C 2.332031 -0.988281 2.628906 -0.875 3.015625 -0.875 C 3.390625 -0.875 3.691406 -0.988281 3.921875 -1.21875 C 4.148438 -1.445312 4.265625 -1.757812 4.265625 -2.15625 Z M 4.265625 -5.65625" transform="translate(217.124 104.214)"/></g></g></g><g fill="#FFF"><g><g><path d="M 3.671875 -5.09375 C 3.671875 -5.039062 3.65625 -5 3.625 -4.96875 C 3.59375 -4.9375 3.550781 -4.921875 3.5 -4.921875 L 2.34375 -4.921875 C 2.300781 -4.921875 2.28125 -4.90625 2.28125 -4.875 L 2.28125 -1.875 C 2.28125 -1.550781 2.347656 -1.316406 2.484375 -1.171875 C 2.628906 -1.035156 2.859375 -0.96875 3.171875 -0.96875 L 3.453125 -0.96875 C 3.503906 -0.96875 3.546875 -0.953125 3.578125 -0.921875 C 3.609375 -0.890625 3.625 -0.847656 3.625 -0.796875 L 3.625 -0.203125 C 3.625 -0.0976562 3.566406 -0.0351562 3.453125 -0.015625 L 2.984375 -0.015625 C 2.390625 -0.015625 1.945312 -0.113281 1.65625 -0.3125 C 1.363281 -0.519531 1.21875 -0.910156 1.21875 -1.484375 L 1.21875 -4.875 C 1.21875 -4.90625 1.203125 -4.921875 1.171875 -4.921875 L 0.53125 -4.921875 C 0.476562 -4.921875 0.4375 -4.9375 0.40625 -4.96875 C 0.375 -5 0.359375 -5.039062 0.359375 -5.09375 L 0.359375 -5.65625 C 0.359375 -5.707031 0.375 -5.75 0.40625 -5.78125 C 0.4375 -5.8125 0.476562 -5.828125 0.53125 -5.828125 L 1.171875 -5.828125 C 1.203125 -5.828125 1.21875 -5.847656 1.21875 -5.890625 L 1.21875 -7.171875 C 1.21875 -7.222656 1.234375 -7.265625 1.265625 -7.296875 C 1.296875 -7.328125 1.335938 -7.34375 1.390625 -7.34375 L 2.109375 -7.34375 C 2.160156 -7.34375 2.203125 -7.328125 2.234375 -7.296875 C 2.265625 -7.265625 2.28125 -7.222656 2.28125 -7.171875 L 2.28125 -5.890625 C 2.28125 -5.847656 2.300781 -5.828125 2.34375 -5.828125 L 3.5 -5.828125 C 3.550781 -5.828125 3.59375 -5.8125 3.625 -5.78125 C 3.65625 -5.75 3.671875 -5.707031 3.671875 -5.65625 Z M 3.671875 -5.09375" transform="translate(224.178 104.214)"/></g></g></g><g fill="#FFF"><g><g><path d="M 1.4375 -6.703125 C 1.21875 -6.703125 1.035156 -6.765625 0.890625 -6.890625 C 0.753906 -7.023438 0.6875 -7.203125 0.6875 -7.421875 C 0.6875 -7.640625 0.753906 -7.8125 0.890625 -7.9375 C 1.035156 -8.070312 1.21875 -8.140625 1.4375 -8.140625 C 1.664062 -8.140625 1.847656 -8.070312 1.984375 -7.9375 C 2.117188 -7.8125 2.1875 -7.640625 2.1875 -7.421875 C 2.1875 -7.203125 2.117188 -7.023438 1.984375 -6.890625 C 1.847656 -6.765625 1.664062 -6.703125 1.4375 -6.703125 Z M 1.0625 0 C 1.007812 0 0.96875 -0.015625 0.9375 -0.046875 C 0.90625 -0.078125 0.890625 -0.117188 0.890625 -0.171875 L 0.890625 -5.65625 C 0.890625 -5.707031 0.90625 -5.75 0.9375 -5.78125 C 0.96875 -5.8125 1.007812 -5.828125 1.0625 -5.828125 L 1.828125 -5.828125 C 1.878906 -5.828125 1.921875 -5.8125 1.953125 -5.78125 C 1.984375 -5.75 2 -5.707031 2 -5.65625 L 2 -0.171875 C 2 -0.117188 1.984375 -0.078125 1.953125 -0.046875 C 1.921875 -0.015625 1.878906 0 1.828125 0 Z M 1.0625 0" transform="translate(229.297 104.214)"/></g></g></g><g fill="#FFF"><g><g><path d="M 3.203125 0.09375 C 2.628906 0.09375 2.132812 -0.046875 1.71875 -0.328125 C 1.300781 -0.617188 1.007812 -1.019531 0.84375 -1.53125 C 0.695312 -1.945312 0.625 -2.414062 0.625 -2.9375 C 0.625 -3.476562 0.691406 -3.9375 0.828125 -4.3125 C 0.992188 -4.8125 1.285156 -5.203125 1.703125 -5.484375 C 2.128906 -5.773438 2.628906 -5.921875 3.203125 -5.921875 C 3.753906 -5.921875 4.234375 -5.773438 4.640625 -5.484375 C 5.046875 -5.203125 5.335938 -4.8125 5.515625 -4.3125 C 5.660156 -3.925781 5.734375 -3.46875 5.734375 -2.9375 C 5.734375 -2.40625 5.660156 -1.9375 5.515625 -1.53125 C 5.347656 -1.019531 5.054688 -0.617188 4.640625 -0.328125 C 4.234375 -0.046875 3.753906 0.09375 3.203125 0.09375 Z M 3.203125 -0.859375 C 3.503906 -0.859375 3.769531 -0.941406 4 -1.109375 C 4.226562 -1.285156 4.390625 -1.53125 4.484375 -1.84375 C 4.566406 -2.132812 4.609375 -2.492188 4.609375 -2.921875 C 4.609375 -3.347656 4.570312 -3.703125 4.5 -3.984375 C 4.40625 -4.296875 4.242188 -4.535156 4.015625 -4.703125 C 3.785156 -4.878906 3.503906 -4.96875 3.171875 -4.96875 C 2.859375 -4.96875 2.585938 -4.878906 2.359375 -4.703125 C 2.128906 -4.535156 1.960938 -4.296875 1.859375 -3.984375 C 1.773438 -3.710938 1.734375 -3.359375 1.734375 -2.921875 C 1.734375 -2.472656 1.773438 -2.113281 1.859375 -1.84375 C 1.953125 -1.53125 2.113281 -1.285156 2.34375 -1.109375 C 2.582031 -0.941406 2.867188 -0.859375 3.203125 -0.859375 Z M 3.203125 -0.859375" transform="translate(233.065 104.214)"/></g></g></g><g fill="#FFF"><g><g><path d="M 3.40625 -5.90625 C 4.03125 -5.90625 4.523438 -5.722656 4.890625 -5.359375 C 5.253906 -5.003906 5.4375 -4.515625 5.4375 -3.890625 L 5.4375 -0.171875 C 5.4375 -0.117188 5.421875 -0.078125 5.390625 -0.046875 C 5.359375 -0.015625 5.316406 0 5.265625 0 L 4.515625 0 C 4.460938 0 4.421875 -0.015625 4.390625 -0.046875 C 4.359375 -0.078125 4.34375 -0.117188 4.34375 -0.171875 L 4.34375 -3.671875 C 4.34375 -4.054688 4.226562 -4.363281 4 -4.59375 C 3.78125 -4.832031 3.488281 -4.953125 3.125 -4.953125 C 2.800781 -4.953125 2.523438 -4.851562 2.296875 -4.65625 C 2.066406 -4.46875 1.9375 -4.207031 1.90625 -3.875 L 1.90625 -0.171875 C 1.90625 -0.117188 1.890625 -0.078125 1.859375 -0.046875 C 1.828125 -0.015625 1.785156 0 1.734375 0 L 0.96875 0 C 0.914062 0 0.875 -0.015625 0.84375 -0.046875 C 0.8125 -0.078125 0.796875 -0.117188 0.796875 -0.171875 L 0.796875 -5.65625 C 0.796875 -5.707031 0.8125 -5.75 0.84375 -5.78125 C 0.875 -5.8125 0.914062 -5.828125 0.96875 -5.828125 L 1.734375 -5.828125 C 1.785156 -5.828125 1.828125 -5.8125 1.859375 -5.78125 C 1.890625 -5.75 1.90625 -5.707031 1.90625 -5.65625 L 1.90625 -5.34375 C 1.90625 -5.3125 1.910156 -5.289062 1.921875 -5.28125 C 1.941406 -5.28125 1.953125 -5.285156 1.953125 -5.296875 C 2.273438 -5.703125 2.757812 -5.90625 3.40625 -5.90625 Z M 3.40625 -5.90625" transform="translate(240.313 104.214)"/></g></g></g></svg>