<svg xmlns="http://www.w3.org/2000/svg" width="300" viewBox="0 0 300 150" height="150" version="1.0"><defs><clipPath id="a"><path d="M 5.570312 38.609375 L 52.820312 38.609375 L 52.820312 93.359375 L 5.570312 93.359375 Z M 5.570312 38.609375"/></clipPath></defs><g clip-path="url(#a)"><path fill="#FFF" d="M 6.214844 52.445312 C 5.789062 52.714844 5.574219 53.097656 5.570312 53.601562 L 5.570312 78.992188 C 5.574219 79.507812 5.796875 79.894531 6.242188 80.160156 L 28.375 93.160156 C 28.835938 93.421875 29.296875 93.421875 29.753906 93.160156 L 52.097656 80.152344 C 52.546875 79.894531 52.773438 79.503906 52.773438 78.984375 L 52.816406 53.59375 C 52.8125 53.085938 52.597656 52.699219 52.164062 52.433594 L 29.78125 38.820312 C 29.5625 38.6875 29.324219 38.617188 29.066406 38.617188 C 28.808594 38.617188 28.570312 38.6875 28.351562 38.820312 Z M 29.074219 41.574219 L 50.089844 54.359375 L 50.050781 78.214844 L 29.074219 90.417969 L 8.300781 78.21875 L 8.300781 54.359375 Z M 29.074219 41.574219"/></g><path fill="#FFF" d="M 11.359375 77.152344 C 16.347656 80 22.238281 83.367188 28.117188 86.75 C 28.84375 87.167969 29.457031 87.167969 30.175781 86.75 C 31.945312 85.722656 33.71875 84.695312 35.492188 83.671875 C 39.269531 81.492188 43.171875 79.238281 46.984375 76.976562 C 47.363281 76.753906 47.664062 76.039062 47.710938 75.507812 C 47.78125 74.691406 47.769531 73.84375 47.757812 73.027344 C 47.75 72.445312 47.742188 71.851562 47.757812 71.257812 C 47.777344 70.707031 47.605469 70.421875 47.101562 70.125 C 45.160156 69.007812 43.230469 67.878906 41.308594 66.734375 C 39.769531 65.832031 38.230469 64.929688 36.6875 64.027344 C 34.542969 62.777344 32.386719 61.542969 30.214844 60.296875 L 27.121094 58.523438 L 27.355469 58.296875 C 28.402344 57.292969 29.320312 57.175781 30.523438 57.890625 C 35.695312 60.980469 40.992188 63.984375 45.550781 66.554688 C 46.0625 66.839844 46.847656 66.960938 47.113281 66.792969 C 47.515625 66.53125 47.8125 65.757812 47.828125 65.226562 C 47.871094 63.757812 47.863281 62.257812 47.859375 60.808594 C 47.859375 59.457031 47.851562 58.066406 47.882812 56.695312 C 47.910156 55.722656 47.546875 55.128906 46.632812 54.644531 C 45.507812 54.050781 44.386719 53.410156 43.304688 52.785156 L 40.582031 51.234375 C 37.042969 49.21875 33.507812 47.199219 29.980469 45.171875 C 29.378906 44.828125 28.90625 44.824219 28.335938 45.152344 C 26.4375 46.253906 24.539062 47.351562 22.636719 48.453125 C 18.960938 50.585938 15.15625 52.78125 11.433594 54.976562 C 10.976562 55.300781 10.699219 55.738281 10.609375 56.292969 C 10.507812 57.808594 10.507812 59.324219 10.609375 60.839844 C 10.664062 61.238281 10.851562 61.5625 11.171875 61.804688 C 13.183594 63.070312 15.265625 64.289062 17.039062 65.308594 C 20.457031 67.285156 23.882812 69.253906 27.316406 71.222656 L 31.242188 73.476562 L 30.992188 73.703125 C 30.144531 74.476562 29.171875 75.058594 27.851562 74.128906 C 26.976562 73.539062 26.074219 72.996094 25.140625 72.5 C 24.765625 72.292969 24.390625 72.082031 24.019531 71.867188 L 21.585938 70.464844 C 18.722656 68.808594 15.761719 67.097656 12.820312 65.464844 C 12.464844 65.285156 12.089844 65.195312 11.691406 65.195312 C 11.484375 65.1875 11.289062 65.222656 11.105469 65.304688 C 10.796875 65.457031 10.542969 66.230469 10.53125 66.785156 C 10.496094 68.460938 10.5 70.152344 10.507812 71.796875 C 10.507812 73.074219 10.515625 74.355469 10.507812 75.636719 C 10.492188 76.363281 10.742188 76.800781 11.359375 77.152344 Z M 11.359375 77.152344"/><g fill="#FFF"><g><g><path d="M 9.25 0.25 C 7.582031 0.25 6.109375 -0.03125 4.828125 -0.59375 C 3.546875 -1.164062 2.550781 -1.976562 1.84375 -3.03125 C 1.144531 -4.082031 0.796875 -5.300781 0.796875 -6.6875 L 0.796875 -6.984375 C 0.796875 -7.378906 0.992188 -7.578125 1.390625 -7.578125 L 5.9375 -7.578125 C 6.332031 -7.578125 6.53125 -7.472656 6.53125 -7.265625 L 6.53125 -6.9375 C 6.53125 -6.375 6.828125 -5.863281 7.421875 -5.40625 C 8.023438 -4.957031 8.78125 -4.734375 9.6875 -4.734375 C 10.445312 -4.734375 10.988281 -4.890625 11.3125 -5.203125 C 11.644531 -5.523438 11.8125 -5.882812 11.8125 -6.28125 C 11.8125 -6.726562 11.601562 -7.066406 11.1875 -7.296875 C 10.78125 -7.523438 10.03125 -7.804688 8.9375 -8.140625 L 8.046875 -8.390625 C 6.003906 -9.003906 4.289062 -9.828125 2.90625 -10.859375 C 1.519531 -11.890625 0.828125 -13.382812 0.828125 -15.34375 C 0.828125 -16.644531 1.175781 -17.796875 1.875 -18.796875 C 2.582031 -19.796875 3.550781 -20.5625 4.78125 -21.09375 C 6.007812 -21.632812 7.382812 -21.90625 8.90625 -21.90625 C 10.519531 -21.90625 11.976562 -21.601562 13.28125 -21 C 14.59375 -20.40625 15.625 -19.5625 16.375 -18.46875 C 17.132812 -17.375 17.515625 -16.125 17.515625 -14.71875 L 17.515625 -14.578125 C 17.515625 -14.179688 17.316406 -13.984375 16.921875 -13.984375 L 12.375 -13.984375 C 11.976562 -13.984375 11.78125 -14.066406 11.78125 -14.234375 L 11.78125 -14.484375 C 11.78125 -15.097656 11.5 -15.65625 10.9375 -16.15625 C 10.382812 -16.664062 9.632812 -16.921875 8.6875 -16.921875 C 8.03125 -16.921875 7.507812 -16.785156 7.125 -16.515625 C 6.75 -16.253906 6.5625 -15.882812 6.5625 -15.40625 C 6.5625 -15.03125 6.695312 -14.710938 6.96875 -14.453125 C 7.25 -14.203125 7.675781 -13.957031 8.25 -13.71875 C 8.832031 -13.476562 9.722656 -13.175781 10.921875 -12.8125 C 11.085938 -12.75 11.8125 -12.523438 13.09375 -12.140625 C 14.382812 -11.765625 15.460938 -11.070312 16.328125 -10.0625 C 17.203125 -9.0625 17.640625 -7.851562 17.640625 -6.4375 C 17.640625 -5.09375 17.285156 -3.914062 16.578125 -2.90625 C 15.878906 -1.894531 14.894531 -1.113281 13.625 -0.5625 C 12.351562 -0.0195312 10.894531 0.25 9.25 0.25 Z M 9.25 0.25" transform="translate(55.454 78.484)"/></g></g></g><g fill="#FFF"><g><g><path d="M 16.890625 -17.265625 C 16.890625 -16.867188 16.691406 -16.671875 16.296875 -16.671875 L 7.265625 -16.671875 C 7.097656 -16.671875 7.015625 -16.585938 7.015625 -16.421875 L 7.015625 -13.703125 C 7.015625 -13.535156 7.097656 -13.453125 7.265625 -13.453125 L 12.78125 -13.453125 C 13.164062 -13.453125 13.359375 -13.257812 13.359375 -12.875 L 13.359375 -9.09375 C 13.359375 -8.695312 13.164062 -8.5 12.78125 -8.5 L 7.265625 -8.5 C 7.097656 -8.5 7.015625 -8.421875 7.015625 -8.265625 L 7.015625 -5.234375 C 7.015625 -5.066406 7.097656 -4.984375 7.265625 -4.984375 L 16.296875 -4.984375 C 16.691406 -4.984375 16.890625 -4.785156 16.890625 -4.390625 L 16.890625 -0.59375 C 16.890625 -0.195312 16.691406 0 16.296875 0 L 1.796875 0 C 1.398438 0 1.203125 -0.195312 1.203125 -0.59375 L 1.203125 -21.0625 C 1.203125 -21.457031 1.398438 -21.65625 1.796875 -21.65625 L 16.296875 -21.65625 C 16.691406 -21.65625 16.890625 -21.457031 16.890625 -21.0625 Z M 16.890625 -17.265625" transform="translate(75.996 78.484)"/></g></g></g><g fill="#FFF"><g><g><path d="M 15.8125 0 C 15.457031 0 15.238281 -0.164062 15.15625 -0.5 L 14.546875 -2.71875 C 14.503906 -2.863281 14.410156 -2.9375 14.265625 -2.9375 L 7.828125 -2.9375 C 7.679688 -2.9375 7.585938 -2.863281 7.546875 -2.71875 L 6.9375 -0.5 C 6.851562 -0.164062 6.632812 0 6.28125 0 L 1.265625 0 C 1.054688 0 0.90625 -0.0625 0.8125 -0.1875 C 0.726562 -0.3125 0.710938 -0.476562 0.765625 -0.6875 L 7.203125 -21.15625 C 7.304688 -21.488281 7.523438 -21.65625 7.859375 -21.65625 L 14.234375 -21.65625 C 14.554688 -21.65625 14.769531 -21.488281 14.875 -21.15625 L 21.3125 -0.6875 C 21.332031 -0.625 21.34375 -0.550781 21.34375 -0.46875 C 21.34375 -0.15625 21.171875 0 20.828125 0 Z M 8.90625 -7.609375 C 8.90625 -7.460938 8.976562 -7.390625 9.125 -7.390625 L 12.96875 -7.390625 C 13.050781 -7.390625 13.109375 -7.414062 13.140625 -7.46875 C 13.179688 -7.519531 13.191406 -7.585938 13.171875 -7.671875 L 11.203125 -14.8125 C 11.179688 -14.914062 11.132812 -14.96875 11.0625 -14.96875 C 10.988281 -14.96875 10.929688 -14.914062 10.890625 -14.8125 L 8.90625 -7.671875 Z M 8.90625 -7.609375" transform="translate(95.704 78.484)"/></g></g></g><g fill="#FFF"><g><g><path d="M 1.796875 0 C 1.398438 0 1.203125 -0.195312 1.203125 -0.59375 L 1.203125 -21.0625 C 1.203125 -21.457031 1.398438 -21.65625 1.796875 -21.65625 L 6.40625 -21.65625 C 6.738281 -21.65625 6.972656 -21.519531 7.109375 -21.25 L 10.859375 -15.15625 C 10.898438 -15.070312 10.960938 -15.03125 11.046875 -15.03125 C 11.128906 -15.03125 11.191406 -15.070312 11.234375 -15.15625 L 14.96875 -21.25 C 15.113281 -21.519531 15.351562 -21.65625 15.6875 -21.65625 L 20.296875 -21.65625 C 20.679688 -21.65625 20.875 -21.457031 20.875 -21.0625 L 20.875 -0.59375 C 20.875 -0.195312 20.679688 0 20.296875 0 L 15.65625 0 C 15.257812 0 15.0625 -0.195312 15.0625 -0.59375 L 15.0625 -11.515625 C 15.0625 -11.628906 15.023438 -11.695312 14.953125 -11.71875 C 14.878906 -11.738281 14.8125 -11.695312 14.75 -11.59375 L 12.84375 -8.421875 C 12.695312 -8.148438 12.457031 -8.015625 12.125 -8.015625 L 9.96875 -8.015625 C 9.632812 -8.015625 9.394531 -8.148438 9.25 -8.421875 L 7.328125 -11.59375 C 7.265625 -11.675781 7.203125 -11.71875 7.140625 -11.71875 C 7.054688 -11.71875 7.015625 -11.648438 7.015625 -11.515625 L 7.015625 -0.59375 C 7.015625 -0.195312 6.820312 0 6.4375 0 Z M 1.796875 0" transform="translate(119.866 78.484)"/></g></g></g><g fill="#FFF"><g><g><path d="M 9.25 0.25 C 7.582031 0.25 6.109375 -0.03125 4.828125 -0.59375 C 3.546875 -1.164062 2.550781 -1.976562 1.84375 -3.03125 C 1.144531 -4.082031 0.796875 -5.300781 0.796875 -6.6875 L 0.796875 -6.984375 C 0.796875 -7.378906 0.992188 -7.578125 1.390625 -7.578125 L 5.9375 -7.578125 C 6.332031 -7.578125 6.53125 -7.472656 6.53125 -7.265625 L 6.53125 -6.9375 C 6.53125 -6.375 6.828125 -5.863281 7.421875 -5.40625 C 8.023438 -4.957031 8.78125 -4.734375 9.6875 -4.734375 C 10.445312 -4.734375 10.988281 -4.890625 11.3125 -5.203125 C 11.644531 -5.523438 11.8125 -5.882812 11.8125 -6.28125 C 11.8125 -6.726562 11.601562 -7.066406 11.1875 -7.296875 C 10.78125 -7.523438 10.03125 -7.804688 8.9375 -8.140625 L 8.046875 -8.390625 C 6.003906 -9.003906 4.289062 -9.828125 2.90625 -10.859375 C 1.519531 -11.890625 0.828125 -13.382812 0.828125 -15.34375 C 0.828125 -16.644531 1.175781 -17.796875 1.875 -18.796875 C 2.582031 -19.796875 3.550781 -20.5625 4.78125 -21.09375 C 6.007812 -21.632812 7.382812 -21.90625 8.90625 -21.90625 C 10.519531 -21.90625 11.976562 -21.601562 13.28125 -21 C 14.59375 -20.40625 15.625 -19.5625 16.375 -18.46875 C 17.132812 -17.375 17.515625 -16.125 17.515625 -14.71875 L 17.515625 -14.578125 C 17.515625 -14.179688 17.316406 -13.984375 16.921875 -13.984375 L 12.375 -13.984375 C 11.976562 -13.984375 11.78125 -14.066406 11.78125 -14.234375 L 11.78125 -14.484375 C 11.78125 -15.097656 11.5 -15.65625 10.9375 -16.15625 C 10.382812 -16.664062 9.632812 -16.921875 8.6875 -16.921875 C 8.03125 -16.921875 7.507812 -16.785156 7.125 -16.515625 C 6.75 -16.253906 6.5625 -15.882812 6.5625 -15.40625 C 6.5625 -15.03125 6.695312 -14.710938 6.96875 -14.453125 C 7.25 -14.203125 7.675781 -13.957031 8.25 -13.71875 C 8.832031 -13.476562 9.722656 -13.175781 10.921875 -12.8125 C 11.085938 -12.75 11.8125 -12.523438 13.09375 -12.140625 C 14.382812 -11.765625 15.460938 -11.070312 16.328125 -10.0625 C 17.203125 -9.0625 17.640625 -7.851562 17.640625 -6.4375 C 17.640625 -5.09375 17.285156 -3.914062 16.578125 -2.90625 C 15.878906 -1.894531 14.894531 -1.113281 13.625 -0.5625 C 12.351562 -0.0195312 10.894531 0.25 9.25 0.25 Z M 9.25 0.25" transform="translate(144.028 78.484)"/></g></g></g><g fill="#FFF"><g><g><path d="M 17.265625 -21.65625 C 17.648438 -21.65625 17.84375 -21.457031 17.84375 -21.0625 L 17.84375 -17.234375 C 17.84375 -16.835938 17.648438 -16.640625 17.265625 -16.640625 L 12.28125 -16.640625 C 12.113281 -16.640625 12.03125 -16.554688 12.03125 -16.390625 L 12.03125 -0.59375 C 12.03125 -0.195312 11.835938 0 11.453125 0 L 6.8125 0 C 6.414062 0 6.21875 -0.195312 6.21875 -0.59375 L 6.21875 -16.390625 C 6.21875 -16.554688 6.132812 -16.640625 5.96875 -16.640625 L 1.140625 -16.640625 C 0.753906 -16.640625 0.5625 -16.835938 0.5625 -17.234375 L 0.5625 -21.0625 C 0.5625 -21.457031 0.753906 -21.65625 1.140625 -21.65625 Z M 17.265625 -21.65625" transform="translate(164.571 78.484)"/></g></g></g><g fill="#FFF"><g><g><path d="M 12.71875 0 C 12.382812 0 12.15625 -0.144531 12.03125 -0.4375 L 8.6875 -8.140625 C 8.644531 -8.265625 8.546875 -8.328125 8.390625 -8.328125 L 7.265625 -8.328125 C 7.097656 -8.328125 7.015625 -8.242188 7.015625 -8.078125 L 7.015625 -0.59375 C 7.015625 -0.195312 6.820312 0 6.4375 0 L 1.796875 0 C 1.398438 0 1.203125 -0.195312 1.203125 -0.59375 L 1.203125 -21.0625 C 1.203125 -21.457031 1.398438 -21.65625 1.796875 -21.65625 L 11.046875 -21.65625 C 12.441406 -21.65625 13.671875 -21.363281 14.734375 -20.78125 C 15.796875 -20.207031 16.617188 -19.398438 17.203125 -18.359375 C 17.796875 -17.316406 18.09375 -16.113281 18.09375 -14.75 C 18.09375 -13.414062 17.769531 -12.242188 17.125 -11.234375 C 16.476562 -10.222656 15.578125 -9.46875 14.421875 -8.96875 C 14.273438 -8.90625 14.234375 -8.800781 14.296875 -8.65625 L 18.0625 -0.6875 C 18.101562 -0.601562 18.125 -0.5 18.125 -0.375 C 18.125 -0.125 17.960938 0 17.640625 0 Z M 7.265625 -16.671875 C 7.097656 -16.671875 7.015625 -16.585938 7.015625 -16.421875 L 7.015625 -13 C 7.015625 -12.832031 7.097656 -12.75 7.265625 -12.75 L 10.078125 -12.75 C 10.742188 -12.75 11.28125 -12.925781 11.6875 -13.28125 C 12.101562 -13.644531 12.3125 -14.113281 12.3125 -14.6875 C 12.3125 -15.289062 12.101562 -15.769531 11.6875 -16.125 C 11.28125 -16.488281 10.742188 -16.671875 10.078125 -16.671875 Z M 7.265625 -16.671875" transform="translate(185.052 78.484)"/></g></g></g><g fill="#FFF"><g><g><path d="M 16.890625 -17.265625 C 16.890625 -16.867188 16.691406 -16.671875 16.296875 -16.671875 L 7.265625 -16.671875 C 7.097656 -16.671875 7.015625 -16.585938 7.015625 -16.421875 L 7.015625 -13.703125 C 7.015625 -13.535156 7.097656 -13.453125 7.265625 -13.453125 L 12.78125 -13.453125 C 13.164062 -13.453125 13.359375 -13.257812 13.359375 -12.875 L 13.359375 -9.09375 C 13.359375 -8.695312 13.164062 -8.5 12.78125 -8.5 L 7.265625 -8.5 C 7.097656 -8.5 7.015625 -8.421875 7.015625 -8.265625 L 7.015625 -5.234375 C 7.015625 -5.066406 7.097656 -4.984375 7.265625 -4.984375 L 16.296875 -4.984375 C 16.691406 -4.984375 16.890625 -4.785156 16.890625 -4.390625 L 16.890625 -0.59375 C 16.890625 -0.195312 16.691406 0 16.296875 0 L 1.796875 0 C 1.398438 0 1.203125 -0.195312 1.203125 -0.59375 L 1.203125 -21.0625 C 1.203125 -21.457031 1.398438 -21.65625 1.796875 -21.65625 L 16.296875 -21.65625 C 16.691406 -21.65625 16.890625 -21.457031 16.890625 -21.0625 Z M 16.890625 -17.265625" transform="translate(206.152 78.484)"/></g></g></g><g fill="#FFF"><g><g><path d="M 9.25 0.25 C 7.582031 0.25 6.109375 -0.03125 4.828125 -0.59375 C 3.546875 -1.164062 2.550781 -1.976562 1.84375 -3.03125 C 1.144531 -4.082031 0.796875 -5.300781 0.796875 -6.6875 L 0.796875 -6.984375 C 0.796875 -7.378906 0.992188 -7.578125 1.390625 -7.578125 L 5.9375 -7.578125 C 6.332031 -7.578125 6.53125 -7.472656 6.53125 -7.265625 L 6.53125 -6.9375 C 6.53125 -6.375 6.828125 -5.863281 7.421875 -5.40625 C 8.023438 -4.957031 8.78125 -4.734375 9.6875 -4.734375 C 10.445312 -4.734375 10.988281 -4.890625 11.3125 -5.203125 C 11.644531 -5.523438 11.8125 -5.882812 11.8125 -6.28125 C 11.8125 -6.726562 11.601562 -7.066406 11.1875 -7.296875 C 10.78125 -7.523438 10.03125 -7.804688 8.9375 -8.140625 L 8.046875 -8.390625 C 6.003906 -9.003906 4.289062 -9.828125 2.90625 -10.859375 C 1.519531 -11.890625 0.828125 -13.382812 0.828125 -15.34375 C 0.828125 -16.644531 1.175781 -17.796875 1.875 -18.796875 C 2.582031 -19.796875 3.550781 -20.5625 4.78125 -21.09375 C 6.007812 -21.632812 7.382812 -21.90625 8.90625 -21.90625 C 10.519531 -21.90625 11.976562 -21.601562 13.28125 -21 C 14.59375 -20.40625 15.625 -19.5625 16.375 -18.46875 C 17.132812 -17.375 17.515625 -16.125 17.515625 -14.71875 L 17.515625 -14.578125 C 17.515625 -14.179688 17.316406 -13.984375 16.921875 -13.984375 L 12.375 -13.984375 C 11.976562 -13.984375 11.78125 -14.066406 11.78125 -14.234375 L 11.78125 -14.484375 C 11.78125 -15.097656 11.5 -15.65625 10.9375 -16.15625 C 10.382812 -16.664062 9.632812 -16.921875 8.6875 -16.921875 C 8.03125 -16.921875 7.507812 -16.785156 7.125 -16.515625 C 6.75 -16.253906 6.5625 -15.882812 6.5625 -15.40625 C 6.5625 -15.03125 6.695312 -14.710938 6.96875 -14.453125 C 7.25 -14.203125 7.675781 -13.957031 8.25 -13.71875 C 8.832031 -13.476562 9.722656 -13.175781 10.921875 -12.8125 C 11.085938 -12.75 11.8125 -12.523438 13.09375 -12.140625 C 14.382812 -11.765625 15.460938 -11.070312 16.328125 -10.0625 C 17.203125 -9.0625 17.640625 -7.851562 17.640625 -6.4375 C 17.640625 -5.09375 17.285156 -3.914062 16.578125 -2.90625 C 15.878906 -1.894531 14.894531 -1.113281 13.625 -0.5625 C 12.351562 -0.0195312 10.894531 0.25 9.25 0.25 Z M 9.25 0.25" transform="translate(225.859 78.484)"/></g></g></g><g fill="#FFF"><g><g><path d="M 9.25 0.25 C 7.582031 0.25 6.109375 -0.03125 4.828125 -0.59375 C 3.546875 -1.164062 2.550781 -1.976562 1.84375 -3.03125 C 1.144531 -4.082031 0.796875 -5.300781 0.796875 -6.6875 L 0.796875 -6.984375 C 0.796875 -7.378906 0.992188 -7.578125 1.390625 -7.578125 L 5.9375 -7.578125 C 6.332031 -7.578125 6.53125 -7.472656 6.53125 -7.265625 L 6.53125 -6.9375 C 6.53125 -6.375 6.828125 -5.863281 7.421875 -5.40625 C 8.023438 -4.957031 8.78125 -4.734375 9.6875 -4.734375 C 10.445312 -4.734375 10.988281 -4.890625 11.3125 -5.203125 C 11.644531 -5.523438 11.8125 -5.882812 11.8125 -6.28125 C 11.8125 -6.726562 11.601562 -7.066406 11.1875 -7.296875 C 10.78125 -7.523438 10.03125 -7.804688 8.9375 -8.140625 L 8.046875 -8.390625 C 6.003906 -9.003906 4.289062 -9.828125 2.90625 -10.859375 C 1.519531 -11.890625 0.828125 -13.382812 0.828125 -15.34375 C 0.828125 -16.644531 1.175781 -17.796875 1.875 -18.796875 C 2.582031 -19.796875 3.550781 -20.5625 4.78125 -21.09375 C 6.007812 -21.632812 7.382812 -21.90625 8.90625 -21.90625 C 10.519531 -21.90625 11.976562 -21.601562 13.28125 -21 C 14.59375 -20.40625 15.625 -19.5625 16.375 -18.46875 C 17.132812 -17.375 17.515625 -16.125 17.515625 -14.71875 L 17.515625 -14.578125 C 17.515625 -14.179688 17.316406 -13.984375 16.921875 -13.984375 L 12.375 -13.984375 C 11.976562 -13.984375 11.78125 -14.066406 11.78125 -14.234375 L 11.78125 -14.484375 C 11.78125 -15.097656 11.5 -15.65625 10.9375 -16.15625 C 10.382812 -16.664062 9.632812 -16.921875 8.6875 -16.921875 C 8.03125 -16.921875 7.507812 -16.785156 7.125 -16.515625 C 6.75 -16.253906 6.5625 -15.882812 6.5625 -15.40625 C 6.5625 -15.03125 6.695312 -14.710938 6.96875 -14.453125 C 7.25 -14.203125 7.675781 -13.957031 8.25 -13.71875 C 8.832031 -13.476562 9.722656 -13.175781 10.921875 -12.8125 C 11.085938 -12.75 11.8125 -12.523438 13.09375 -12.140625 C 14.382812 -11.765625 15.460938 -11.070312 16.328125 -10.0625 C 17.203125 -9.0625 17.640625 -7.851562 17.640625 -6.4375 C 17.640625 -5.09375 17.285156 -3.914062 16.578125 -2.90625 C 15.878906 -1.894531 14.894531 -1.113281 13.625 -0.5625 C 12.351562 -0.0195312 10.894531 0.25 9.25 0.25 Z M 9.25 0.25" transform="translate(246.402 78.484)"/></g></g></g><g fill="#FFF"><g><g><path d="M 2.703125 -0.015625 C 2.660156 -0.015625 2.625 -0.0234375 2.59375 -0.046875 C 2.5625 -0.078125 2.546875 -0.117188 2.546875 -0.171875 L 2.546875 -3.046875 C 2.546875 -3.066406 2.539062 -3.085938 2.53125 -3.109375 L 0.390625 -7.125 C 0.378906 -7.164062 0.375 -7.191406 0.375 -7.203125 C 0.375 -7.273438 0.421875 -7.3125 0.515625 -7.3125 L 1.25 -7.3125 C 1.34375 -7.3125 1.40625 -7.273438 1.4375 -7.203125 L 3.015625 -4.203125 C 3.035156 -4.171875 3.054688 -4.171875 3.078125 -4.203125 L 4.65625 -7.203125 C 4.695312 -7.273438 4.757812 -7.3125 4.84375 -7.3125 L 5.609375 -7.3125 C 5.691406 -7.3125 5.734375 -7.28125 5.734375 -7.21875 L 5.703125 -7.125 L 3.578125 -3.109375 C 3.554688 -3.085938 3.546875 -3.066406 3.546875 -3.046875 L 3.546875 -0.171875 C 3.546875 -0.117188 3.53125 -0.078125 3.5 -0.046875 C 3.476562 -0.0234375 3.441406 -0.015625 3.390625 -0.015625 Z M 2.703125 -0.015625" transform="translate(51.367 94.594)"/></g></g></g><g fill="#FFF"><g><g><path d="M 2.921875 0.078125 C 2.390625 0.078125 1.9375 -0.0507812 1.5625 -0.3125 C 1.1875 -0.570312 0.921875 -0.9375 0.765625 -1.40625 C 0.640625 -1.78125 0.578125 -2.203125 0.578125 -2.671875 C 0.578125 -3.171875 0.632812 -3.59375 0.75 -3.9375 C 0.90625 -4.394531 1.171875 -4.753906 1.546875 -5.015625 C 1.929688 -5.273438 2.390625 -5.40625 2.921875 -5.40625 C 3.421875 -5.40625 3.859375 -5.273438 4.234375 -5.015625 C 4.609375 -4.753906 4.875 -4.394531 5.03125 -3.9375 C 5.164062 -3.582031 5.234375 -3.164062 5.234375 -2.6875 C 5.234375 -2.195312 5.164062 -1.769531 5.03125 -1.40625 C 4.882812 -0.9375 4.617188 -0.570312 4.234375 -0.3125 C 3.859375 -0.0507812 3.421875 0.078125 2.921875 0.078125 Z M 2.921875 -0.78125 C 3.191406 -0.78125 3.429688 -0.859375 3.640625 -1.015625 C 3.859375 -1.171875 4.007812 -1.394531 4.09375 -1.6875 C 4.175781 -1.945312 4.21875 -2.273438 4.21875 -2.671875 C 4.21875 -3.054688 4.179688 -3.378906 4.109375 -3.640625 C 4.015625 -3.921875 3.863281 -4.140625 3.65625 -4.296875 C 3.445312 -4.453125 3.191406 -4.53125 2.890625 -4.53125 C 2.609375 -4.53125 2.363281 -4.453125 2.15625 -4.296875 C 1.945312 -4.140625 1.796875 -3.921875 1.703125 -3.640625 C 1.628906 -3.390625 1.59375 -3.066406 1.59375 -2.671875 C 1.59375 -2.265625 1.628906 -1.9375 1.703125 -1.6875 C 1.785156 -1.394531 1.929688 -1.171875 2.140625 -1.015625 C 2.359375 -0.859375 2.617188 -0.78125 2.921875 -0.78125 Z M 2.921875 -0.78125" transform="translate(58.298 94.594)"/></g></g></g><g fill="#FFF"><g><g><path d="M 3.90625 -5.15625 C 3.90625 -5.207031 3.914062 -5.25 3.9375 -5.28125 C 3.96875 -5.3125 4.007812 -5.328125 4.0625 -5.328125 L 4.734375 -5.328125 C 4.785156 -5.328125 4.820312 -5.3125 4.84375 -5.28125 C 4.875 -5.25 4.890625 -5.207031 4.890625 -5.15625 L 4.890625 -0.15625 C 4.890625 -0.101562 4.875 -0.0625 4.84375 -0.03125 C 4.820312 -0.0078125 4.785156 0 4.734375 0 L 4.0625 0 C 4.007812 0 3.96875 -0.0078125 3.9375 -0.03125 C 3.914062 -0.0625 3.90625 -0.101562 3.90625 -0.15625 L 3.90625 -0.46875 C 3.90625 -0.488281 3.894531 -0.5 3.875 -0.5 C 3.863281 -0.507812 3.851562 -0.503906 3.84375 -0.484375 C 3.5625 -0.109375 3.132812 0.078125 2.5625 0.078125 C 2.21875 0.078125 1.898438 0.0078125 1.609375 -0.125 C 1.328125 -0.257812 1.097656 -0.453125 0.921875 -0.703125 C 0.742188 -0.960938 0.65625 -1.28125 0.65625 -1.65625 L 0.65625 -5.15625 C 0.65625 -5.207031 0.664062 -5.25 0.6875 -5.28125 C 0.71875 -5.3125 0.757812 -5.328125 0.8125 -5.328125 L 1.5 -5.328125 C 1.539062 -5.328125 1.578125 -5.3125 1.609375 -5.28125 C 1.640625 -5.25 1.65625 -5.207031 1.65625 -5.15625 L 1.65625 -1.96875 C 1.65625 -1.601562 1.75 -1.316406 1.9375 -1.109375 C 2.125 -0.898438 2.394531 -0.796875 2.75 -0.796875 C 3.09375 -0.796875 3.367188 -0.898438 3.578125 -1.109375 C 3.796875 -1.328125 3.90625 -1.613281 3.90625 -1.96875 Z M 3.90625 -5.15625" transform="translate(64.916 94.594)"/></g></g></g><g fill="#FFF"><g><g><path d="M 3.0625 -5.375 C 3.269531 -5.375 3.457031 -5.335938 3.625 -5.265625 C 3.707031 -5.210938 3.734375 -5.144531 3.703125 -5.0625 L 3.5625 -4.375 C 3.550781 -4.3125 3.515625 -4.28125 3.453125 -4.28125 C 3.421875 -4.28125 3.394531 -4.28125 3.375 -4.28125 C 3.269531 -4.320312 3.148438 -4.34375 3.015625 -4.34375 C 2.953125 -4.34375 2.898438 -4.335938 2.859375 -4.328125 C 2.535156 -4.316406 2.265625 -4.203125 2.046875 -3.984375 C 1.835938 -3.773438 1.734375 -3.5 1.734375 -3.15625 L 1.734375 -0.15625 C 1.734375 -0.101562 1.71875 -0.0625 1.6875 -0.03125 C 1.664062 -0.0078125 1.628906 0 1.578125 0 L 0.890625 0 C 0.835938 0 0.796875 -0.0078125 0.765625 -0.03125 C 0.742188 -0.0625 0.734375 -0.101562 0.734375 -0.15625 L 0.734375 -5.15625 C 0.734375 -5.207031 0.742188 -5.25 0.765625 -5.28125 C 0.796875 -5.3125 0.835938 -5.328125 0.890625 -5.328125 L 1.578125 -5.328125 C 1.628906 -5.328125 1.664062 -5.3125 1.6875 -5.28125 C 1.71875 -5.25 1.734375 -5.207031 1.734375 -5.15625 L 1.734375 -4.6875 C 1.734375 -4.65625 1.738281 -4.632812 1.75 -4.625 C 1.757812 -4.625 1.769531 -4.632812 1.78125 -4.65625 C 2.101562 -5.132812 2.53125 -5.375 3.0625 -5.375 Z M 3.0625 -5.375" transform="translate(71.355 94.594)"/></g></g></g><g fill="#FFF"><g><g><path d="M 5.34375 0 C 5.25 0 5.1875 -0.0390625 5.15625 -0.125 L 4.796875 -1.296875 C 4.785156 -1.328125 4.769531 -1.34375 4.75 -1.34375 L 1.828125 -1.34375 C 1.804688 -1.34375 1.789062 -1.328125 1.78125 -1.296875 L 1.40625 -0.125 C 1.382812 -0.0390625 1.328125 0 1.234375 0 L 0.484375 0 C 0.367188 0 0.328125 -0.0546875 0.359375 -0.171875 L 2.625 -7.1875 C 2.65625 -7.269531 2.710938 -7.3125 2.796875 -7.3125 L 3.765625 -7.3125 C 3.859375 -7.3125 3.914062 -7.269531 3.9375 -7.1875 L 6.21875 -0.171875 C 6.226562 -0.160156 6.234375 -0.140625 6.234375 -0.109375 C 6.234375 -0.0351562 6.1875 0 6.09375 0 Z M 2.046875 -2.1875 C 2.035156 -2.144531 2.050781 -2.125 2.09375 -2.125 L 4.484375 -2.125 C 4.523438 -2.125 4.539062 -2.144531 4.53125 -2.1875 L 3.3125 -6.09375 C 3.300781 -6.125 3.289062 -6.140625 3.28125 -6.140625 C 3.269531 -6.140625 3.257812 -6.125 3.25 -6.09375 Z M 2.046875 -2.1875" transform="translate(78.956 94.594)"/></g></g></g><g fill="#FFF"><g><g><path d="M 0.90625 0 C 0.851562 0 0.8125 -0.0078125 0.78125 -0.03125 C 0.75 -0.0625 0.734375 -0.101562 0.734375 -0.15625 L 0.734375 -7.15625 C 0.734375 -7.207031 0.75 -7.242188 0.78125 -7.265625 C 0.8125 -7.296875 0.851562 -7.3125 0.90625 -7.3125 L 1.59375 -7.3125 C 1.632812 -7.3125 1.671875 -7.296875 1.703125 -7.265625 C 1.734375 -7.242188 1.75 -7.207031 1.75 -7.15625 L 1.75 -0.15625 C 1.75 -0.101562 1.734375 -0.0625 1.703125 -0.03125 C 1.671875 -0.0078125 1.632812 0 1.59375 0 Z M 0.90625 0" transform="translate(86.357 94.594)"/></g></g></g><g fill="#FFF"><g><g><path d="M 0.90625 0 C 0.851562 0 0.8125 -0.0078125 0.78125 -0.03125 C 0.75 -0.0625 0.734375 -0.101562 0.734375 -0.15625 L 0.734375 -7.15625 C 0.734375 -7.207031 0.75 -7.242188 0.78125 -7.265625 C 0.8125 -7.296875 0.851562 -7.3125 0.90625 -7.3125 L 1.59375 -7.3125 C 1.632812 -7.3125 1.671875 -7.296875 1.703125 -7.265625 C 1.734375 -7.242188 1.75 -7.207031 1.75 -7.15625 L 1.75 -0.15625 C 1.75 -0.101562 1.734375 -0.0625 1.703125 -0.03125 C 1.671875 -0.0078125 1.632812 0 1.59375 0 Z M 0.90625 0" transform="translate(89.66 94.594)"/></g></g></g><g fill="#FFF"><g><g><path d="M 0.515625 -2.765625 C 0.472656 -2.765625 0.4375 -2.773438 0.40625 -2.796875 C 0.375 -2.828125 0.359375 -2.867188 0.359375 -2.921875 L 0.359375 -3.46875 C 0.359375 -3.519531 0.375 -3.554688 0.40625 -3.578125 C 0.4375 -3.609375 0.472656 -3.625 0.515625 -3.625 L 3.640625 -3.625 C 3.691406 -3.625 3.734375 -3.609375 3.765625 -3.578125 C 3.796875 -3.554688 3.8125 -3.519531 3.8125 -3.46875 L 3.8125 -2.921875 C 3.8125 -2.867188 3.796875 -2.828125 3.765625 -2.796875 C 3.734375 -2.773438 3.691406 -2.765625 3.640625 -2.765625 Z M 0.515625 -2.765625" transform="translate(92.964 94.594)"/></g></g></g><g fill="#FFF"><g><g><path d="M 1.015625 0 C 0.960938 0 0.921875 -0.0078125 0.890625 -0.03125 C 0.867188 -0.0625 0.859375 -0.101562 0.859375 -0.15625 L 0.859375 -7.15625 C 0.859375 -7.207031 0.867188 -7.242188 0.890625 -7.265625 C 0.921875 -7.296875 0.960938 -7.3125 1.015625 -7.3125 L 1.703125 -7.3125 C 1.753906 -7.3125 1.789062 -7.296875 1.8125 -7.265625 C 1.84375 -7.242188 1.859375 -7.207031 1.859375 -7.15625 L 1.859375 -0.15625 C 1.859375 -0.101562 1.84375 -0.0625 1.8125 -0.03125 C 1.789062 -0.0078125 1.753906 0 1.703125 0 Z M 1.015625 0" transform="translate(97.961 94.594)"/></g></g></g><g fill="#FFF"><g><g><path d="M 3.109375 -5.390625 C 3.679688 -5.390625 4.132812 -5.222656 4.46875 -4.890625 C 4.800781 -4.566406 4.96875 -4.117188 4.96875 -3.546875 L 4.96875 -0.15625 C 4.96875 -0.101562 4.953125 -0.0625 4.921875 -0.03125 C 4.890625 -0.0078125 4.851562 0 4.8125 0 L 4.125 0 C 4.070312 0 4.03125 -0.0078125 4 -0.03125 C 3.976562 -0.0625 3.96875 -0.101562 3.96875 -0.15625 L 3.96875 -3.359375 C 3.96875 -3.703125 3.863281 -3.984375 3.65625 -4.203125 C 3.457031 -4.421875 3.191406 -4.53125 2.859375 -4.53125 C 2.554688 -4.53125 2.300781 -4.441406 2.09375 -4.265625 C 1.882812 -4.085938 1.765625 -3.847656 1.734375 -3.546875 L 1.734375 -0.15625 C 1.734375 -0.101562 1.71875 -0.0625 1.6875 -0.03125 C 1.664062 -0.0078125 1.628906 0 1.578125 0 L 0.890625 0 C 0.835938 0 0.796875 -0.0078125 0.765625 -0.03125 C 0.742188 -0.0625 0.734375 -0.101562 0.734375 -0.15625 L 0.734375 -5.15625 C 0.734375 -5.207031 0.742188 -5.25 0.765625 -5.28125 C 0.796875 -5.3125 0.835938 -5.328125 0.890625 -5.328125 L 1.578125 -5.328125 C 1.628906 -5.328125 1.664062 -5.3125 1.6875 -5.28125 C 1.71875 -5.25 1.734375 -5.207031 1.734375 -5.15625 L 1.734375 -4.875 C 1.734375 -4.851562 1.738281 -4.835938 1.75 -4.828125 C 1.769531 -4.816406 1.78125 -4.820312 1.78125 -4.84375 C 2.070312 -5.207031 2.515625 -5.390625 3.109375 -5.390625 Z M 3.109375 -5.390625" transform="translate(101.495 94.594)"/></g></g></g><g fill="#FFF"><g><g><path d="M 0.515625 -2.765625 C 0.472656 -2.765625 0.4375 -2.773438 0.40625 -2.796875 C 0.375 -2.828125 0.359375 -2.867188 0.359375 -2.921875 L 0.359375 -3.46875 C 0.359375 -3.519531 0.375 -3.554688 0.40625 -3.578125 C 0.4375 -3.609375 0.472656 -3.625 0.515625 -3.625 L 3.640625 -3.625 C 3.691406 -3.625 3.734375 -3.609375 3.765625 -3.578125 C 3.796875 -3.554688 3.8125 -3.519531 3.8125 -3.46875 L 3.8125 -2.921875 C 3.8125 -2.867188 3.796875 -2.828125 3.765625 -2.796875 C 3.734375 -2.773438 3.691406 -2.765625 3.640625 -2.765625 Z M 0.515625 -2.765625" transform="translate(107.976 94.594)"/></g></g></g><g fill="#FFF"><g><g><path d="M 3.234375 0.09375 C 2.734375 0.09375 2.285156 -0.0078125 1.890625 -0.21875 C 1.503906 -0.425781 1.203125 -0.71875 0.984375 -1.09375 C 0.765625 -1.476562 0.65625 -1.921875 0.65625 -2.421875 L 0.65625 -4.90625 C 0.65625 -5.394531 0.765625 -5.828125 0.984375 -6.203125 C 1.203125 -6.585938 1.503906 -6.882812 1.890625 -7.09375 C 2.285156 -7.300781 2.734375 -7.40625 3.234375 -7.40625 C 3.753906 -7.40625 4.207031 -7.300781 4.59375 -7.09375 C 4.988281 -6.882812 5.289062 -6.585938 5.5 -6.203125 C 5.71875 -5.828125 5.828125 -5.394531 5.828125 -4.90625 L 5.828125 -2.421875 C 5.828125 -1.921875 5.71875 -1.476562 5.5 -1.09375 C 5.289062 -0.71875 4.988281 -0.425781 4.59375 -0.21875 C 4.207031 -0.0078125 3.753906 0.09375 3.234375 0.09375 Z M 3.234375 -0.78125 C 3.710938 -0.78125 4.097656 -0.925781 4.390625 -1.21875 C 4.679688 -1.507812 4.828125 -1.894531 4.828125 -2.375 L 4.828125 -4.90625 C 4.828125 -5.394531 4.679688 -5.785156 4.390625 -6.078125 C 4.097656 -6.378906 3.710938 -6.53125 3.234375 -6.53125 C 2.765625 -6.53125 2.382812 -6.378906 2.09375 -6.078125 C 1.800781 -5.785156 1.65625 -5.394531 1.65625 -4.90625 L 1.65625 -2.375 C 1.65625 -1.894531 1.800781 -1.507812 2.09375 -1.21875 C 2.382812 -0.925781 2.765625 -0.78125 3.234375 -0.78125 Z M 3.234375 -0.78125" transform="translate(112.973 94.594)"/></g></g></g><g fill="#FFF"><g><g><path d="M 3.109375 -5.390625 C 3.679688 -5.390625 4.132812 -5.222656 4.46875 -4.890625 C 4.800781 -4.566406 4.96875 -4.117188 4.96875 -3.546875 L 4.96875 -0.15625 C 4.96875 -0.101562 4.953125 -0.0625 4.921875 -0.03125 C 4.890625 -0.0078125 4.851562 0 4.8125 0 L 4.125 0 C 4.070312 0 4.03125 -0.0078125 4 -0.03125 C 3.976562 -0.0625 3.96875 -0.101562 3.96875 -0.15625 L 3.96875 -3.359375 C 3.96875 -3.703125 3.863281 -3.984375 3.65625 -4.203125 C 3.457031 -4.421875 3.191406 -4.53125 2.859375 -4.53125 C 2.554688 -4.53125 2.300781 -4.441406 2.09375 -4.265625 C 1.882812 -4.085938 1.765625 -3.847656 1.734375 -3.546875 L 1.734375 -0.15625 C 1.734375 -0.101562 1.71875 -0.0625 1.6875 -0.03125 C 1.664062 -0.0078125 1.628906 0 1.578125 0 L 0.890625 0 C 0.835938 0 0.796875 -0.0078125 0.765625 -0.03125 C 0.742188 -0.0625 0.734375 -0.101562 0.734375 -0.15625 L 0.734375 -5.15625 C 0.734375 -5.207031 0.742188 -5.25 0.765625 -5.28125 C 0.796875 -5.3125 0.835938 -5.328125 0.890625 -5.328125 L 1.578125 -5.328125 C 1.628906 -5.328125 1.664062 -5.3125 1.6875 -5.28125 C 1.71875 -5.25 1.734375 -5.207031 1.734375 -5.15625 L 1.734375 -4.875 C 1.734375 -4.851562 1.738281 -4.835938 1.75 -4.828125 C 1.769531 -4.816406 1.78125 -4.820312 1.78125 -4.84375 C 2.070312 -5.207031 2.515625 -5.390625 3.109375 -5.390625 Z M 3.109375 -5.390625" transform="translate(120.29 94.594)"/></g></g></g><g fill="#FFF"><g><g><path d="M 2.96875 -0.78125 C 3.53125 -0.78125 3.9375 -1 4.1875 -1.4375 C 4.21875 -1.5 4.253906 -1.53125 4.296875 -1.53125 C 4.328125 -1.53125 4.359375 -1.519531 4.390625 -1.5 L 4.8125 -1.234375 C 4.875 -1.203125 4.90625 -1.15625 4.90625 -1.09375 L 4.875 -1.015625 C 4.6875 -0.671875 4.421875 -0.398438 4.078125 -0.203125 C 3.734375 -0.015625 3.332031 0.078125 2.875 0.078125 C 2.375 0.078125 1.953125 -0.03125 1.609375 -0.25 C 1.273438 -0.46875 1.019531 -0.78125 0.84375 -1.1875 C 0.664062 -1.613281 0.578125 -2.113281 0.578125 -2.6875 C 0.578125 -3.195312 0.617188 -3.582031 0.703125 -3.84375 C 0.828125 -4.320312 1.078125 -4.703125 1.453125 -4.984375 C 1.828125 -5.265625 2.285156 -5.40625 2.828125 -5.40625 C 3.484375 -5.40625 3.984375 -5.234375 4.328125 -4.890625 C 4.679688 -4.546875 4.910156 -4.046875 5.015625 -3.390625 C 5.046875 -3.128906 5.070312 -2.816406 5.09375 -2.453125 C 5.09375 -2.347656 5.039062 -2.296875 4.9375 -2.296875 L 1.625 -2.296875 C 1.59375 -2.296875 1.578125 -2.273438 1.578125 -2.234375 C 1.585938 -1.972656 1.613281 -1.785156 1.65625 -1.671875 C 1.726562 -1.390625 1.878906 -1.171875 2.109375 -1.015625 C 2.335938 -0.859375 2.625 -0.78125 2.96875 -0.78125 Z M 2.828125 -4.53125 C 2.515625 -4.53125 2.257812 -4.457031 2.0625 -4.3125 C 1.875 -4.164062 1.75 -3.960938 1.6875 -3.703125 C 1.632812 -3.554688 1.601562 -3.363281 1.59375 -3.125 C 1.59375 -3.09375 1.609375 -3.078125 1.640625 -3.078125 L 4.015625 -3.078125 C 4.046875 -3.078125 4.0625 -3.09375 4.0625 -3.125 C 4.050781 -3.351562 4.03125 -3.523438 4 -3.640625 C 3.9375 -3.910156 3.800781 -4.125 3.59375 -4.28125 C 3.382812 -4.445312 3.128906 -4.53125 2.828125 -4.53125 Z M 2.828125 -4.53125" transform="translate(126.772 94.594)"/></g></g></g><g fill="#FFF"><g><g><path d="M 5.34375 0 C 5.25 0 5.1875 -0.0390625 5.15625 -0.125 L 4.796875 -1.296875 C 4.785156 -1.328125 4.769531 -1.34375 4.75 -1.34375 L 1.828125 -1.34375 C 1.804688 -1.34375 1.789062 -1.328125 1.78125 -1.296875 L 1.40625 -0.125 C 1.382812 -0.0390625 1.328125 0 1.234375 0 L 0.484375 0 C 0.367188 0 0.328125 -0.0546875 0.359375 -0.171875 L 2.625 -7.1875 C 2.65625 -7.269531 2.710938 -7.3125 2.796875 -7.3125 L 3.765625 -7.3125 C 3.859375 -7.3125 3.914062 -7.269531 3.9375 -7.1875 L 6.21875 -0.171875 C 6.226562 -0.160156 6.234375 -0.140625 6.234375 -0.109375 C 6.234375 -0.0351562 6.1875 0 6.09375 0 Z M 2.046875 -2.1875 C 2.035156 -2.144531 2.050781 -2.125 2.09375 -2.125 L 4.484375 -2.125 C 4.523438 -2.125 4.539062 -2.144531 4.53125 -2.1875 L 3.3125 -6.09375 C 3.300781 -6.125 3.289062 -6.140625 3.28125 -6.140625 C 3.269531 -6.140625 3.257812 -6.125 3.25 -6.09375 Z M 2.046875 -2.1875" transform="translate(136.118 94.594)"/></g></g></g><g fill="#FFF"><g><g><path d="M 1.3125 -6.109375 C 1.113281 -6.109375 0.945312 -6.171875 0.8125 -6.296875 C 0.6875 -6.421875 0.625 -6.582031 0.625 -6.78125 C 0.625 -6.96875 0.6875 -7.125 0.8125 -7.25 C 0.945312 -7.375 1.113281 -7.4375 1.3125 -7.4375 C 1.519531 -7.4375 1.6875 -7.375 1.8125 -7.25 C 1.9375 -7.125 2 -6.96875 2 -6.78125 C 2 -6.582031 1.9375 -6.421875 1.8125 -6.296875 C 1.6875 -6.171875 1.519531 -6.109375 1.3125 -6.109375 Z M 0.96875 0 C 0.925781 0 0.890625 -0.0078125 0.859375 -0.03125 C 0.828125 -0.0625 0.8125 -0.101562 0.8125 -0.15625 L 0.8125 -5.15625 C 0.8125 -5.207031 0.828125 -5.25 0.859375 -5.28125 C 0.890625 -5.3125 0.925781 -5.328125 0.96875 -5.328125 L 1.65625 -5.328125 C 1.707031 -5.328125 1.742188 -5.3125 1.765625 -5.28125 C 1.796875 -5.25 1.8125 -5.207031 1.8125 -5.15625 L 1.8125 -0.15625 C 1.8125 -0.101562 1.796875 -0.0625 1.765625 -0.03125 C 1.742188 -0.0078125 1.707031 0 1.65625 0 Z M 0.96875 0" transform="translate(143.52 94.594)"/></g></g></g><g fill="#FFF"><g><g><path d="M 3.203125 0.09375 C 2.703125 0.09375 2.257812 -0.00390625 1.875 -0.203125 C 1.488281 -0.398438 1.1875 -0.679688 0.96875 -1.046875 C 0.757812 -1.410156 0.65625 -1.832031 0.65625 -2.3125 L 0.65625 -5.015625 C 0.65625 -5.492188 0.757812 -5.910156 0.96875 -6.265625 C 1.1875 -6.628906 1.488281 -6.910156 1.875 -7.109375 C 2.257812 -7.304688 2.703125 -7.40625 3.203125 -7.40625 C 3.710938 -7.40625 4.15625 -7.304688 4.53125 -7.109375 C 4.914062 -6.921875 5.210938 -6.648438 5.421875 -6.296875 C 5.640625 -5.953125 5.75 -5.550781 5.75 -5.09375 C 5.75 -5.019531 5.695312 -4.976562 5.59375 -4.96875 L 4.90625 -4.921875 L 4.859375 -4.921875 C 4.828125 -4.921875 4.800781 -4.925781 4.78125 -4.9375 C 4.757812 -4.957031 4.75 -4.972656 4.75 -4.984375 L 4.75 -5.046875 C 4.75 -5.492188 4.609375 -5.851562 4.328125 -6.125 C 4.046875 -6.394531 3.671875 -6.53125 3.203125 -6.53125 C 2.742188 -6.53125 2.367188 -6.394531 2.078125 -6.125 C 1.796875 -5.851562 1.65625 -5.492188 1.65625 -5.046875 L 1.65625 -2.265625 C 1.65625 -1.816406 1.796875 -1.457031 2.078125 -1.1875 C 2.367188 -0.914062 2.742188 -0.78125 3.203125 -0.78125 C 3.671875 -0.78125 4.046875 -0.914062 4.328125 -1.1875 C 4.609375 -1.457031 4.75 -1.816406 4.75 -2.265625 C 4.75 -2.304688 4.757812 -2.335938 4.78125 -2.359375 C 4.8125 -2.378906 4.851562 -2.390625 4.90625 -2.390625 L 5.59375 -2.34375 C 5.695312 -2.332031 5.75 -2.316406 5.75 -2.296875 L 5.75 -2.234375 C 5.75 -1.773438 5.640625 -1.367188 5.421875 -1.015625 C 5.210938 -0.660156 4.914062 -0.382812 4.53125 -0.1875 C 4.15625 0 3.710938 0.09375 3.203125 0.09375 Z M 3.203125 0.09375" transform="translate(149.865 94.594)"/></g></g></g><g fill="#FFF"><g><g><path d="M 2.921875 0.078125 C 2.390625 0.078125 1.9375 -0.0507812 1.5625 -0.3125 C 1.1875 -0.570312 0.921875 -0.9375 0.765625 -1.40625 C 0.640625 -1.78125 0.578125 -2.203125 0.578125 -2.671875 C 0.578125 -3.171875 0.632812 -3.59375 0.75 -3.9375 C 0.90625 -4.394531 1.171875 -4.753906 1.546875 -5.015625 C 1.929688 -5.273438 2.390625 -5.40625 2.921875 -5.40625 C 3.421875 -5.40625 3.859375 -5.273438 4.234375 -5.015625 C 4.609375 -4.753906 4.875 -4.394531 5.03125 -3.9375 C 5.164062 -3.582031 5.234375 -3.164062 5.234375 -2.6875 C 5.234375 -2.195312 5.164062 -1.769531 5.03125 -1.40625 C 4.882812 -0.9375 4.617188 -0.570312 4.234375 -0.3125 C 3.859375 -0.0507812 3.421875 0.078125 2.921875 0.078125 Z M 2.921875 -0.78125 C 3.191406 -0.78125 3.429688 -0.859375 3.640625 -1.015625 C 3.859375 -1.171875 4.007812 -1.394531 4.09375 -1.6875 C 4.175781 -1.945312 4.21875 -2.273438 4.21875 -2.671875 C 4.21875 -3.054688 4.179688 -3.378906 4.109375 -3.640625 C 4.015625 -3.921875 3.863281 -4.140625 3.65625 -4.296875 C 3.445312 -4.453125 3.191406 -4.53125 2.890625 -4.53125 C 2.609375 -4.53125 2.363281 -4.453125 2.15625 -4.296875 C 1.945312 -4.140625 1.796875 -3.921875 1.703125 -3.640625 C 1.628906 -3.390625 1.59375 -3.066406 1.59375 -2.671875 C 1.59375 -2.265625 1.628906 -1.9375 1.703125 -1.6875 C 1.785156 -1.394531 1.929688 -1.171875 2.140625 -1.015625 C 2.359375 -0.859375 2.617188 -0.78125 2.921875 -0.78125 Z M 2.921875 -0.78125" transform="translate(157.026 94.594)"/></g></g></g><g fill="#FFF"><g><g><path d="M 5.046875 -3.984375 C 5.171875 -3.628906 5.234375 -3.179688 5.234375 -2.640625 C 5.234375 -2.128906 5.179688 -1.707031 5.078125 -1.375 C 4.929688 -0.914062 4.6875 -0.554688 4.34375 -0.296875 C 4.007812 -0.046875 3.585938 0.078125 3.078125 0.078125 C 2.828125 0.078125 2.597656 0.0351562 2.390625 -0.046875 C 2.191406 -0.140625 2.015625 -0.273438 1.859375 -0.453125 C 1.847656 -0.460938 1.832031 -0.460938 1.8125 -0.453125 C 1.800781 -0.453125 1.796875 -0.441406 1.796875 -0.421875 L 1.796875 1.84375 C 1.796875 1.882812 1.78125 1.921875 1.75 1.953125 C 1.726562 1.984375 1.691406 2 1.640625 2 L 0.953125 2 C 0.898438 2 0.859375 1.984375 0.828125 1.953125 C 0.804688 1.921875 0.796875 1.882812 0.796875 1.84375 L 0.796875 -5.15625 C 0.796875 -5.207031 0.804688 -5.25 0.828125 -5.28125 C 0.859375 -5.3125 0.898438 -5.328125 0.953125 -5.328125 L 1.640625 -5.328125 C 1.691406 -5.328125 1.726562 -5.3125 1.75 -5.28125 C 1.78125 -5.25 1.796875 -5.207031 1.796875 -5.15625 L 1.796875 -4.890625 C 1.796875 -4.867188 1.800781 -4.851562 1.8125 -4.84375 C 1.832031 -4.84375 1.847656 -4.847656 1.859375 -4.859375 C 2.015625 -5.035156 2.191406 -5.171875 2.390625 -5.265625 C 2.597656 -5.359375 2.828125 -5.40625 3.078125 -5.40625 C 3.578125 -5.40625 3.988281 -5.28125 4.3125 -5.03125 C 4.644531 -4.78125 4.890625 -4.429688 5.046875 -3.984375 Z M 3.90625 -1.28125 C 4.125 -1.632812 4.234375 -2.097656 4.234375 -2.671875 C 4.234375 -3.203125 4.144531 -3.632812 3.96875 -3.96875 C 3.769531 -4.34375 3.4375 -4.53125 2.96875 -4.53125 C 2.570312 -4.53125 2.269531 -4.34375 2.0625 -3.96875 C 1.894531 -3.664062 1.8125 -3.226562 1.8125 -2.65625 C 1.8125 -2.082031 1.898438 -1.632812 2.078125 -1.3125 C 2.285156 -0.957031 2.582031 -0.78125 2.96875 -0.78125 C 3.375 -0.78125 3.6875 -0.945312 3.90625 -1.28125 Z M 3.90625 -1.28125" transform="translate(163.643 94.594)"/></g></g></g><g fill="#FFF"><g><g><path d="M 0.578125 2.09375 C 0.554688 2.09375 0.535156 2.078125 0.515625 2.046875 C 0.503906 2.015625 0.5 1.976562 0.5 1.9375 L 0.5 1.40625 C 0.5 1.300781 0.519531 1.25 0.5625 1.25 L 0.625 1.25 C 0.90625 1.25 1.125 1.21875 1.28125 1.15625 C 1.4375 1.09375 1.566406 0.972656 1.671875 0.796875 C 1.785156 0.628906 1.890625 0.375 1.984375 0.03125 C 1.992188 0.0195312 1.992188 0 1.984375 -0.03125 L 0.265625 -5.140625 C 0.253906 -5.148438 0.25 -5.171875 0.25 -5.203125 C 0.25 -5.285156 0.296875 -5.328125 0.390625 -5.328125 L 1.125 -5.328125 C 1.207031 -5.328125 1.265625 -5.28125 1.296875 -5.1875 L 2.484375 -1.4375 C 2.484375 -1.40625 2.488281 -1.390625 2.5 -1.390625 C 2.519531 -1.390625 2.535156 -1.40625 2.546875 -1.4375 L 3.671875 -5.1875 C 3.679688 -5.226562 3.703125 -5.257812 3.734375 -5.28125 C 3.773438 -5.3125 3.816406 -5.328125 3.859375 -5.328125 L 4.59375 -5.328125 C 4.644531 -5.328125 4.679688 -5.3125 4.703125 -5.28125 C 4.722656 -5.25 4.726562 -5.203125 4.71875 -5.140625 L 2.84375 0.359375 C 2.6875 0.847656 2.523438 1.207031 2.359375 1.4375 C 2.203125 1.675781 1.992188 1.84375 1.734375 1.9375 C 1.472656 2.039062 1.109375 2.09375 0.640625 2.09375 Z M 0.578125 2.09375" transform="translate(170.23 94.594)"/></g></g></g><g fill="#FFF"><g><g><path d="M 2.359375 0 C 2.253906 0 2.191406 -0.046875 2.171875 -0.140625 L 0.25 -7.140625 C 0.238281 -7.148438 0.234375 -7.171875 0.234375 -7.203125 C 0.234375 -7.273438 0.28125 -7.3125 0.375 -7.3125 L 1.125 -7.3125 C 1.21875 -7.3125 1.273438 -7.269531 1.296875 -7.1875 L 2.65625 -2.03125 C 2.664062 -2.007812 2.675781 -2 2.6875 -2 C 2.695312 -2 2.707031 -2.007812 2.71875 -2.03125 L 4 -7.1875 C 4.019531 -7.269531 4.070312 -7.3125 4.15625 -7.3125 L 4.90625 -7.3125 C 4.988281 -7.3125 5.039062 -7.269531 5.0625 -7.1875 L 6.421875 -2.03125 C 6.421875 -2.007812 6.425781 -2 6.4375 -2 C 6.457031 -2 6.472656 -2.007812 6.484375 -2.03125 L 7.84375 -7.1875 C 7.863281 -7.269531 7.914062 -7.3125 8 -7.3125 L 8.703125 -7.3125 C 8.765625 -7.3125 8.804688 -7.296875 8.828125 -7.265625 C 8.847656 -7.234375 8.851562 -7.191406 8.84375 -7.140625 L 6.96875 -0.140625 C 6.945312 -0.046875 6.894531 0 6.8125 0 L 6.078125 0 C 5.992188 0 5.941406 -0.046875 5.921875 -0.140625 L 4.5625 -5.46875 C 4.5625 -5.488281 4.550781 -5.5 4.53125 -5.5 C 4.519531 -5.5 4.507812 -5.488281 4.5 -5.46875 L 3.203125 -0.140625 C 3.179688 -0.046875 3.125 0 3.03125 0 Z M 2.359375 0" transform="translate(178.927 94.594)"/></g></g></g><g fill="#FFF"><g><g><path d="M 3.0625 -5.375 C 3.269531 -5.375 3.457031 -5.335938 3.625 -5.265625 C 3.707031 -5.210938 3.734375 -5.144531 3.703125 -5.0625 L 3.5625 -4.375 C 3.550781 -4.3125 3.515625 -4.28125 3.453125 -4.28125 C 3.421875 -4.28125 3.394531 -4.28125 3.375 -4.28125 C 3.269531 -4.320312 3.148438 -4.34375 3.015625 -4.34375 C 2.953125 -4.34375 2.898438 -4.335938 2.859375 -4.328125 C 2.535156 -4.316406 2.265625 -4.203125 2.046875 -3.984375 C 1.835938 -3.773438 1.734375 -3.5 1.734375 -3.15625 L 1.734375 -0.15625 C 1.734375 -0.101562 1.71875 -0.0625 1.6875 -0.03125 C 1.664062 -0.0078125 1.628906 0 1.578125 0 L 0.890625 0 C 0.835938 0 0.796875 -0.0078125 0.765625 -0.03125 C 0.742188 -0.0625 0.734375 -0.101562 0.734375 -0.15625 L 0.734375 -5.15625 C 0.734375 -5.207031 0.742188 -5.25 0.765625 -5.28125 C 0.796875 -5.3125 0.835938 -5.328125 0.890625 -5.328125 L 1.578125 -5.328125 C 1.628906 -5.328125 1.664062 -5.3125 1.6875 -5.28125 C 1.71875 -5.25 1.734375 -5.207031 1.734375 -5.15625 L 1.734375 -4.6875 C 1.734375 -4.65625 1.738281 -4.632812 1.75 -4.625 C 1.757812 -4.625 1.769531 -4.632812 1.78125 -4.65625 C 2.101562 -5.132812 2.53125 -5.375 3.0625 -5.375 Z M 3.0625 -5.375" transform="translate(188.827 94.594)"/></g></g></g><g fill="#FFF"><g><g><path d="M 1.3125 -6.109375 C 1.113281 -6.109375 0.945312 -6.171875 0.8125 -6.296875 C 0.6875 -6.421875 0.625 -6.582031 0.625 -6.78125 C 0.625 -6.96875 0.6875 -7.125 0.8125 -7.25 C 0.945312 -7.375 1.113281 -7.4375 1.3125 -7.4375 C 1.519531 -7.4375 1.6875 -7.375 1.8125 -7.25 C 1.9375 -7.125 2 -6.96875 2 -6.78125 C 2 -6.582031 1.9375 -6.421875 1.8125 -6.296875 C 1.6875 -6.171875 1.519531 -6.109375 1.3125 -6.109375 Z M 0.96875 0 C 0.925781 0 0.890625 -0.0078125 0.859375 -0.03125 C 0.828125 -0.0625 0.8125 -0.101562 0.8125 -0.15625 L 0.8125 -5.15625 C 0.8125 -5.207031 0.828125 -5.25 0.859375 -5.28125 C 0.890625 -5.3125 0.925781 -5.328125 0.96875 -5.328125 L 1.65625 -5.328125 C 1.707031 -5.328125 1.742188 -5.3125 1.765625 -5.28125 C 1.796875 -5.25 1.8125 -5.207031 1.8125 -5.15625 L 1.8125 -0.15625 C 1.8125 -0.101562 1.796875 -0.0625 1.765625 -0.03125 C 1.742188 -0.0078125 1.707031 0 1.65625 0 Z M 0.96875 0" transform="translate(193.52 94.594)"/></g></g></g><g fill="#FFF"><g><g><path d="M 3.359375 -4.65625 C 3.359375 -4.601562 3.34375 -4.5625 3.3125 -4.53125 C 3.28125 -4.507812 3.242188 -4.5 3.203125 -4.5 L 2.125 -4.5 C 2.09375 -4.5 2.078125 -4.476562 2.078125 -4.4375 L 2.078125 -1.71875 C 2.078125 -1.414062 2.140625 -1.203125 2.265625 -1.078125 C 2.398438 -0.953125 2.609375 -0.890625 2.890625 -0.890625 L 3.140625 -0.890625 C 3.191406 -0.890625 3.226562 -0.875 3.25 -0.84375 C 3.28125 -0.820312 3.296875 -0.785156 3.296875 -0.734375 L 3.296875 -0.1875 C 3.296875 -0.09375 3.242188 -0.0351562 3.140625 -0.015625 L 2.71875 -0.015625 C 2.175781 -0.015625 1.773438 -0.109375 1.515625 -0.296875 C 1.253906 -0.484375 1.125 -0.832031 1.125 -1.34375 L 1.125 -4.4375 C 1.125 -4.476562 1.101562 -4.5 1.0625 -4.5 L 0.484375 -4.5 C 0.441406 -4.5 0.40625 -4.507812 0.375 -4.53125 C 0.34375 -4.5625 0.328125 -4.601562 0.328125 -4.65625 L 0.328125 -5.15625 C 0.328125 -5.207031 0.34375 -5.25 0.375 -5.28125 C 0.40625 -5.3125 0.441406 -5.328125 0.484375 -5.328125 L 1.0625 -5.328125 C 1.101562 -5.328125 1.125 -5.34375 1.125 -5.375 L 1.125 -6.546875 C 1.125 -6.585938 1.132812 -6.625 1.15625 -6.65625 C 1.1875 -6.6875 1.226562 -6.703125 1.28125 -6.703125 L 1.921875 -6.703125 C 1.972656 -6.703125 2.007812 -6.6875 2.03125 -6.65625 C 2.0625 -6.625 2.078125 -6.585938 2.078125 -6.546875 L 2.078125 -5.375 C 2.078125 -5.34375 2.09375 -5.328125 2.125 -5.328125 L 3.203125 -5.328125 C 3.242188 -5.328125 3.28125 -5.3125 3.3125 -5.28125 C 3.34375 -5.25 3.359375 -5.207031 3.359375 -5.15625 Z M 3.359375 -4.65625" transform="translate(196.96 94.594)"/></g></g></g><g fill="#FFF"><g><g><path d="M 1.3125 -6.109375 C 1.113281 -6.109375 0.945312 -6.171875 0.8125 -6.296875 C 0.6875 -6.421875 0.625 -6.582031 0.625 -6.78125 C 0.625 -6.96875 0.6875 -7.125 0.8125 -7.25 C 0.945312 -7.375 1.113281 -7.4375 1.3125 -7.4375 C 1.519531 -7.4375 1.6875 -7.375 1.8125 -7.25 C 1.9375 -7.125 2 -6.96875 2 -6.78125 C 2 -6.582031 1.9375 -6.421875 1.8125 -6.296875 C 1.6875 -6.171875 1.519531 -6.109375 1.3125 -6.109375 Z M 0.96875 0 C 0.925781 0 0.890625 -0.0078125 0.859375 -0.03125 C 0.828125 -0.0625 0.8125 -0.101562 0.8125 -0.15625 L 0.8125 -5.15625 C 0.8125 -5.207031 0.828125 -5.25 0.859375 -5.28125 C 0.890625 -5.3125 0.925781 -5.328125 0.96875 -5.328125 L 1.65625 -5.328125 C 1.707031 -5.328125 1.742188 -5.3125 1.765625 -5.28125 C 1.796875 -5.25 1.8125 -5.207031 1.8125 -5.15625 L 1.8125 -0.15625 C 1.8125 -0.101562 1.796875 -0.0625 1.765625 -0.03125 C 1.742188 -0.0078125 1.707031 0 1.65625 0 Z M 0.96875 0" transform="translate(201.633 94.594)"/></g></g></g><g fill="#FFF"><g><g><path d="M 3.109375 -5.390625 C 3.679688 -5.390625 4.132812 -5.222656 4.46875 -4.890625 C 4.800781 -4.566406 4.96875 -4.117188 4.96875 -3.546875 L 4.96875 -0.15625 C 4.96875 -0.101562 4.953125 -0.0625 4.921875 -0.03125 C 4.890625 -0.0078125 4.851562 0 4.8125 0 L 4.125 0 C 4.070312 0 4.03125 -0.0078125 4 -0.03125 C 3.976562 -0.0625 3.96875 -0.101562 3.96875 -0.15625 L 3.96875 -3.359375 C 3.96875 -3.703125 3.863281 -3.984375 3.65625 -4.203125 C 3.457031 -4.421875 3.191406 -4.53125 2.859375 -4.53125 C 2.554688 -4.53125 2.300781 -4.441406 2.09375 -4.265625 C 1.882812 -4.085938 1.765625 -3.847656 1.734375 -3.546875 L 1.734375 -0.15625 C 1.734375 -0.101562 1.71875 -0.0625 1.6875 -0.03125 C 1.664062 -0.0078125 1.628906 0 1.578125 0 L 0.890625 0 C 0.835938 0 0.796875 -0.0078125 0.765625 -0.03125 C 0.742188 -0.0625 0.734375 -0.101562 0.734375 -0.15625 L 0.734375 -5.15625 C 0.734375 -5.207031 0.742188 -5.25 0.765625 -5.28125 C 0.796875 -5.3125 0.835938 -5.328125 0.890625 -5.328125 L 1.578125 -5.328125 C 1.628906 -5.328125 1.664062 -5.3125 1.6875 -5.28125 C 1.71875 -5.25 1.734375 -5.207031 1.734375 -5.15625 L 1.734375 -4.875 C 1.734375 -4.851562 1.738281 -4.835938 1.75 -4.828125 C 1.769531 -4.816406 1.78125 -4.820312 1.78125 -4.84375 C 2.070312 -5.207031 2.515625 -5.390625 3.109375 -5.390625 Z M 3.109375 -5.390625" transform="translate(205.073 94.594)"/></g></g></g><g fill="#FFF"><g><g><path d="M 4 -5.15625 C 4 -5.207031 4.015625 -5.25 4.046875 -5.28125 C 4.078125 -5.3125 4.113281 -5.328125 4.15625 -5.328125 L 4.84375 -5.328125 C 4.894531 -5.328125 4.929688 -5.3125 4.953125 -5.28125 C 4.984375 -5.25 5 -5.207031 5 -5.15625 L 5 -0.265625 C 5 0.566406 4.757812 1.164062 4.28125 1.53125 C 3.8125 1.894531 3.179688 2.078125 2.390625 2.078125 C 2.273438 2.078125 2.113281 2.070312 1.90625 2.0625 C 1.800781 2.0625 1.75 2.003906 1.75 1.890625 L 1.78125 1.28125 C 1.78125 1.226562 1.796875 1.1875 1.828125 1.15625 C 1.859375 1.132812 1.898438 1.125 1.953125 1.125 C 2.046875 1.132812 2.179688 1.140625 2.359375 1.140625 C 2.941406 1.140625 3.359375 1.03125 3.609375 0.8125 C 3.867188 0.59375 4 0.222656 4 -0.296875 L 4 -0.484375 C 4 -0.503906 3.992188 -0.515625 3.984375 -0.515625 C 3.972656 -0.515625 3.957031 -0.507812 3.9375 -0.5 C 3.632812 -0.164062 3.210938 0 2.671875 0 C 2.210938 0 1.800781 -0.113281 1.4375 -0.34375 C 1.070312 -0.582031 0.816406 -0.9375 0.671875 -1.40625 C 0.585938 -1.707031 0.546875 -2.128906 0.546875 -2.671875 C 0.546875 -3.253906 0.597656 -3.703125 0.703125 -4.015625 C 0.835938 -4.429688 1.070312 -4.765625 1.40625 -5.015625 C 1.738281 -5.273438 2.140625 -5.40625 2.609375 -5.40625 C 3.171875 -5.40625 3.613281 -5.234375 3.9375 -4.890625 C 3.957031 -4.867188 3.972656 -4.859375 3.984375 -4.859375 C 3.992188 -4.867188 4 -4.882812 4 -4.90625 Z M 3.9375 -1.703125 C 3.957031 -1.816406 3.972656 -1.9375 3.984375 -2.0625 C 3.992188 -2.1875 4 -2.394531 4 -2.6875 C 4 -2.976562 3.992188 -3.179688 3.984375 -3.296875 C 3.972656 -3.421875 3.957031 -3.539062 3.9375 -3.65625 C 3.875 -3.914062 3.742188 -4.125 3.546875 -4.28125 C 3.359375 -4.445312 3.117188 -4.53125 2.828125 -4.53125 C 2.535156 -4.53125 2.289062 -4.445312 2.09375 -4.28125 C 1.894531 -4.125 1.753906 -3.914062 1.671875 -3.65625 C 1.597656 -3.445312 1.5625 -3.125 1.5625 -2.6875 C 1.5625 -2.207031 1.59375 -1.878906 1.65625 -1.703125 C 1.726562 -1.441406 1.867188 -1.226562 2.078125 -1.0625 C 2.285156 -0.90625 2.535156 -0.828125 2.828125 -0.828125 C 3.128906 -0.828125 3.375 -0.90625 3.5625 -1.0625 C 3.757812 -1.226562 3.882812 -1.441406 3.9375 -1.703125 Z M 3.9375 -1.703125" transform="translate(211.554 94.594)"/></g></g></g><g fill="#FFF"><g><g><path d="M 3.109375 0.078125 C 2.585938 0.078125 2.128906 -0.00390625 1.734375 -0.171875 C 1.347656 -0.335938 1.046875 -0.570312 0.828125 -0.875 C 0.617188 -1.1875 0.515625 -1.546875 0.515625 -1.953125 L 0.515625 -2.203125 C 0.515625 -2.253906 0.53125 -2.289062 0.5625 -2.3125 C 0.59375 -2.34375 0.628906 -2.359375 0.671875 -2.359375 L 1.34375 -2.359375 C 1.394531 -2.359375 1.429688 -2.34375 1.453125 -2.3125 C 1.484375 -2.289062 1.5 -2.253906 1.5 -2.203125 L 1.5 -2 C 1.5 -1.644531 1.648438 -1.351562 1.953125 -1.125 C 2.265625 -0.894531 2.675781 -0.78125 3.1875 -0.78125 C 3.664062 -0.78125 4.023438 -0.878906 4.265625 -1.078125 C 4.515625 -1.285156 4.640625 -1.550781 4.640625 -1.875 C 4.640625 -2.09375 4.578125 -2.28125 4.453125 -2.4375 C 4.328125 -2.59375 4.144531 -2.734375 3.90625 -2.859375 C 3.664062 -2.984375 3.316406 -3.140625 2.859375 -3.328125 C 2.347656 -3.515625 1.941406 -3.6875 1.640625 -3.84375 C 1.347656 -4.007812 1.101562 -4.222656 0.90625 -4.484375 C 0.707031 -4.742188 0.609375 -5.078125 0.609375 -5.484375 C 0.609375 -6.078125 0.820312 -6.546875 1.25 -6.890625 C 1.6875 -7.234375 2.269531 -7.40625 3 -7.40625 C 3.519531 -7.40625 3.972656 -7.316406 4.359375 -7.140625 C 4.742188 -6.960938 5.039062 -6.71875 5.25 -6.40625 C 5.46875 -6.09375 5.578125 -5.734375 5.578125 -5.328125 L 5.578125 -5.15625 C 5.578125 -5.113281 5.5625 -5.078125 5.53125 -5.046875 C 5.507812 -5.015625 5.472656 -5 5.421875 -5 L 4.75 -5 C 4.695312 -5 4.65625 -5.007812 4.625 -5.03125 C 4.601562 -5.0625 4.59375 -5.097656 4.59375 -5.140625 L 4.59375 -5.265625 C 4.59375 -5.628906 4.445312 -5.929688 4.15625 -6.171875 C 3.863281 -6.410156 3.460938 -6.53125 2.953125 -6.53125 C 2.523438 -6.53125 2.191406 -6.441406 1.953125 -6.265625 C 1.710938 -6.085938 1.59375 -5.832031 1.59375 -5.5 C 1.59375 -5.269531 1.648438 -5.082031 1.765625 -4.9375 C 1.890625 -4.789062 2.066406 -4.660156 2.296875 -4.546875 C 2.535156 -4.429688 2.894531 -4.28125 3.375 -4.09375 C 3.875 -3.90625 4.273438 -3.726562 4.578125 -3.5625 C 4.878906 -3.394531 5.128906 -3.175781 5.328125 -2.90625 C 5.535156 -2.644531 5.640625 -2.3125 5.640625 -1.90625 C 5.640625 -1.507812 5.535156 -1.160156 5.328125 -0.859375 C 5.128906 -0.566406 4.835938 -0.335938 4.453125 -0.171875 C 4.078125 -0.00390625 3.628906 0.078125 3.109375 0.078125 Z M 3.109375 0.078125" transform="translate(220.952 94.594)"/></g></g></g><g fill="#FFF"><g><g><path d="M 2.921875 0.078125 C 2.390625 0.078125 1.9375 -0.0507812 1.5625 -0.3125 C 1.1875 -0.570312 0.921875 -0.9375 0.765625 -1.40625 C 0.640625 -1.78125 0.578125 -2.203125 0.578125 -2.671875 C 0.578125 -3.171875 0.632812 -3.59375 0.75 -3.9375 C 0.90625 -4.394531 1.171875 -4.753906 1.546875 -5.015625 C 1.929688 -5.273438 2.390625 -5.40625 2.921875 -5.40625 C 3.421875 -5.40625 3.859375 -5.273438 4.234375 -5.015625 C 4.609375 -4.753906 4.875 -4.394531 5.03125 -3.9375 C 5.164062 -3.582031 5.234375 -3.164062 5.234375 -2.6875 C 5.234375 -2.195312 5.164062 -1.769531 5.03125 -1.40625 C 4.882812 -0.9375 4.617188 -0.570312 4.234375 -0.3125 C 3.859375 -0.0507812 3.421875 0.078125 2.921875 0.078125 Z M 2.921875 -0.78125 C 3.191406 -0.78125 3.429688 -0.859375 3.640625 -1.015625 C 3.859375 -1.171875 4.007812 -1.394531 4.09375 -1.6875 C 4.175781 -1.945312 4.21875 -2.273438 4.21875 -2.671875 C 4.21875 -3.054688 4.179688 -3.378906 4.109375 -3.640625 C 4.015625 -3.921875 3.863281 -4.140625 3.65625 -4.296875 C 3.445312 -4.453125 3.191406 -4.53125 2.890625 -4.53125 C 2.609375 -4.53125 2.363281 -4.453125 2.15625 -4.296875 C 1.945312 -4.140625 1.796875 -3.921875 1.703125 -3.640625 C 1.628906 -3.390625 1.59375 -3.066406 1.59375 -2.671875 C 1.59375 -2.265625 1.628906 -1.9375 1.703125 -1.6875 C 1.785156 -1.394531 1.929688 -1.171875 2.140625 -1.015625 C 2.359375 -0.859375 2.617188 -0.78125 2.921875 -0.78125 Z M 2.921875 -0.78125" transform="translate(227.915 94.594)"/></g></g></g><g fill="#FFF"><g><g><path d="M 0.90625 0 C 0.851562 0 0.8125 -0.0078125 0.78125 -0.03125 C 0.75 -0.0625 0.734375 -0.101562 0.734375 -0.15625 L 0.734375 -7.15625 C 0.734375 -7.207031 0.75 -7.242188 0.78125 -7.265625 C 0.8125 -7.296875 0.851562 -7.3125 0.90625 -7.3125 L 1.59375 -7.3125 C 1.632812 -7.3125 1.671875 -7.296875 1.703125 -7.265625 C 1.734375 -7.242188 1.75 -7.207031 1.75 -7.15625 L 1.75 -0.15625 C 1.75 -0.101562 1.734375 -0.0625 1.703125 -0.03125 C 1.671875 -0.0078125 1.632812 0 1.59375 0 Z M 0.90625 0" transform="translate(234.532 94.594)"/></g></g></g><g fill="#FFF"><g><g><path d="M 3.90625 -5.15625 C 3.90625 -5.207031 3.914062 -5.25 3.9375 -5.28125 C 3.96875 -5.3125 4.007812 -5.328125 4.0625 -5.328125 L 4.734375 -5.328125 C 4.785156 -5.328125 4.820312 -5.3125 4.84375 -5.28125 C 4.875 -5.25 4.890625 -5.207031 4.890625 -5.15625 L 4.890625 -0.15625 C 4.890625 -0.101562 4.875 -0.0625 4.84375 -0.03125 C 4.820312 -0.0078125 4.785156 0 4.734375 0 L 4.0625 0 C 4.007812 0 3.96875 -0.0078125 3.9375 -0.03125 C 3.914062 -0.0625 3.90625 -0.101562 3.90625 -0.15625 L 3.90625 -0.46875 C 3.90625 -0.488281 3.894531 -0.5 3.875 -0.5 C 3.863281 -0.507812 3.851562 -0.503906 3.84375 -0.484375 C 3.5625 -0.109375 3.132812 0.078125 2.5625 0.078125 C 2.21875 0.078125 1.898438 0.0078125 1.609375 -0.125 C 1.328125 -0.257812 1.097656 -0.453125 0.921875 -0.703125 C 0.742188 -0.960938 0.65625 -1.28125 0.65625 -1.65625 L 0.65625 -5.15625 C 0.65625 -5.207031 0.664062 -5.25 0.6875 -5.28125 C 0.71875 -5.3125 0.757812 -5.328125 0.8125 -5.328125 L 1.5 -5.328125 C 1.539062 -5.328125 1.578125 -5.3125 1.609375 -5.28125 C 1.640625 -5.25 1.65625 -5.207031 1.65625 -5.15625 L 1.65625 -1.96875 C 1.65625 -1.601562 1.75 -1.316406 1.9375 -1.109375 C 2.125 -0.898438 2.394531 -0.796875 2.75 -0.796875 C 3.09375 -0.796875 3.367188 -0.898438 3.578125 -1.109375 C 3.796875 -1.328125 3.90625 -1.613281 3.90625 -1.96875 Z M 3.90625 -5.15625" transform="translate(237.836 94.594)"/></g></g></g><g fill="#FFF"><g><g><path d="M 3.359375 -4.65625 C 3.359375 -4.601562 3.34375 -4.5625 3.3125 -4.53125 C 3.28125 -4.507812 3.242188 -4.5 3.203125 -4.5 L 2.125 -4.5 C 2.09375 -4.5 2.078125 -4.476562 2.078125 -4.4375 L 2.078125 -1.71875 C 2.078125 -1.414062 2.140625 -1.203125 2.265625 -1.078125 C 2.398438 -0.953125 2.609375 -0.890625 2.890625 -0.890625 L 3.140625 -0.890625 C 3.191406 -0.890625 3.226562 -0.875 3.25 -0.84375 C 3.28125 -0.820312 3.296875 -0.785156 3.296875 -0.734375 L 3.296875 -0.1875 C 3.296875 -0.09375 3.242188 -0.0351562 3.140625 -0.015625 L 2.71875 -0.015625 C 2.175781 -0.015625 1.773438 -0.109375 1.515625 -0.296875 C 1.253906 -0.484375 1.125 -0.832031 1.125 -1.34375 L 1.125 -4.4375 C 1.125 -4.476562 1.101562 -4.5 1.0625 -4.5 L 0.484375 -4.5 C 0.441406 -4.5 0.40625 -4.507812 0.375 -4.53125 C 0.34375 -4.5625 0.328125 -4.601562 0.328125 -4.65625 L 0.328125 -5.15625 C 0.328125 -5.207031 0.34375 -5.25 0.375 -5.28125 C 0.40625 -5.3125 0.441406 -5.328125 0.484375 -5.328125 L 1.0625 -5.328125 C 1.101562 -5.328125 1.125 -5.34375 1.125 -5.375 L 1.125 -6.546875 C 1.125 -6.585938 1.132812 -6.625 1.15625 -6.65625 C 1.1875 -6.6875 1.226562 -6.703125 1.28125 -6.703125 L 1.921875 -6.703125 C 1.972656 -6.703125 2.007812 -6.6875 2.03125 -6.65625 C 2.0625 -6.625 2.078125 -6.585938 2.078125 -6.546875 L 2.078125 -5.375 C 2.078125 -5.34375 2.09375 -5.328125 2.125 -5.328125 L 3.203125 -5.328125 C 3.242188 -5.328125 3.28125 -5.3125 3.3125 -5.28125 C 3.34375 -5.25 3.359375 -5.207031 3.359375 -5.15625 Z M 3.359375 -4.65625" transform="translate(244.275 94.594)"/></g></g></g><g fill="#FFF"><g><g><path d="M 1.3125 -6.109375 C 1.113281 -6.109375 0.945312 -6.171875 0.8125 -6.296875 C 0.6875 -6.421875 0.625 -6.582031 0.625 -6.78125 C 0.625 -6.96875 0.6875 -7.125 0.8125 -7.25 C 0.945312 -7.375 1.113281 -7.4375 1.3125 -7.4375 C 1.519531 -7.4375 1.6875 -7.375 1.8125 -7.25 C 1.9375 -7.125 2 -6.96875 2 -6.78125 C 2 -6.582031 1.9375 -6.421875 1.8125 -6.296875 C 1.6875 -6.171875 1.519531 -6.109375 1.3125 -6.109375 Z M 0.96875 0 C 0.925781 0 0.890625 -0.0078125 0.859375 -0.03125 C 0.828125 -0.0625 0.8125 -0.101562 0.8125 -0.15625 L 0.8125 -5.15625 C 0.8125 -5.207031 0.828125 -5.25 0.859375 -5.28125 C 0.890625 -5.3125 0.925781 -5.328125 0.96875 -5.328125 L 1.65625 -5.328125 C 1.707031 -5.328125 1.742188 -5.3125 1.765625 -5.28125 C 1.796875 -5.25 1.8125 -5.207031 1.8125 -5.15625 L 1.8125 -0.15625 C 1.8125 -0.101562 1.796875 -0.0625 1.765625 -0.03125 C 1.742188 -0.0078125 1.707031 0 1.65625 0 Z M 0.96875 0" transform="translate(248.948 94.594)"/></g></g></g><g fill="#FFF"><g><g><path d="M 2.921875 0.078125 C 2.390625 0.078125 1.9375 -0.0507812 1.5625 -0.3125 C 1.1875 -0.570312 0.921875 -0.9375 0.765625 -1.40625 C 0.640625 -1.78125 0.578125 -2.203125 0.578125 -2.671875 C 0.578125 -3.171875 0.632812 -3.59375 0.75 -3.9375 C 0.90625 -4.394531 1.171875 -4.753906 1.546875 -5.015625 C 1.929688 -5.273438 2.390625 -5.40625 2.921875 -5.40625 C 3.421875 -5.40625 3.859375 -5.273438 4.234375 -5.015625 C 4.609375 -4.753906 4.875 -4.394531 5.03125 -3.9375 C 5.164062 -3.582031 5.234375 -3.164062 5.234375 -2.6875 C 5.234375 -2.195312 5.164062 -1.769531 5.03125 -1.40625 C 4.882812 -0.9375 4.617188 -0.570312 4.234375 -0.3125 C 3.859375 -0.0507812 3.421875 0.078125 2.921875 0.078125 Z M 2.921875 -0.78125 C 3.191406 -0.78125 3.429688 -0.859375 3.640625 -1.015625 C 3.859375 -1.171875 4.007812 -1.394531 4.09375 -1.6875 C 4.175781 -1.945312 4.21875 -2.273438 4.21875 -2.671875 C 4.21875 -3.054688 4.179688 -3.378906 4.109375 -3.640625 C 4.015625 -3.921875 3.863281 -4.140625 3.65625 -4.296875 C 3.445312 -4.453125 3.191406 -4.53125 2.890625 -4.53125 C 2.609375 -4.53125 2.363281 -4.453125 2.15625 -4.296875 C 1.945312 -4.140625 1.796875 -3.921875 1.703125 -3.640625 C 1.628906 -3.390625 1.59375 -3.066406 1.59375 -2.671875 C 1.59375 -2.265625 1.628906 -1.9375 1.703125 -1.6875 C 1.785156 -1.394531 1.929688 -1.171875 2.140625 -1.015625 C 2.359375 -0.859375 2.617188 -0.78125 2.921875 -0.78125 Z M 2.921875 -0.78125" transform="translate(252.388 94.594)"/></g></g></g><g fill="#FFF"><g><g><path d="M 3.109375 -5.390625 C 3.679688 -5.390625 4.132812 -5.222656 4.46875 -4.890625 C 4.800781 -4.566406 4.96875 -4.117188 4.96875 -3.546875 L 4.96875 -0.15625 C 4.96875 -0.101562 4.953125 -0.0625 4.921875 -0.03125 C 4.890625 -0.0078125 4.851562 0 4.8125 0 L 4.125 0 C 4.070312 0 4.03125 -0.0078125 4 -0.03125 C 3.976562 -0.0625 3.96875 -0.101562 3.96875 -0.15625 L 3.96875 -3.359375 C 3.96875 -3.703125 3.863281 -3.984375 3.65625 -4.203125 C 3.457031 -4.421875 3.191406 -4.53125 2.859375 -4.53125 C 2.554688 -4.53125 2.300781 -4.441406 2.09375 -4.265625 C 1.882812 -4.085938 1.765625 -3.847656 1.734375 -3.546875 L 1.734375 -0.15625 C 1.734375 -0.101562 1.71875 -0.0625 1.6875 -0.03125 C 1.664062 -0.0078125 1.628906 0 1.578125 0 L 0.890625 0 C 0.835938 0 0.796875 -0.0078125 0.765625 -0.03125 C 0.742188 -0.0625 0.734375 -0.101562 0.734375 -0.15625 L 0.734375 -5.15625 C 0.734375 -5.207031 0.742188 -5.25 0.765625 -5.28125 C 0.796875 -5.3125 0.835938 -5.328125 0.890625 -5.328125 L 1.578125 -5.328125 C 1.628906 -5.328125 1.664062 -5.3125 1.6875 -5.28125 C 1.71875 -5.25 1.734375 -5.207031 1.734375 -5.15625 L 1.734375 -4.875 C 1.734375 -4.851562 1.738281 -4.835938 1.75 -4.828125 C 1.769531 -4.816406 1.78125 -4.820312 1.78125 -4.84375 C 2.070312 -5.207031 2.515625 -5.390625 3.109375 -5.390625 Z M 3.109375 -5.390625" transform="translate(259.005 94.594)"/></g></g></g></svg>