<svg xmlns="http://www.w3.org/2000/svg" width="375" viewBox="0 0 375 375" height="375" version="1.0"><defs><clipPath id="a"><path d="M 21.902344 119.859375 L 101.402344 119.859375 L 101.402344 212.859375 L 21.902344 212.859375 Z M 21.902344 119.859375"/></clipPath></defs><g clip-path="url(#a)"><path d="M 22.988281 143.367188 C 22.652344 143.582031 22.390625 143.859375 22.195312 144.207031 C 22.003906 144.554688 21.90625 144.929688 21.902344 145.328125 L 21.902344 188.445312 C 21.90625 188.851562 22.007812 189.234375 22.207031 189.585938 C 22.40625 189.9375 22.683594 190.21875 23.03125 190.425781 L 60.273438 212.503906 C 60.632812 212.714844 61.019531 212.816406 61.433594 212.816406 C 61.847656 212.816406 62.234375 212.714844 62.59375 212.503906 L 100.1875 190.417969 C 100.539062 190.214844 100.816406 189.933594 101.019531 189.578125 C 101.222656 189.226562 101.324219 188.84375 101.324219 188.433594 L 101.394531 145.3125 C 101.394531 144.914062 101.296875 144.535156 101.097656 144.1875 C 100.902344 143.835938 100.636719 143.554688 100.296875 143.34375 L 62.636719 120.230469 C 62.269531 120 61.867188 119.886719 61.433594 119.886719 C 61 119.886719 60.597656 120 60.230469 120.230469 Z M 61.445312 124.90625 L 96.808594 146.617188 L 96.742188 187.125 L 61.445312 207.847656 L 26.496094 187.132812 L 26.496094 146.613281 Z M 61.445312 124.90625"/></g><path d="M 31.640625 185.324219 C 40.039062 190.15625 49.945312 195.875 59.835938 201.621094 C 61.0625 202.332031 62.09375 202.332031 63.300781 201.621094 C 66.28125 199.875 69.261719 198.132812 72.25 196.394531 C 78.601562 192.691406 85.167969 188.863281 91.585938 185.027344 C 92.21875 184.644531 92.730469 183.433594 92.804688 182.53125 C 92.921875 181.140625 92.902344 179.703125 92.886719 178.316406 C 92.875 177.332031 92.859375 176.316406 92.886719 175.3125 C 92.917969 174.378906 92.628906 173.890625 91.777344 173.390625 C 88.511719 171.492188 85.261719 169.574219 82.03125 167.632812 C 79.445312 166.097656 76.851562 164.5625 74.257812 163.03125 C 70.648438 160.910156 67.023438 158.8125 63.367188 156.699219 L 58.160156 153.6875 L 58.554688 153.304688 C 60.320312 151.59375 61.863281 151.402344 63.886719 152.613281 C 72.589844 157.855469 81.503906 162.960938 89.171875 167.324219 C 90.03125 167.8125 91.355469 168.015625 91.800781 167.726562 C 92.476562 167.285156 92.976562 165.972656 93.003906 165.070312 C 93.074219 162.574219 93.0625 160.03125 93.054688 157.566406 C 93.054688 155.273438 93.039062 152.910156 93.097656 150.582031 C 93.136719 148.929688 92.527344 147.921875 90.988281 147.101562 C 89.097656 146.089844 87.214844 145 85.390625 143.945312 L 80.8125 141.304688 C 74.859375 137.882812 68.910156 134.453125 62.972656 131.011719 C 61.960938 130.429688 61.167969 130.421875 60.203125 130.980469 C 57.015625 132.847656 53.820312 134.714844 50.617188 136.582031 C 44.429688 140.203125 38.03125 143.933594 31.769531 147.664062 C 30.996094 148.210938 30.53125 148.957031 30.382812 149.898438 C 30.210938 152.472656 30.210938 155.046875 30.382812 157.621094 C 30.46875 158.300781 30.785156 158.84375 31.328125 159.257812 C 34.710938 161.410156 38.214844 163.476562 41.195312 165.207031 C 46.949219 168.5625 52.714844 171.910156 58.492188 175.253906 L 65.09375 179.082031 L 64.675781 179.464844 C 63.25 180.773438 61.613281 181.761719 59.394531 180.1875 C 57.921875 179.1875 56.398438 178.261719 54.828125 177.417969 C 54.195312 177.066406 53.566406 176.714844 52.945312 176.347656 L 48.847656 173.964844 C 44.03125 171.152344 39.050781 168.246094 34.097656 165.476562 C 33.503906 165.167969 32.867188 165.015625 32.199219 165.015625 C 31.855469 165.003906 31.527344 165.066406 31.214844 165.203125 C 30.699219 165.460938 30.265625 166.777344 30.246094 167.714844 C 30.1875 170.5625 30.199219 173.433594 30.210938 176.222656 C 30.210938 178.398438 30.226562 180.570312 30.210938 182.746094 C 30.183594 183.984375 30.605469 184.726562 31.640625 185.324219 Z M 31.640625 185.324219"/><g fill="#FFF"><g><g><path d="M 10.890625 0.296875 C 8.921875 0.296875 7.179688 -0.0351562 5.671875 -0.703125 C 4.171875 -1.378906 3.007812 -2.332031 2.1875 -3.5625 C 1.363281 -4.800781 0.953125 -6.234375 0.953125 -7.859375 L 0.953125 -8.234375 C 0.953125 -8.691406 1.179688 -8.921875 1.640625 -8.921875 L 6.984375 -8.921875 C 7.453125 -8.921875 7.6875 -8.800781 7.6875 -8.5625 L 7.6875 -8.15625 C 7.6875 -7.5 8.035156 -6.898438 8.734375 -6.359375 C 9.441406 -5.828125 10.328125 -5.5625 11.390625 -5.5625 C 12.296875 -5.5625 12.941406 -5.75 13.328125 -6.125 C 13.710938 -6.507812 13.90625 -6.929688 13.90625 -7.390625 C 13.90625 -7.921875 13.660156 -8.320312 13.171875 -8.59375 C 12.691406 -8.863281 11.804688 -9.191406 10.515625 -9.578125 L 9.46875 -9.859375 C 7.0625 -10.585938 5.046875 -11.554688 3.421875 -12.765625 C 1.796875 -13.984375 0.984375 -15.75 0.984375 -18.0625 C 0.984375 -19.582031 1.394531 -20.929688 2.21875 -22.109375 C 3.039062 -23.285156 4.175781 -24.191406 5.625 -24.828125 C 7.070312 -25.460938 8.691406 -25.78125 10.484375 -25.78125 C 12.378906 -25.78125 14.097656 -25.425781 15.640625 -24.71875 C 17.179688 -24.019531 18.394531 -23.023438 19.28125 -21.734375 C 20.164062 -20.453125 20.609375 -18.984375 20.609375 -17.328125 L 20.609375 -17.140625 C 20.609375 -16.679688 20.378906 -16.453125 19.921875 -16.453125 L 14.5625 -16.453125 C 14.101562 -16.453125 13.875 -16.550781 13.875 -16.75 L 13.875 -17.03125 C 13.875 -17.757812 13.546875 -18.421875 12.890625 -19.015625 C 12.234375 -19.617188 11.347656 -19.921875 10.234375 -19.921875 C 9.453125 -19.921875 8.835938 -19.757812 8.390625 -19.4375 C 7.941406 -19.125 7.71875 -18.6875 7.71875 -18.125 C 7.71875 -17.6875 7.878906 -17.316406 8.203125 -17.015625 C 8.535156 -16.710938 9.039062 -16.421875 9.71875 -16.140625 C 10.394531 -15.867188 11.4375 -15.515625 12.84375 -15.078125 C 13.039062 -15.003906 13.894531 -14.738281 15.40625 -14.28125 C 16.925781 -13.832031 18.195312 -13.019531 19.21875 -11.84375 C 20.238281 -10.664062 20.75 -9.242188 20.75 -7.578125 C 20.75 -5.992188 20.335938 -4.609375 19.515625 -3.421875 C 18.691406 -2.234375 17.53125 -1.316406 16.03125 -0.671875 C 14.539062 -0.0234375 12.828125 0.296875 10.890625 0.296875 Z M 10.890625 0.296875" transform="translate(104.844 180.892)"/></g></g></g><g fill="#FFF"><g><g><path d="M 19.875 -20.3125 C 19.875 -19.851562 19.644531 -19.625 19.1875 -19.625 L 8.5625 -19.625 C 8.363281 -19.625 8.265625 -19.523438 8.265625 -19.328125 L 8.265625 -16.125 C 8.265625 -15.9375 8.363281 -15.84375 8.5625 -15.84375 L 15.03125 -15.84375 C 15.5 -15.84375 15.734375 -15.609375 15.734375 -15.140625 L 15.734375 -10.703125 C 15.734375 -10.242188 15.5 -10.015625 15.03125 -10.015625 L 8.5625 -10.015625 C 8.363281 -10.015625 8.265625 -9.914062 8.265625 -9.71875 L 8.265625 -6.15625 C 8.265625 -5.957031 8.363281 -5.859375 8.5625 -5.859375 L 19.1875 -5.859375 C 19.644531 -5.859375 19.875 -5.628906 19.875 -5.171875 L 19.875 -0.6875 C 19.875 -0.226562 19.644531 0 19.1875 0 L 2.109375 0 C 1.648438 0 1.421875 -0.226562 1.421875 -0.6875 L 1.421875 -24.796875 C 1.421875 -25.253906 1.648438 -25.484375 2.109375 -25.484375 L 19.1875 -25.484375 C 19.644531 -25.484375 19.875 -25.253906 19.875 -24.796875 Z M 19.875 -20.3125" transform="translate(129.021 180.892)"/></g></g></g><g fill="#FFF"><g><g><path d="M 18.609375 0 C 18.191406 0 17.9375 -0.191406 17.84375 -0.578125 L 17.109375 -3.203125 C 17.054688 -3.367188 16.945312 -3.453125 16.78125 -3.453125 L 9.203125 -3.453125 C 9.035156 -3.453125 8.929688 -3.367188 8.890625 -3.203125 L 8.15625 -0.578125 C 8.0625 -0.191406 7.804688 0 7.390625 0 L 1.5 0 C 1.25 0 1.066406 -0.0703125 0.953125 -0.21875 C 0.847656 -0.363281 0.832031 -0.554688 0.90625 -0.796875 L 8.484375 -24.90625 C 8.609375 -25.289062 8.863281 -25.484375 9.25 -25.484375 L 16.75 -25.484375 C 17.132812 -25.484375 17.390625 -25.289062 17.515625 -24.90625 L 25.078125 -0.796875 C 25.109375 -0.722656 25.125 -0.640625 25.125 -0.546875 C 25.125 -0.179688 24.914062 0 24.5 0 Z M 10.484375 -8.953125 C 10.484375 -8.785156 10.566406 -8.703125 10.734375 -8.703125 L 15.25 -8.703125 C 15.351562 -8.703125 15.425781 -8.734375 15.46875 -8.796875 C 15.519531 -8.859375 15.535156 -8.9375 15.515625 -9.03125 L 13.171875 -17.4375 C 13.148438 -17.5625 13.097656 -17.625 13.015625 -17.625 C 12.929688 -17.625 12.863281 -17.5625 12.8125 -17.4375 L 10.484375 -9.03125 Z M 10.484375 -8.953125" transform="translate(152.215 180.892)"/></g></g></g><g fill="#FFF"><g><g><path d="M 2.109375 0 C 1.648438 0 1.421875 -0.226562 1.421875 -0.6875 L 1.421875 -24.796875 C 1.421875 -25.253906 1.648438 -25.484375 2.109375 -25.484375 L 7.53125 -25.484375 C 7.925781 -25.484375 8.207031 -25.328125 8.375 -25.015625 L 12.78125 -17.84375 C 12.820312 -17.738281 12.890625 -17.6875 12.984375 -17.6875 C 13.085938 -17.6875 13.164062 -17.738281 13.21875 -17.84375 L 17.625 -25.015625 C 17.789062 -25.328125 18.066406 -25.484375 18.453125 -25.484375 L 23.875 -25.484375 C 24.34375 -25.484375 24.578125 -25.253906 24.578125 -24.796875 L 24.578125 -0.6875 C 24.578125 -0.226562 24.34375 0 23.875 0 L 18.421875 0 C 17.960938 0 17.734375 -0.226562 17.734375 -0.6875 L 17.734375 -13.546875 C 17.734375 -13.691406 17.6875 -13.773438 17.59375 -13.796875 C 17.507812 -13.816406 17.429688 -13.769531 17.359375 -13.65625 L 15.109375 -9.90625 C 14.941406 -9.582031 14.660156 -9.421875 14.265625 -9.421875 L 11.71875 -9.421875 C 11.332031 -9.421875 11.054688 -9.582031 10.890625 -9.90625 L 8.625 -13.65625 C 8.550781 -13.75 8.476562 -13.796875 8.40625 -13.796875 C 8.3125 -13.796875 8.265625 -13.710938 8.265625 -13.546875 L 8.265625 -0.6875 C 8.265625 -0.226562 8.035156 0 7.578125 0 Z M 2.109375 0" transform="translate(180.651 180.892)"/></g></g></g><g fill="#FFF"><g><g><path d="M 10.890625 0.296875 C 8.921875 0.296875 7.179688 -0.0351562 5.671875 -0.703125 C 4.171875 -1.378906 3.007812 -2.332031 2.1875 -3.5625 C 1.363281 -4.800781 0.953125 -6.234375 0.953125 -7.859375 L 0.953125 -8.234375 C 0.953125 -8.691406 1.179688 -8.921875 1.640625 -8.921875 L 6.984375 -8.921875 C 7.453125 -8.921875 7.6875 -8.800781 7.6875 -8.5625 L 7.6875 -8.15625 C 7.6875 -7.5 8.035156 -6.898438 8.734375 -6.359375 C 9.441406 -5.828125 10.328125 -5.5625 11.390625 -5.5625 C 12.296875 -5.5625 12.941406 -5.75 13.328125 -6.125 C 13.710938 -6.507812 13.90625 -6.929688 13.90625 -7.390625 C 13.90625 -7.921875 13.660156 -8.320312 13.171875 -8.59375 C 12.691406 -8.863281 11.804688 -9.191406 10.515625 -9.578125 L 9.46875 -9.859375 C 7.0625 -10.585938 5.046875 -11.554688 3.421875 -12.765625 C 1.796875 -13.984375 0.984375 -15.75 0.984375 -18.0625 C 0.984375 -19.582031 1.394531 -20.929688 2.21875 -22.109375 C 3.039062 -23.285156 4.175781 -24.191406 5.625 -24.828125 C 7.070312 -25.460938 8.691406 -25.78125 10.484375 -25.78125 C 12.378906 -25.78125 14.097656 -25.425781 15.640625 -24.71875 C 17.179688 -24.019531 18.394531 -23.023438 19.28125 -21.734375 C 20.164062 -20.453125 20.609375 -18.984375 20.609375 -17.328125 L 20.609375 -17.140625 C 20.609375 -16.679688 20.378906 -16.453125 19.921875 -16.453125 L 14.5625 -16.453125 C 14.101562 -16.453125 13.875 -16.550781 13.875 -16.75 L 13.875 -17.03125 C 13.875 -17.757812 13.546875 -18.421875 12.890625 -19.015625 C 12.234375 -19.617188 11.347656 -19.921875 10.234375 -19.921875 C 9.453125 -19.921875 8.835938 -19.757812 8.390625 -19.4375 C 7.941406 -19.125 7.71875 -18.6875 7.71875 -18.125 C 7.71875 -17.6875 7.878906 -17.316406 8.203125 -17.015625 C 8.535156 -16.710938 9.039062 -16.421875 9.71875 -16.140625 C 10.394531 -15.867188 11.4375 -15.515625 12.84375 -15.078125 C 13.039062 -15.003906 13.894531 -14.738281 15.40625 -14.28125 C 16.925781 -13.832031 18.195312 -13.019531 19.21875 -11.84375 C 20.238281 -10.664062 20.75 -9.242188 20.75 -7.578125 C 20.75 -5.992188 20.335938 -4.609375 19.515625 -3.421875 C 18.691406 -2.234375 17.53125 -1.316406 16.03125 -0.671875 C 14.539062 -0.0234375 12.828125 0.296875 10.890625 0.296875 Z M 10.890625 0.296875" transform="translate(209.088 180.892)"/></g></g></g><g fill="#FFF"><g><g><path d="M 20.3125 -25.484375 C 20.769531 -25.484375 21 -25.253906 21 -24.796875 L 21 -20.28125 C 21 -19.820312 20.769531 -19.59375 20.3125 -19.59375 L 14.453125 -19.59375 C 14.253906 -19.59375 14.15625 -19.492188 14.15625 -19.296875 L 14.15625 -0.6875 C 14.15625 -0.226562 13.925781 0 13.46875 0 L 8.015625 0 C 7.546875 0 7.3125 -0.226562 7.3125 -0.6875 L 7.3125 -19.296875 C 7.3125 -19.492188 7.21875 -19.59375 7.03125 -19.59375 L 1.34375 -19.59375 C 0.882812 -19.59375 0.65625 -19.820312 0.65625 -20.28125 L 0.65625 -24.796875 C 0.65625 -25.253906 0.882812 -25.484375 1.34375 -25.484375 Z M 20.3125 -25.484375" transform="translate(233.265 180.892)"/></g></g></g><g fill="#FFF"><g><g><path d="M 14.96875 0 C 14.570312 0 14.300781 -0.171875 14.15625 -0.515625 L 10.234375 -9.578125 C 10.179688 -9.722656 10.054688 -9.796875 9.859375 -9.796875 L 8.5625 -9.796875 C 8.363281 -9.796875 8.265625 -9.695312 8.265625 -9.5 L 8.265625 -0.6875 C 8.265625 -0.226562 8.035156 0 7.578125 0 L 2.109375 0 C 1.648438 0 1.421875 -0.226562 1.421875 -0.6875 L 1.421875 -24.796875 C 1.421875 -25.253906 1.648438 -25.484375 2.109375 -25.484375 L 13 -25.484375 C 14.644531 -25.484375 16.09375 -25.144531 17.34375 -24.46875 C 18.59375 -23.789062 19.5625 -22.835938 20.25 -21.609375 C 20.945312 -20.378906 21.296875 -18.960938 21.296875 -17.359375 C 21.296875 -15.785156 20.910156 -14.40625 20.140625 -13.21875 C 19.378906 -12.03125 18.320312 -11.144531 16.96875 -10.5625 C 16.789062 -10.488281 16.738281 -10.363281 16.8125 -10.1875 L 21.265625 -0.796875 C 21.304688 -0.703125 21.328125 -0.582031 21.328125 -0.4375 C 21.328125 -0.144531 21.132812 0 20.75 0 Z M 8.5625 -19.625 C 8.363281 -19.625 8.265625 -19.523438 8.265625 -19.328125 L 8.265625 -15.296875 C 8.265625 -15.097656 8.363281 -15 8.5625 -15 L 11.875 -15 C 12.644531 -15 13.269531 -15.210938 13.75 -15.640625 C 14.238281 -16.066406 14.484375 -16.617188 14.484375 -17.296875 C 14.484375 -17.992188 14.238281 -18.554688 13.75 -18.984375 C 13.269531 -19.410156 12.644531 -19.625 11.875 -19.625 Z M 8.5625 -19.625" transform="translate(257.369 180.892)"/></g></g></g><g fill="#FFF"><g><g><path d="M 19.875 -20.3125 C 19.875 -19.851562 19.644531 -19.625 19.1875 -19.625 L 8.5625 -19.625 C 8.363281 -19.625 8.265625 -19.523438 8.265625 -19.328125 L 8.265625 -16.125 C 8.265625 -15.9375 8.363281 -15.84375 8.5625 -15.84375 L 15.03125 -15.84375 C 15.5 -15.84375 15.734375 -15.609375 15.734375 -15.140625 L 15.734375 -10.703125 C 15.734375 -10.242188 15.5 -10.015625 15.03125 -10.015625 L 8.5625 -10.015625 C 8.363281 -10.015625 8.265625 -9.914062 8.265625 -9.71875 L 8.265625 -6.15625 C 8.265625 -5.957031 8.363281 -5.859375 8.5625 -5.859375 L 19.1875 -5.859375 C 19.644531 -5.859375 19.875 -5.628906 19.875 -5.171875 L 19.875 -0.6875 C 19.875 -0.226562 19.644531 0 19.1875 0 L 2.109375 0 C 1.648438 0 1.421875 -0.226562 1.421875 -0.6875 L 1.421875 -24.796875 C 1.421875 -25.253906 1.648438 -25.484375 2.109375 -25.484375 L 19.1875 -25.484375 C 19.644531 -25.484375 19.875 -25.253906 19.875 -24.796875 Z M 19.875 -20.3125" transform="translate(282.2 180.892)"/></g></g></g><g fill="#FFF"><g><g><path d="M 10.890625 0.296875 C 8.921875 0.296875 7.179688 -0.0351562 5.671875 -0.703125 C 4.171875 -1.378906 3.007812 -2.332031 2.1875 -3.5625 C 1.363281 -4.800781 0.953125 -6.234375 0.953125 -7.859375 L 0.953125 -8.234375 C 0.953125 -8.691406 1.179688 -8.921875 1.640625 -8.921875 L 6.984375 -8.921875 C 7.453125 -8.921875 7.6875 -8.800781 7.6875 -8.5625 L 7.6875 -8.15625 C 7.6875 -7.5 8.035156 -6.898438 8.734375 -6.359375 C 9.441406 -5.828125 10.328125 -5.5625 11.390625 -5.5625 C 12.296875 -5.5625 12.941406 -5.75 13.328125 -6.125 C 13.710938 -6.507812 13.90625 -6.929688 13.90625 -7.390625 C 13.90625 -7.921875 13.660156 -8.320312 13.171875 -8.59375 C 12.691406 -8.863281 11.804688 -9.191406 10.515625 -9.578125 L 9.46875 -9.859375 C 7.0625 -10.585938 5.046875 -11.554688 3.421875 -12.765625 C 1.796875 -13.984375 0.984375 -15.75 0.984375 -18.0625 C 0.984375 -19.582031 1.394531 -20.929688 2.21875 -22.109375 C 3.039062 -23.285156 4.175781 -24.191406 5.625 -24.828125 C 7.070312 -25.460938 8.691406 -25.78125 10.484375 -25.78125 C 12.378906 -25.78125 14.097656 -25.425781 15.640625 -24.71875 C 17.179688 -24.019531 18.394531 -23.023438 19.28125 -21.734375 C 20.164062 -20.453125 20.609375 -18.984375 20.609375 -17.328125 L 20.609375 -17.140625 C 20.609375 -16.679688 20.378906 -16.453125 19.921875 -16.453125 L 14.5625 -16.453125 C 14.101562 -16.453125 13.875 -16.550781 13.875 -16.75 L 13.875 -17.03125 C 13.875 -17.757812 13.546875 -18.421875 12.890625 -19.015625 C 12.234375 -19.617188 11.347656 -19.921875 10.234375 -19.921875 C 9.453125 -19.921875 8.835938 -19.757812 8.390625 -19.4375 C 7.941406 -19.125 7.71875 -18.6875 7.71875 -18.125 C 7.71875 -17.6875 7.878906 -17.316406 8.203125 -17.015625 C 8.535156 -16.710938 9.039062 -16.421875 9.71875 -16.140625 C 10.394531 -15.867188 11.4375 -15.515625 12.84375 -15.078125 C 13.039062 -15.003906 13.894531 -14.738281 15.40625 -14.28125 C 16.925781 -13.832031 18.195312 -13.019531 19.21875 -11.84375 C 20.238281 -10.664062 20.75 -9.242188 20.75 -7.578125 C 20.75 -5.992188 20.335938 -4.609375 19.515625 -3.421875 C 18.691406 -2.234375 17.53125 -1.316406 16.03125 -0.671875 C 14.539062 -0.0234375 12.828125 0.296875 10.890625 0.296875 Z M 10.890625 0.296875" transform="translate(305.395 180.892)"/></g></g></g><g fill="#FFF"><g><g><path d="M 10.890625 0.296875 C 8.921875 0.296875 7.179688 -0.0351562 5.671875 -0.703125 C 4.171875 -1.378906 3.007812 -2.332031 2.1875 -3.5625 C 1.363281 -4.800781 0.953125 -6.234375 0.953125 -7.859375 L 0.953125 -8.234375 C 0.953125 -8.691406 1.179688 -8.921875 1.640625 -8.921875 L 6.984375 -8.921875 C 7.453125 -8.921875 7.6875 -8.800781 7.6875 -8.5625 L 7.6875 -8.15625 C 7.6875 -7.5 8.035156 -6.898438 8.734375 -6.359375 C 9.441406 -5.828125 10.328125 -5.5625 11.390625 -5.5625 C 12.296875 -5.5625 12.941406 -5.75 13.328125 -6.125 C 13.710938 -6.507812 13.90625 -6.929688 13.90625 -7.390625 C 13.90625 -7.921875 13.660156 -8.320312 13.171875 -8.59375 C 12.691406 -8.863281 11.804688 -9.191406 10.515625 -9.578125 L 9.46875 -9.859375 C 7.0625 -10.585938 5.046875 -11.554688 3.421875 -12.765625 C 1.796875 -13.984375 0.984375 -15.75 0.984375 -18.0625 C 0.984375 -19.582031 1.394531 -20.929688 2.21875 -22.109375 C 3.039062 -23.285156 4.175781 -24.191406 5.625 -24.828125 C 7.070312 -25.460938 8.691406 -25.78125 10.484375 -25.78125 C 12.378906 -25.78125 14.097656 -25.425781 15.640625 -24.71875 C 17.179688 -24.019531 18.394531 -23.023438 19.28125 -21.734375 C 20.164062 -20.453125 20.609375 -18.984375 20.609375 -17.328125 L 20.609375 -17.140625 C 20.609375 -16.679688 20.378906 -16.453125 19.921875 -16.453125 L 14.5625 -16.453125 C 14.101562 -16.453125 13.875 -16.550781 13.875 -16.75 L 13.875 -17.03125 C 13.875 -17.757812 13.546875 -18.421875 12.890625 -19.015625 C 12.234375 -19.617188 11.347656 -19.921875 10.234375 -19.921875 C 9.453125 -19.921875 8.835938 -19.757812 8.390625 -19.4375 C 7.941406 -19.125 7.71875 -18.6875 7.71875 -18.125 C 7.71875 -17.6875 7.878906 -17.316406 8.203125 -17.015625 C 8.535156 -16.710938 9.039062 -16.421875 9.71875 -16.140625 C 10.394531 -15.867188 11.4375 -15.515625 12.84375 -15.078125 C 13.039062 -15.003906 13.894531 -14.738281 15.40625 -14.28125 C 16.925781 -13.832031 18.195312 -13.019531 19.21875 -11.84375 C 20.238281 -10.664062 20.75 -9.242188 20.75 -7.578125 C 20.75 -5.992188 20.335938 -4.609375 19.515625 -3.421875 C 18.691406 -2.234375 17.53125 -1.316406 16.03125 -0.671875 C 14.539062 -0.0234375 12.828125 0.296875 10.890625 0.296875 Z M 10.890625 0.296875" transform="translate(329.571 180.892)"/></g></g></g><g fill="#FFF"><g><g><path d="M 6.890625 0 C 6.773438 0 6.695312 -0.0507812 6.65625 -0.15625 L 6.1875 -1.671875 C 6.164062 -1.703125 6.144531 -1.71875 6.125 -1.71875 L 2.359375 -1.71875 C 2.328125 -1.71875 2.304688 -1.703125 2.296875 -1.671875 L 1.828125 -0.15625 C 1.785156 -0.0507812 1.707031 0 1.59375 0 L 0.640625 0 C 0.484375 0 0.425781 -0.078125 0.46875 -0.234375 L 3.390625 -9.28125 C 3.421875 -9.382812 3.492188 -9.4375 3.609375 -9.4375 L 4.859375 -9.4375 C 4.972656 -9.4375 5.046875 -9.382812 5.078125 -9.28125 L 8.015625 -0.234375 C 8.023438 -0.210938 8.03125 -0.179688 8.03125 -0.140625 C 8.03125 -0.046875 7.972656 0 7.859375 0 Z M 2.640625 -2.828125 C 2.628906 -2.773438 2.648438 -2.75 2.703125 -2.75 L 5.78125 -2.75 C 5.832031 -2.75 5.851562 -2.773438 5.84375 -2.828125 L 4.28125 -7.859375 C 4.269531 -7.898438 4.253906 -7.921875 4.234375 -7.921875 C 4.210938 -7.921875 4.195312 -7.898438 4.1875 -7.859375 Z M 2.640625 -2.828125" transform="translate(124.67 200.651)"/></g></g></g><g fill="#FFF"><g><g><path d="M 4 -6.953125 C 4.738281 -6.953125 5.320312 -6.738281 5.75 -6.3125 C 6.1875 -5.882812 6.40625 -5.304688 6.40625 -4.578125 L 6.40625 -0.203125 C 6.40625 -0.140625 6.382812 -0.0859375 6.34375 -0.046875 C 6.3125 -0.015625 6.265625 0 6.203125 0 L 5.3125 0 C 5.25 0 5.195312 -0.015625 5.15625 -0.046875 C 5.125 -0.0859375 5.109375 -0.140625 5.109375 -0.203125 L 5.109375 -4.328125 C 5.109375 -4.773438 4.976562 -5.140625 4.71875 -5.421875 C 4.457031 -5.703125 4.113281 -5.84375 3.6875 -5.84375 C 3.289062 -5.84375 2.960938 -5.726562 2.703125 -5.5 C 2.441406 -5.269531 2.285156 -4.960938 2.234375 -4.578125 L 2.234375 -0.203125 C 2.234375 -0.140625 2.210938 -0.0859375 2.171875 -0.046875 C 2.140625 -0.015625 2.09375 0 2.03125 0 L 1.140625 0 C 1.078125 0 1.023438 -0.015625 0.984375 -0.046875 C 0.953125 -0.0859375 0.9375 -0.140625 0.9375 -0.203125 L 0.9375 -6.65625 C 0.9375 -6.71875 0.953125 -6.765625 0.984375 -6.796875 C 1.023438 -6.835938 1.078125 -6.859375 1.140625 -6.859375 L 2.03125 -6.859375 C 2.09375 -6.859375 2.140625 -6.835938 2.171875 -6.796875 C 2.210938 -6.765625 2.234375 -6.71875 2.234375 -6.65625 L 2.234375 -6.28125 C 2.234375 -6.257812 2.242188 -6.242188 2.265625 -6.234375 C 2.285156 -6.222656 2.300781 -6.226562 2.3125 -6.25 C 2.6875 -6.71875 3.25 -6.953125 4 -6.953125 Z M 4 -6.953125" transform="translate(134.212 200.651)"/></g></g></g><g fill="#FFF"><g><g><path d="M 6.890625 0 C 6.773438 0 6.695312 -0.0507812 6.65625 -0.15625 L 6.1875 -1.671875 C 6.164062 -1.703125 6.144531 -1.71875 6.125 -1.71875 L 2.359375 -1.71875 C 2.328125 -1.71875 2.304688 -1.703125 2.296875 -1.671875 L 1.828125 -0.15625 C 1.785156 -0.0507812 1.707031 0 1.59375 0 L 0.640625 0 C 0.484375 0 0.425781 -0.078125 0.46875 -0.234375 L 3.390625 -9.28125 C 3.421875 -9.382812 3.492188 -9.4375 3.609375 -9.4375 L 4.859375 -9.4375 C 4.972656 -9.4375 5.046875 -9.382812 5.078125 -9.28125 L 8.015625 -0.234375 C 8.023438 -0.210938 8.03125 -0.179688 8.03125 -0.140625 C 8.03125 -0.046875 7.972656 0 7.859375 0 Z M 2.640625 -2.828125 C 2.628906 -2.773438 2.648438 -2.75 2.703125 -2.75 L 5.78125 -2.75 C 5.832031 -2.75 5.851562 -2.773438 5.84375 -2.828125 L 4.28125 -7.859375 C 4.269531 -7.898438 4.253906 -7.921875 4.234375 -7.921875 C 4.210938 -7.921875 4.195312 -7.898438 4.1875 -7.859375 Z M 2.640625 -2.828125" transform="translate(146.314 200.651)"/></g></g></g><g fill="#FFF"><g><g><path d="M 1.703125 -7.890625 C 1.441406 -7.890625 1.226562 -7.96875 1.0625 -8.125 C 0.894531 -8.28125 0.8125 -8.484375 0.8125 -8.734375 C 0.8125 -8.984375 0.894531 -9.1875 1.0625 -9.34375 C 1.226562 -9.507812 1.441406 -9.59375 1.703125 -9.59375 C 1.960938 -9.59375 2.171875 -9.507812 2.328125 -9.34375 C 2.492188 -9.1875 2.578125 -8.984375 2.578125 -8.734375 C 2.578125 -8.484375 2.492188 -8.28125 2.328125 -8.125 C 2.171875 -7.96875 1.960938 -7.890625 1.703125 -7.890625 Z M 1.25 0 C 1.1875 0 1.132812 -0.015625 1.09375 -0.046875 C 1.0625 -0.0859375 1.046875 -0.140625 1.046875 -0.203125 L 1.046875 -6.65625 C 1.046875 -6.71875 1.0625 -6.765625 1.09375 -6.796875 C 1.132812 -6.835938 1.1875 -6.859375 1.25 -6.859375 L 2.140625 -6.859375 C 2.203125 -6.859375 2.25 -6.835938 2.28125 -6.796875 C 2.320312 -6.765625 2.34375 -6.71875 2.34375 -6.65625 L 2.34375 -0.203125 C 2.34375 -0.140625 2.320312 -0.0859375 2.28125 -0.046875 C 2.25 -0.015625 2.203125 0 2.140625 0 Z M 1.25 0" transform="translate(155.857 200.651)"/></g></g></g><g fill="#FFF"><g><g><path d="M 4.140625 0.125 C 3.492188 0.125 2.921875 0 2.421875 -0.25 C 1.921875 -0.507812 1.53125 -0.875 1.25 -1.34375 C 0.976562 -1.820312 0.84375 -2.367188 0.84375 -2.984375 L 0.84375 -6.46875 C 0.84375 -7.082031 0.976562 -7.617188 1.25 -8.078125 C 1.53125 -8.546875 1.921875 -8.90625 2.421875 -9.15625 C 2.921875 -9.414062 3.492188 -9.546875 4.140625 -9.546875 C 4.785156 -9.546875 5.351562 -9.421875 5.84375 -9.171875 C 6.34375 -8.929688 6.726562 -8.582031 7 -8.125 C 7.28125 -7.675781 7.421875 -7.15625 7.421875 -6.5625 C 7.421875 -6.476562 7.351562 -6.425781 7.21875 -6.40625 L 6.328125 -6.34375 L 6.265625 -6.34375 C 6.222656 -6.34375 6.1875 -6.351562 6.15625 -6.375 C 6.132812 -6.394531 6.125 -6.414062 6.125 -6.4375 L 6.125 -6.515625 C 6.125 -7.085938 5.941406 -7.546875 5.578125 -7.890625 C 5.222656 -8.242188 4.742188 -8.421875 4.140625 -8.421875 C 3.535156 -8.421875 3.050781 -8.242188 2.6875 -7.890625 C 2.320312 -7.546875 2.140625 -7.085938 2.140625 -6.515625 L 2.140625 -2.921875 C 2.140625 -2.347656 2.320312 -1.882812 2.6875 -1.53125 C 3.050781 -1.1875 3.535156 -1.015625 4.140625 -1.015625 C 4.742188 -1.015625 5.222656 -1.1875 5.578125 -1.53125 C 5.941406 -1.882812 6.125 -2.347656 6.125 -2.921875 C 6.125 -2.972656 6.140625 -3.015625 6.171875 -3.046875 C 6.210938 -3.078125 6.265625 -3.085938 6.328125 -3.078125 L 7.21875 -3.015625 C 7.351562 -3.003906 7.421875 -2.984375 7.421875 -2.953125 L 7.421875 -2.890625 C 7.421875 -2.296875 7.28125 -1.769531 7 -1.3125 C 6.726562 -0.863281 6.34375 -0.507812 5.84375 -0.25 C 5.351562 0 4.785156 0.125 4.140625 0.125 Z M 4.140625 0.125" transform="translate(164.038 200.651)"/></g></g></g><g fill="#FFF"><g><g><path d="M 3.765625 0.109375 C 3.085938 0.109375 2.503906 -0.0546875 2.015625 -0.390625 C 1.523438 -0.734375 1.179688 -1.207031 0.984375 -1.8125 C 0.816406 -2.289062 0.734375 -2.835938 0.734375 -3.453125 C 0.734375 -4.085938 0.8125 -4.625 0.96875 -5.0625 C 1.164062 -5.65625 1.507812 -6.117188 2 -6.453125 C 2.5 -6.796875 3.09375 -6.96875 3.78125 -6.96875 C 4.425781 -6.96875 4.988281 -6.796875 5.46875 -6.453125 C 5.945312 -6.117188 6.289062 -5.660156 6.5 -5.078125 C 6.664062 -4.617188 6.75 -4.082031 6.75 -3.46875 C 6.75 -2.832031 6.664062 -2.28125 6.5 -1.8125 C 6.300781 -1.207031 5.957031 -0.734375 5.46875 -0.390625 C 4.988281 -0.0546875 4.421875 0.109375 3.765625 0.109375 Z M 3.765625 -1.015625 C 4.117188 -1.015625 4.429688 -1.113281 4.703125 -1.3125 C 4.972656 -1.519531 5.164062 -1.804688 5.28125 -2.171875 C 5.382812 -2.515625 5.4375 -2.9375 5.4375 -3.4375 C 5.4375 -3.9375 5.390625 -4.351562 5.296875 -4.6875 C 5.179688 -5.0625 4.988281 -5.347656 4.71875 -5.546875 C 4.445312 -5.753906 4.117188 -5.859375 3.734375 -5.859375 C 3.367188 -5.859375 3.050781 -5.753906 2.78125 -5.546875 C 2.507812 -5.347656 2.316406 -5.0625 2.203125 -4.6875 C 2.097656 -4.375 2.046875 -3.957031 2.046875 -3.4375 C 2.046875 -2.914062 2.097656 -2.492188 2.203125 -2.171875 C 2.304688 -1.804688 2.492188 -1.519531 2.765625 -1.3125 C 3.046875 -1.113281 3.378906 -1.015625 3.765625 -1.015625 Z M 3.765625 -1.015625" transform="translate(173.27 200.651)"/></g></g></g><g fill="#FFF"><g><g><path d="M 6.515625 -5.140625 C 6.671875 -4.691406 6.75 -4.113281 6.75 -3.40625 C 6.75 -2.75 6.679688 -2.207031 6.546875 -1.78125 C 6.359375 -1.1875 6.046875 -0.722656 5.609375 -0.390625 C 5.179688 -0.0546875 4.632812 0.109375 3.96875 0.109375 C 3.65625 0.109375 3.363281 0.0507812 3.09375 -0.0625 C 2.832031 -0.1875 2.601562 -0.359375 2.40625 -0.578125 C 2.382812 -0.597656 2.363281 -0.601562 2.34375 -0.59375 C 2.320312 -0.59375 2.3125 -0.578125 2.3125 -0.546875 L 2.3125 2.375 C 2.3125 2.4375 2.296875 2.484375 2.265625 2.515625 C 2.234375 2.554688 2.179688 2.578125 2.109375 2.578125 L 1.234375 2.578125 C 1.160156 2.578125 1.109375 2.554688 1.078125 2.515625 C 1.046875 2.484375 1.03125 2.4375 1.03125 2.375 L 1.03125 -6.65625 C 1.03125 -6.71875 1.046875 -6.765625 1.078125 -6.796875 C 1.109375 -6.835938 1.160156 -6.859375 1.234375 -6.859375 L 2.109375 -6.859375 C 2.179688 -6.859375 2.234375 -6.835938 2.265625 -6.796875 C 2.296875 -6.765625 2.3125 -6.71875 2.3125 -6.65625 L 2.3125 -6.3125 C 2.3125 -6.28125 2.320312 -6.257812 2.34375 -6.25 C 2.363281 -6.25 2.382812 -6.253906 2.40625 -6.265625 C 2.601562 -6.492188 2.832031 -6.664062 3.09375 -6.78125 C 3.363281 -6.90625 3.65625 -6.96875 3.96875 -6.96875 C 4.613281 -6.96875 5.148438 -6.804688 5.578125 -6.484375 C 6.003906 -6.171875 6.316406 -5.722656 6.515625 -5.140625 Z M 5.03125 -1.65625 C 5.320312 -2.101562 5.46875 -2.695312 5.46875 -3.4375 C 5.46875 -4.132812 5.351562 -4.691406 5.125 -5.109375 C 4.863281 -5.609375 4.429688 -5.859375 3.828125 -5.859375 C 3.316406 -5.859375 2.925781 -5.613281 2.65625 -5.125 C 2.4375 -4.738281 2.328125 -4.171875 2.328125 -3.421875 C 2.328125 -2.679688 2.445312 -2.109375 2.6875 -1.703125 C 2.945312 -1.242188 3.328125 -1.015625 3.828125 -1.015625 C 4.347656 -1.015625 4.75 -1.226562 5.03125 -1.65625 Z M 5.03125 -1.65625" transform="translate(181.802 200.651)"/></g></g></g><g fill="#FFF"><g><g><path d="M 0.734375 2.703125 C 0.710938 2.703125 0.691406 2.679688 0.671875 2.640625 C 0.648438 2.609375 0.640625 2.5625 0.640625 2.5 L 0.640625 1.8125 C 0.640625 1.675781 0.671875 1.609375 0.734375 1.609375 L 0.8125 1.609375 C 1.164062 1.609375 1.441406 1.566406 1.640625 1.484375 C 1.847656 1.398438 2.019531 1.25 2.15625 1.03125 C 2.300781 0.8125 2.4375 0.484375 2.5625 0.046875 C 2.570312 0.0234375 2.570312 -0.00390625 2.5625 -0.046875 L 0.34375 -6.640625 C 0.332031 -6.648438 0.328125 -6.675781 0.328125 -6.71875 C 0.328125 -6.8125 0.382812 -6.859375 0.5 -6.859375 L 1.4375 -6.859375 C 1.5625 -6.859375 1.640625 -6.804688 1.671875 -6.703125 L 3.203125 -1.84375 C 3.203125 -1.8125 3.210938 -1.796875 3.234375 -1.796875 C 3.253906 -1.796875 3.269531 -1.8125 3.28125 -1.84375 L 4.75 -6.6875 C 4.757812 -6.738281 4.785156 -6.78125 4.828125 -6.8125 C 4.867188 -6.84375 4.914062 -6.859375 4.96875 -6.859375 L 5.921875 -6.859375 C 5.992188 -6.859375 6.039062 -6.835938 6.0625 -6.796875 C 6.09375 -6.765625 6.097656 -6.710938 6.078125 -6.640625 L 3.671875 0.46875 C 3.460938 1.09375 3.253906 1.554688 3.046875 1.859375 C 2.835938 2.160156 2.566406 2.375 2.234375 2.5 C 1.898438 2.632812 1.4375 2.703125 0.84375 2.703125 Z M 0.734375 2.703125" transform="translate(190.293 200.651)"/></g></g></g><g fill="#FFF"><g><g><path d="M 3.03125 0 C 2.90625 0 2.832031 -0.0546875 2.8125 -0.171875 L 0.328125 -9.203125 C 0.316406 -9.222656 0.3125 -9.253906 0.3125 -9.296875 C 0.3125 -9.390625 0.367188 -9.4375 0.484375 -9.4375 L 1.453125 -9.4375 C 1.566406 -9.4375 1.640625 -9.378906 1.671875 -9.265625 L 3.421875 -2.625 C 3.429688 -2.601562 3.445312 -2.59375 3.46875 -2.59375 C 3.488281 -2.59375 3.5 -2.601562 3.5 -2.625 L 5.15625 -9.265625 C 5.175781 -9.378906 5.242188 -9.4375 5.359375 -9.4375 L 6.328125 -9.4375 C 6.441406 -9.4375 6.515625 -9.378906 6.546875 -9.265625 L 8.28125 -2.625 C 8.289062 -2.601562 8.300781 -2.59375 8.3125 -2.59375 C 8.332031 -2.59375 8.347656 -2.601562 8.359375 -2.625 L 10.109375 -9.265625 C 10.140625 -9.378906 10.210938 -9.4375 10.328125 -9.4375 L 11.234375 -9.4375 C 11.304688 -9.4375 11.359375 -9.414062 11.390625 -9.375 C 11.421875 -9.332031 11.425781 -9.273438 11.40625 -9.203125 L 9 -0.171875 C 8.96875 -0.0546875 8.894531 0 8.78125 0 L 7.84375 0 C 7.726562 0 7.65625 -0.0546875 7.625 -0.171875 L 5.890625 -7.046875 C 5.878906 -7.078125 5.863281 -7.09375 5.84375 -7.09375 C 5.832031 -7.09375 5.820312 -7.078125 5.8125 -7.046875 L 4.125 -0.171875 C 4.09375 -0.0546875 4.019531 0 3.90625 0 Z M 3.03125 0" transform="translate(201.507 200.651)"/></g></g></g><g fill="#FFF"><g><g><path d="M 3.953125 -6.9375 C 4.222656 -6.9375 4.460938 -6.882812 4.671875 -6.78125 C 4.773438 -6.726562 4.8125 -6.644531 4.78125 -6.53125 L 4.59375 -5.65625 C 4.582031 -5.5625 4.539062 -5.515625 4.46875 -5.515625 C 4.414062 -5.515625 4.378906 -5.519531 4.359375 -5.53125 C 4.222656 -5.570312 4.066406 -5.59375 3.890625 -5.59375 C 3.804688 -5.59375 3.738281 -5.585938 3.6875 -5.578125 C 3.269531 -5.566406 2.921875 -5.421875 2.640625 -5.140625 C 2.367188 -4.867188 2.234375 -4.515625 2.234375 -4.078125 L 2.234375 -0.203125 C 2.234375 -0.140625 2.210938 -0.0859375 2.171875 -0.046875 C 2.140625 -0.015625 2.09375 0 2.03125 0 L 1.140625 0 C 1.078125 0 1.023438 -0.015625 0.984375 -0.046875 C 0.953125 -0.0859375 0.9375 -0.140625 0.9375 -0.203125 L 0.9375 -6.65625 C 0.9375 -6.71875 0.953125 -6.765625 0.984375 -6.796875 C 1.023438 -6.835938 1.078125 -6.859375 1.140625 -6.859375 L 2.03125 -6.859375 C 2.09375 -6.859375 2.140625 -6.835938 2.171875 -6.796875 C 2.210938 -6.765625 2.234375 -6.71875 2.234375 -6.65625 L 2.234375 -6.046875 C 2.234375 -6.003906 2.238281 -5.976562 2.25 -5.96875 C 2.269531 -5.96875 2.289062 -5.984375 2.3125 -6.015625 C 2.707031 -6.628906 3.253906 -6.9375 3.953125 -6.9375 Z M 3.953125 -6.9375" transform="translate(214.27 200.651)"/></g></g></g><g fill="#FFF"><g><g><path d="M 1.703125 -7.890625 C 1.441406 -7.890625 1.226562 -7.96875 1.0625 -8.125 C 0.894531 -8.28125 0.8125 -8.484375 0.8125 -8.734375 C 0.8125 -8.984375 0.894531 -9.1875 1.0625 -9.34375 C 1.226562 -9.507812 1.441406 -9.59375 1.703125 -9.59375 C 1.960938 -9.59375 2.171875 -9.507812 2.328125 -9.34375 C 2.492188 -9.1875 2.578125 -8.984375 2.578125 -8.734375 C 2.578125 -8.484375 2.492188 -8.28125 2.328125 -8.125 C 2.171875 -7.96875 1.960938 -7.890625 1.703125 -7.890625 Z M 1.25 0 C 1.1875 0 1.132812 -0.015625 1.09375 -0.046875 C 1.0625 -0.0859375 1.046875 -0.140625 1.046875 -0.203125 L 1.046875 -6.65625 C 1.046875 -6.71875 1.0625 -6.765625 1.09375 -6.796875 C 1.132812 -6.835938 1.1875 -6.859375 1.25 -6.859375 L 2.140625 -6.859375 C 2.203125 -6.859375 2.25 -6.835938 2.28125 -6.796875 C 2.320312 -6.765625 2.34375 -6.71875 2.34375 -6.65625 L 2.34375 -0.203125 C 2.34375 -0.140625 2.320312 -0.0859375 2.28125 -0.046875 C 2.25 -0.015625 2.203125 0 2.140625 0 Z M 1.25 0" transform="translate(220.322 200.651)"/></g></g></g><g fill="#FFF"><g><g><path d="M 4.328125 -6 C 4.328125 -5.9375 4.304688 -5.882812 4.265625 -5.84375 C 4.234375 -5.8125 4.1875 -5.796875 4.125 -5.796875 L 2.75 -5.796875 C 2.707031 -5.796875 2.6875 -5.773438 2.6875 -5.734375 L 2.6875 -2.21875 C 2.6875 -1.820312 2.769531 -1.539062 2.9375 -1.375 C 3.101562 -1.21875 3.367188 -1.140625 3.734375 -1.140625 L 4.0625 -1.140625 C 4.125 -1.140625 4.171875 -1.117188 4.203125 -1.078125 C 4.242188 -1.046875 4.265625 -1 4.265625 -0.9375 L 4.265625 -0.25 C 4.265625 -0.113281 4.195312 -0.0390625 4.0625 -0.03125 L 3.5 -0.015625 C 2.8125 -0.015625 2.296875 -0.132812 1.953125 -0.375 C 1.609375 -0.613281 1.4375 -1.066406 1.4375 -1.734375 L 1.4375 -5.734375 C 1.4375 -5.773438 1.414062 -5.796875 1.375 -5.796875 L 0.640625 -5.796875 C 0.578125 -5.796875 0.523438 -5.8125 0.484375 -5.84375 C 0.453125 -5.882812 0.4375 -5.9375 0.4375 -6 L 0.4375 -6.65625 C 0.4375 -6.71875 0.453125 -6.765625 0.484375 -6.796875 C 0.523438 -6.835938 0.578125 -6.859375 0.640625 -6.859375 L 1.375 -6.859375 C 1.414062 -6.859375 1.4375 -6.882812 1.4375 -6.9375 L 1.4375 -8.4375 C 1.4375 -8.5 1.453125 -8.546875 1.484375 -8.578125 C 1.523438 -8.617188 1.578125 -8.640625 1.640625 -8.640625 L 2.484375 -8.640625 C 2.546875 -8.640625 2.59375 -8.617188 2.625 -8.578125 C 2.664062 -8.546875 2.6875 -8.5 2.6875 -8.4375 L 2.6875 -6.9375 C 2.6875 -6.882812 2.707031 -6.859375 2.75 -6.859375 L 4.125 -6.859375 C 4.1875 -6.859375 4.234375 -6.835938 4.265625 -6.796875 C 4.304688 -6.765625 4.328125 -6.71875 4.328125 -6.65625 Z M 4.328125 -6" transform="translate(224.757 200.651)"/></g></g></g><g fill="#FFF"><g><g><path d="M 1.703125 -7.890625 C 1.441406 -7.890625 1.226562 -7.96875 1.0625 -8.125 C 0.894531 -8.28125 0.8125 -8.484375 0.8125 -8.734375 C 0.8125 -8.984375 0.894531 -9.1875 1.0625 -9.34375 C 1.226562 -9.507812 1.441406 -9.59375 1.703125 -9.59375 C 1.960938 -9.59375 2.171875 -9.507812 2.328125 -9.34375 C 2.492188 -9.1875 2.578125 -8.984375 2.578125 -8.734375 C 2.578125 -8.484375 2.492188 -8.28125 2.328125 -8.125 C 2.171875 -7.96875 1.960938 -7.890625 1.703125 -7.890625 Z M 1.25 0 C 1.1875 0 1.132812 -0.015625 1.09375 -0.046875 C 1.0625 -0.0859375 1.046875 -0.140625 1.046875 -0.203125 L 1.046875 -6.65625 C 1.046875 -6.71875 1.0625 -6.765625 1.09375 -6.796875 C 1.132812 -6.835938 1.1875 -6.859375 1.25 -6.859375 L 2.140625 -6.859375 C 2.203125 -6.859375 2.25 -6.835938 2.28125 -6.796875 C 2.320312 -6.765625 2.34375 -6.71875 2.34375 -6.65625 L 2.34375 -0.203125 C 2.34375 -0.140625 2.320312 -0.0859375 2.28125 -0.046875 C 2.25 -0.015625 2.203125 0 2.140625 0 Z M 1.25 0" transform="translate(230.781 200.651)"/></g></g></g><g fill="#FFF"><g><g><path d="M 4 -6.953125 C 4.738281 -6.953125 5.320312 -6.738281 5.75 -6.3125 C 6.1875 -5.882812 6.40625 -5.304688 6.40625 -4.578125 L 6.40625 -0.203125 C 6.40625 -0.140625 6.382812 -0.0859375 6.34375 -0.046875 C 6.3125 -0.015625 6.265625 0 6.203125 0 L 5.3125 0 C 5.25 0 5.195312 -0.015625 5.15625 -0.046875 C 5.125 -0.0859375 5.109375 -0.140625 5.109375 -0.203125 L 5.109375 -4.328125 C 5.109375 -4.773438 4.976562 -5.140625 4.71875 -5.421875 C 4.457031 -5.703125 4.113281 -5.84375 3.6875 -5.84375 C 3.289062 -5.84375 2.960938 -5.726562 2.703125 -5.5 C 2.441406 -5.269531 2.285156 -4.960938 2.234375 -4.578125 L 2.234375 -0.203125 C 2.234375 -0.140625 2.210938 -0.0859375 2.171875 -0.046875 C 2.140625 -0.015625 2.09375 0 2.03125 0 L 1.140625 0 C 1.078125 0 1.023438 -0.015625 0.984375 -0.046875 C 0.953125 -0.0859375 0.9375 -0.140625 0.9375 -0.203125 L 0.9375 -6.65625 C 0.9375 -6.71875 0.953125 -6.765625 0.984375 -6.796875 C 1.023438 -6.835938 1.078125 -6.859375 1.140625 -6.859375 L 2.03125 -6.859375 C 2.09375 -6.859375 2.140625 -6.835938 2.171875 -6.796875 C 2.210938 -6.765625 2.234375 -6.71875 2.234375 -6.65625 L 2.234375 -6.28125 C 2.234375 -6.257812 2.242188 -6.242188 2.265625 -6.234375 C 2.285156 -6.222656 2.300781 -6.226562 2.3125 -6.25 C 2.6875 -6.71875 3.25 -6.953125 4 -6.953125 Z M 4 -6.953125" transform="translate(235.216 200.651)"/></g></g></g><g fill="#FFF"><g><g><path d="M 5.171875 -6.65625 C 5.171875 -6.71875 5.1875 -6.765625 5.21875 -6.796875 C 5.25 -6.835938 5.296875 -6.859375 5.359375 -6.859375 L 6.25 -6.859375 C 6.3125 -6.859375 6.359375 -6.835938 6.390625 -6.796875 C 6.429688 -6.765625 6.453125 -6.71875 6.453125 -6.65625 L 6.453125 -0.34375 C 6.453125 0.726562 6.144531 1.5 5.53125 1.96875 C 4.914062 2.445312 4.097656 2.6875 3.078125 2.6875 C 2.929688 2.6875 2.722656 2.675781 2.453125 2.65625 C 2.328125 2.65625 2.265625 2.582031 2.265625 2.4375 L 2.296875 1.640625 C 2.296875 1.578125 2.316406 1.523438 2.359375 1.484375 C 2.398438 1.453125 2.453125 1.441406 2.515625 1.453125 C 2.640625 1.460938 2.816406 1.46875 3.046875 1.46875 C 3.796875 1.46875 4.335938 1.328125 4.671875 1.046875 C 5.003906 0.765625 5.171875 0.285156 5.171875 -0.390625 L 5.171875 -0.625 C 5.171875 -0.644531 5.160156 -0.65625 5.140625 -0.65625 C 5.117188 -0.664062 5.097656 -0.660156 5.078125 -0.640625 C 4.691406 -0.210938 4.144531 0 3.4375 0 C 2.851562 0 2.320312 -0.148438 1.84375 -0.453125 C 1.375 -0.765625 1.050781 -1.21875 0.875 -1.8125 C 0.757812 -2.207031 0.703125 -2.753906 0.703125 -3.453125 C 0.703125 -4.203125 0.769531 -4.773438 0.90625 -5.171875 C 1.070312 -5.710938 1.375 -6.144531 1.8125 -6.46875 C 2.25 -6.800781 2.765625 -6.96875 3.359375 -6.96875 C 4.097656 -6.96875 4.671875 -6.75 5.078125 -6.3125 C 5.097656 -6.28125 5.117188 -6.269531 5.140625 -6.28125 C 5.160156 -6.289062 5.171875 -6.3125 5.171875 -6.34375 Z M 5.078125 -2.203125 C 5.109375 -2.335938 5.128906 -2.488281 5.140625 -2.65625 C 5.160156 -2.820312 5.171875 -3.09375 5.171875 -3.46875 C 5.171875 -3.84375 5.160156 -4.109375 5.140625 -4.265625 C 5.128906 -4.421875 5.101562 -4.570312 5.0625 -4.71875 C 5 -5.050781 4.835938 -5.320312 4.578125 -5.53125 C 4.328125 -5.75 4.015625 -5.859375 3.640625 -5.859375 C 3.265625 -5.859375 2.945312 -5.75 2.6875 -5.53125 C 2.4375 -5.320312 2.257812 -5.050781 2.15625 -4.71875 C 2.0625 -4.445312 2.015625 -4.03125 2.015625 -3.46875 C 2.015625 -2.84375 2.054688 -2.421875 2.140625 -2.203125 C 2.234375 -1.867188 2.410156 -1.59375 2.671875 -1.375 C 2.941406 -1.164062 3.265625 -1.0625 3.640625 -1.0625 C 4.035156 -1.0625 4.351562 -1.164062 4.59375 -1.375 C 4.84375 -1.59375 5.003906 -1.867188 5.078125 -2.203125 Z M 5.078125 -2.203125" transform="translate(243.572 200.651)"/></g></g></g><g fill="#FFF"><g><g><path d="M 4.015625 0.109375 C 3.335938 0.109375 2.75 0 2.25 -0.21875 C 1.75 -0.4375 1.359375 -0.738281 1.078125 -1.125 C 0.804688 -1.519531 0.671875 -1.984375 0.671875 -2.515625 L 0.671875 -2.84375 C 0.671875 -2.90625 0.6875 -2.953125 0.71875 -2.984375 C 0.757812 -3.023438 0.8125 -3.046875 0.875 -3.046875 L 1.734375 -3.046875 C 1.796875 -3.046875 1.84375 -3.023438 1.875 -2.984375 C 1.914062 -2.953125 1.9375 -2.90625 1.9375 -2.84375 L 1.9375 -2.59375 C 1.9375 -2.132812 2.132812 -1.753906 2.53125 -1.453125 C 2.925781 -1.160156 3.453125 -1.015625 4.109375 -1.015625 C 4.734375 -1.015625 5.203125 -1.144531 5.515625 -1.40625 C 5.828125 -1.664062 5.984375 -2.003906 5.984375 -2.421875 C 5.984375 -2.703125 5.898438 -2.941406 5.734375 -3.140625 C 5.578125 -3.335938 5.34375 -3.519531 5.03125 -3.6875 C 4.726562 -3.851562 4.28125 -4.050781 3.6875 -4.28125 C 3.03125 -4.539062 2.507812 -4.769531 2.125 -4.96875 C 1.738281 -5.175781 1.421875 -5.445312 1.171875 -5.78125 C 0.921875 -6.125 0.796875 -6.550781 0.796875 -7.0625 C 0.796875 -7.832031 1.070312 -8.4375 1.625 -8.875 C 2.175781 -9.320312 2.925781 -9.546875 3.875 -9.546875 C 4.539062 -9.546875 5.125 -9.429688 5.625 -9.203125 C 6.125 -8.984375 6.507812 -8.671875 6.78125 -8.265625 C 7.0625 -7.859375 7.203125 -7.390625 7.203125 -6.859375 L 7.203125 -6.65625 C 7.203125 -6.59375 7.179688 -6.539062 7.140625 -6.5 C 7.109375 -6.46875 7.0625 -6.453125 7 -6.453125 L 6.125 -6.453125 C 6.0625 -6.453125 6.007812 -6.46875 5.96875 -6.5 C 5.9375 -6.53125 5.921875 -6.578125 5.921875 -6.640625 L 5.921875 -6.796875 C 5.921875 -7.265625 5.734375 -7.648438 5.359375 -7.953125 C 4.984375 -8.265625 4.46875 -8.421875 3.8125 -8.421875 C 3.257812 -8.421875 2.828125 -8.304688 2.515625 -8.078125 C 2.210938 -7.847656 2.0625 -7.519531 2.0625 -7.09375 C 2.0625 -6.789062 2.132812 -6.546875 2.28125 -6.359375 C 2.4375 -6.171875 2.664062 -6.003906 2.96875 -5.859375 C 3.269531 -5.710938 3.734375 -5.519531 4.359375 -5.28125 C 4.992188 -5.03125 5.507812 -4.800781 5.90625 -4.59375 C 6.300781 -4.382812 6.628906 -4.101562 6.890625 -3.75 C 7.148438 -3.40625 7.28125 -2.976562 7.28125 -2.46875 C 7.28125 -1.957031 7.148438 -1.507812 6.890625 -1.125 C 6.628906 -0.738281 6.25 -0.4375 5.75 -0.21875 C 5.257812 0 4.679688 0.109375 4.015625 0.109375 Z M 4.015625 0.109375" transform="translate(255.69 200.651)"/></g></g></g><g fill="#FFF"><g><g><path d="M 3.765625 0.109375 C 3.085938 0.109375 2.503906 -0.0546875 2.015625 -0.390625 C 1.523438 -0.734375 1.179688 -1.207031 0.984375 -1.8125 C 0.816406 -2.289062 0.734375 -2.835938 0.734375 -3.453125 C 0.734375 -4.085938 0.8125 -4.625 0.96875 -5.0625 C 1.164062 -5.65625 1.507812 -6.117188 2 -6.453125 C 2.5 -6.796875 3.09375 -6.96875 3.78125 -6.96875 C 4.425781 -6.96875 4.988281 -6.796875 5.46875 -6.453125 C 5.945312 -6.117188 6.289062 -5.660156 6.5 -5.078125 C 6.664062 -4.617188 6.75 -4.082031 6.75 -3.46875 C 6.75 -2.832031 6.664062 -2.28125 6.5 -1.8125 C 6.300781 -1.207031 5.957031 -0.734375 5.46875 -0.390625 C 4.988281 -0.0546875 4.421875 0.109375 3.765625 0.109375 Z M 3.765625 -1.015625 C 4.117188 -1.015625 4.429688 -1.113281 4.703125 -1.3125 C 4.972656 -1.519531 5.164062 -1.804688 5.28125 -2.171875 C 5.382812 -2.515625 5.4375 -2.9375 5.4375 -3.4375 C 5.4375 -3.9375 5.390625 -4.351562 5.296875 -4.6875 C 5.179688 -5.0625 4.988281 -5.347656 4.71875 -5.546875 C 4.445312 -5.753906 4.117188 -5.859375 3.734375 -5.859375 C 3.367188 -5.859375 3.050781 -5.753906 2.78125 -5.546875 C 2.507812 -5.347656 2.316406 -5.0625 2.203125 -4.6875 C 2.097656 -4.375 2.046875 -3.957031 2.046875 -3.4375 C 2.046875 -2.914062 2.097656 -2.492188 2.203125 -2.171875 C 2.304688 -1.804688 2.492188 -1.519531 2.765625 -1.3125 C 3.046875 -1.113281 3.378906 -1.015625 3.765625 -1.015625 Z M 3.765625 -1.015625" transform="translate(264.665 200.651)"/></g></g></g><g fill="#FFF"><g><g><path d="M 1.15625 0 C 1.09375 0 1.039062 -0.015625 1 -0.046875 C 0.96875 -0.0859375 0.953125 -0.140625 0.953125 -0.203125 L 0.953125 -9.234375 C 0.953125 -9.296875 0.96875 -9.34375 1 -9.375 C 1.039062 -9.414062 1.09375 -9.4375 1.15625 -9.4375 L 2.046875 -9.4375 C 2.109375 -9.4375 2.15625 -9.414062 2.1875 -9.375 C 2.226562 -9.34375 2.25 -9.296875 2.25 -9.234375 L 2.25 -0.203125 C 2.25 -0.140625 2.226562 -0.0859375 2.1875 -0.046875 C 2.15625 -0.015625 2.109375 0 2.046875 0 Z M 1.15625 0" transform="translate(273.197 200.651)"/></g></g></g><g fill="#FFF"><g><g><path d="M 5.03125 -6.65625 C 5.03125 -6.71875 5.046875 -6.765625 5.078125 -6.796875 C 5.117188 -6.835938 5.171875 -6.859375 5.234375 -6.859375 L 6.109375 -6.859375 C 6.171875 -6.859375 6.21875 -6.835938 6.25 -6.796875 C 6.289062 -6.765625 6.3125 -6.71875 6.3125 -6.65625 L 6.3125 -0.203125 C 6.3125 -0.140625 6.289062 -0.0859375 6.25 -0.046875 C 6.21875 -0.015625 6.171875 0 6.109375 0 L 5.234375 0 C 5.171875 0 5.117188 -0.015625 5.078125 -0.046875 C 5.046875 -0.0859375 5.03125 -0.140625 5.03125 -0.203125 L 5.03125 -0.609375 C 5.03125 -0.628906 5.019531 -0.640625 5 -0.640625 C 4.976562 -0.648438 4.960938 -0.648438 4.953125 -0.640625 C 4.585938 -0.148438 4.035156 0.09375 3.296875 0.09375 C 2.859375 0.09375 2.453125 0.0078125 2.078125 -0.15625 C 1.710938 -0.332031 1.414062 -0.585938 1.1875 -0.921875 C 0.957031 -1.253906 0.84375 -1.65625 0.84375 -2.125 L 0.84375 -6.65625 C 0.84375 -6.71875 0.859375 -6.765625 0.890625 -6.796875 C 0.929688 -6.835938 0.984375 -6.859375 1.046875 -6.859375 L 1.921875 -6.859375 C 1.984375 -6.859375 2.03125 -6.835938 2.0625 -6.796875 C 2.101562 -6.765625 2.125 -6.71875 2.125 -6.65625 L 2.125 -2.53125 C 2.125 -2.0625 2.25 -1.691406 2.5 -1.421875 C 2.75 -1.160156 3.097656 -1.03125 3.546875 -1.03125 C 3.992188 -1.03125 4.351562 -1.164062 4.625 -1.4375 C 4.894531 -1.707031 5.03125 -2.070312 5.03125 -2.53125 Z M 5.03125 -6.65625" transform="translate(277.456 200.651)"/></g></g></g><g fill="#FFF"><g><g><path d="M 4.328125 -6 C 4.328125 -5.9375 4.304688 -5.882812 4.265625 -5.84375 C 4.234375 -5.8125 4.1875 -5.796875 4.125 -5.796875 L 2.75 -5.796875 C 2.707031 -5.796875 2.6875 -5.773438 2.6875 -5.734375 L 2.6875 -2.21875 C 2.6875 -1.820312 2.769531 -1.539062 2.9375 -1.375 C 3.101562 -1.21875 3.367188 -1.140625 3.734375 -1.140625 L 4.0625 -1.140625 C 4.125 -1.140625 4.171875 -1.117188 4.203125 -1.078125 C 4.242188 -1.046875 4.265625 -1 4.265625 -0.9375 L 4.265625 -0.25 C 4.265625 -0.113281 4.195312 -0.0390625 4.0625 -0.03125 L 3.5 -0.015625 C 2.8125 -0.015625 2.296875 -0.132812 1.953125 -0.375 C 1.609375 -0.613281 1.4375 -1.066406 1.4375 -1.734375 L 1.4375 -5.734375 C 1.4375 -5.773438 1.414062 -5.796875 1.375 -5.796875 L 0.640625 -5.796875 C 0.578125 -5.796875 0.523438 -5.8125 0.484375 -5.84375 C 0.453125 -5.882812 0.4375 -5.9375 0.4375 -6 L 0.4375 -6.65625 C 0.4375 -6.71875 0.453125 -6.765625 0.484375 -6.796875 C 0.523438 -6.835938 0.578125 -6.859375 0.640625 -6.859375 L 1.375 -6.859375 C 1.414062 -6.859375 1.4375 -6.882812 1.4375 -6.9375 L 1.4375 -8.4375 C 1.4375 -8.5 1.453125 -8.546875 1.484375 -8.578125 C 1.523438 -8.617188 1.578125 -8.640625 1.640625 -8.640625 L 2.484375 -8.640625 C 2.546875 -8.640625 2.59375 -8.617188 2.625 -8.578125 C 2.664062 -8.546875 2.6875 -8.5 2.6875 -8.4375 L 2.6875 -6.9375 C 2.6875 -6.882812 2.707031 -6.859375 2.75 -6.859375 L 4.125 -6.859375 C 4.1875 -6.859375 4.234375 -6.835938 4.265625 -6.796875 C 4.304688 -6.765625 4.328125 -6.71875 4.328125 -6.65625 Z M 4.328125 -6" transform="translate(285.759 200.651)"/></g></g></g><g fill="#FFF"><g><g><path d="M 1.703125 -7.890625 C 1.441406 -7.890625 1.226562 -7.96875 1.0625 -8.125 C 0.894531 -8.28125 0.8125 -8.484375 0.8125 -8.734375 C 0.8125 -8.984375 0.894531 -9.1875 1.0625 -9.34375 C 1.226562 -9.507812 1.441406 -9.59375 1.703125 -9.59375 C 1.960938 -9.59375 2.171875 -9.507812 2.328125 -9.34375 C 2.492188 -9.1875 2.578125 -8.984375 2.578125 -8.734375 C 2.578125 -8.484375 2.492188 -8.28125 2.328125 -8.125 C 2.171875 -7.96875 1.960938 -7.890625 1.703125 -7.890625 Z M 1.25 0 C 1.1875 0 1.132812 -0.015625 1.09375 -0.046875 C 1.0625 -0.0859375 1.046875 -0.140625 1.046875 -0.203125 L 1.046875 -6.65625 C 1.046875 -6.71875 1.0625 -6.765625 1.09375 -6.796875 C 1.132812 -6.835938 1.1875 -6.859375 1.25 -6.859375 L 2.140625 -6.859375 C 2.203125 -6.859375 2.25 -6.835938 2.28125 -6.796875 C 2.320312 -6.765625 2.34375 -6.71875 2.34375 -6.65625 L 2.34375 -0.203125 C 2.34375 -0.140625 2.320312 -0.0859375 2.28125 -0.046875 C 2.25 -0.015625 2.203125 0 2.140625 0 Z M 1.25 0" transform="translate(291.783 200.651)"/></g></g></g><g fill="#FFF"><g><g><path d="M 3.765625 0.109375 C 3.085938 0.109375 2.503906 -0.0546875 2.015625 -0.390625 C 1.523438 -0.734375 1.179688 -1.207031 0.984375 -1.8125 C 0.816406 -2.289062 0.734375 -2.835938 0.734375 -3.453125 C 0.734375 -4.085938 0.8125 -4.625 0.96875 -5.0625 C 1.164062 -5.65625 1.507812 -6.117188 2 -6.453125 C 2.5 -6.796875 3.09375 -6.96875 3.78125 -6.96875 C 4.425781 -6.96875 4.988281 -6.796875 5.46875 -6.453125 C 5.945312 -6.117188 6.289062 -5.660156 6.5 -5.078125 C 6.664062 -4.617188 6.75 -4.082031 6.75 -3.46875 C 6.75 -2.832031 6.664062 -2.28125 6.5 -1.8125 C 6.300781 -1.207031 5.957031 -0.734375 5.46875 -0.390625 C 4.988281 -0.0546875 4.421875 0.109375 3.765625 0.109375 Z M 3.765625 -1.015625 C 4.117188 -1.015625 4.429688 -1.113281 4.703125 -1.3125 C 4.972656 -1.519531 5.164062 -1.804688 5.28125 -2.171875 C 5.382812 -2.515625 5.4375 -2.9375 5.4375 -3.4375 C 5.4375 -3.9375 5.390625 -4.351562 5.296875 -4.6875 C 5.179688 -5.0625 4.988281 -5.347656 4.71875 -5.546875 C 4.445312 -5.753906 4.117188 -5.859375 3.734375 -5.859375 C 3.367188 -5.859375 3.050781 -5.753906 2.78125 -5.546875 C 2.507812 -5.347656 2.316406 -5.0625 2.203125 -4.6875 C 2.097656 -4.375 2.046875 -3.957031 2.046875 -3.4375 C 2.046875 -2.914062 2.097656 -2.492188 2.203125 -2.171875 C 2.304688 -1.804688 2.492188 -1.519531 2.765625 -1.3125 C 3.046875 -1.113281 3.378906 -1.015625 3.765625 -1.015625 Z M 3.765625 -1.015625" transform="translate(296.218 200.651)"/></g></g></g><g fill="#FFF"><g><g><path d="M 4 -6.953125 C 4.738281 -6.953125 5.320312 -6.738281 5.75 -6.3125 C 6.1875 -5.882812 6.40625 -5.304688 6.40625 -4.578125 L 6.40625 -0.203125 C 6.40625 -0.140625 6.382812 -0.0859375 6.34375 -0.046875 C 6.3125 -0.015625 6.265625 0 6.203125 0 L 5.3125 0 C 5.25 0 5.195312 -0.015625 5.15625 -0.046875 C 5.125 -0.0859375 5.109375 -0.140625 5.109375 -0.203125 L 5.109375 -4.328125 C 5.109375 -4.773438 4.976562 -5.140625 4.71875 -5.421875 C 4.457031 -5.703125 4.113281 -5.84375 3.6875 -5.84375 C 3.289062 -5.84375 2.960938 -5.726562 2.703125 -5.5 C 2.441406 -5.269531 2.285156 -4.960938 2.234375 -4.578125 L 2.234375 -0.203125 C 2.234375 -0.140625 2.210938 -0.0859375 2.171875 -0.046875 C 2.140625 -0.015625 2.09375 0 2.03125 0 L 1.140625 0 C 1.078125 0 1.023438 -0.015625 0.984375 -0.046875 C 0.953125 -0.0859375 0.9375 -0.140625 0.9375 -0.203125 L 0.9375 -6.65625 C 0.9375 -6.71875 0.953125 -6.765625 0.984375 -6.796875 C 1.023438 -6.835938 1.078125 -6.859375 1.140625 -6.859375 L 2.03125 -6.859375 C 2.09375 -6.859375 2.140625 -6.835938 2.171875 -6.796875 C 2.210938 -6.765625 2.234375 -6.71875 2.234375 -6.65625 L 2.234375 -6.28125 C 2.234375 -6.257812 2.242188 -6.242188 2.265625 -6.234375 C 2.285156 -6.222656 2.300781 -6.226562 2.3125 -6.25 C 2.6875 -6.71875 3.25 -6.953125 4 -6.953125 Z M 4 -6.953125" transform="translate(304.75 200.651)"/></g></g></g></svg>