<svg xmlns="http://www.w3.org/2000/svg" width="150" viewBox="0 0 150 75" height="75" version="1.0"><defs><clipPath id="a"><path d="M 3.75 18.773438 L 36 18.773438 L 36 56.273438 L 3.75 56.273438 Z M 3.75 18.773438"/></clipPath></defs><g clip-path="url(#a)"><path fill="#FFF" d="M 4.191406 28.25 C 3.898438 28.433594 3.75 28.695312 3.75 29.039062 L 3.75 46.429688 C 3.75 46.78125 3.902344 47.046875 4.207031 47.226562 L 19.316406 56.132812 C 19.628906 56.3125 19.941406 56.3125 20.257812 56.132812 L 35.507812 47.222656 C 35.8125 47.046875 35.96875 46.777344 35.96875 46.425781 L 35.996094 29.035156 C 35.996094 28.6875 35.847656 28.421875 35.550781 28.238281 L 20.273438 18.917969 C 19.949219 18.714844 19.621094 18.714844 19.296875 18.917969 Z M 19.789062 20.804688 L 34.136719 29.558594 L 34.109375 45.894531 L 19.789062 54.253906 L 5.613281 45.898438 L 5.613281 29.558594 Z M 19.789062 20.804688"/></g><path fill="#FFF" d="M 7.699219 45.167969 C 11.105469 47.117188 15.125 49.421875 19.136719 51.742188 C 19.636719 52.027344 20.054688 52.027344 20.542969 51.742188 C 21.75 51.039062 22.960938 50.335938 24.171875 49.632812 C 26.75 48.140625 29.414062 46.597656 32.015625 45.050781 C 32.273438 44.894531 32.480469 44.40625 32.511719 44.042969 C 32.558594 43.480469 32.550781 42.902344 32.542969 42.34375 C 32.539062 41.945312 32.535156 41.539062 32.542969 41.132812 C 32.558594 40.753906 32.441406 40.558594 32.09375 40.355469 C 30.769531 39.589844 29.453125 38.816406 28.140625 38.035156 C 27.089844 37.414062 26.039062 36.796875 24.988281 36.179688 C 23.523438 35.324219 22.054688 34.476562 20.570312 33.625 L 18.457031 32.410156 L 18.617188 32.257812 C 19.332031 31.566406 19.960938 31.488281 20.78125 31.976562 C 24.3125 34.09375 27.925781 36.152344 31.039062 37.910156 C 31.386719 38.105469 31.921875 38.1875 32.105469 38.074219 C 32.378906 37.894531 32.582031 37.363281 32.589844 37 C 32.621094 35.996094 32.617188 34.96875 32.613281 33.976562 C 32.613281 33.050781 32.605469 32.097656 32.628906 31.160156 C 32.648438 30.492188 32.398438 30.085938 31.773438 29.753906 C 31.007812 29.347656 30.242188 28.90625 29.503906 28.480469 L 27.648438 27.417969 C 25.230469 26.039062 22.820312 24.652344 20.410156 23.265625 C 20 23.03125 19.679688 23.027344 19.285156 23.253906 C 17.992188 24.007812 16.695312 24.761719 15.398438 25.511719 C 12.886719 26.972656 10.292969 28.476562 7.753906 29.980469 C 7.4375 30.203125 7.25 30.503906 7.191406 30.882812 C 7.121094 31.921875 7.121094 32.960938 7.191406 33.996094 C 7.226562 34.269531 7.351562 34.492188 7.574219 34.65625 C 8.945312 35.527344 10.367188 36.359375 11.574219 37.058594 C 13.910156 38.410156 16.25 39.761719 18.59375 41.109375 L 21.269531 42.652344 L 21.101562 42.804688 C 20.523438 43.335938 19.859375 43.734375 18.957031 43.097656 C 18.359375 42.695312 17.742188 42.320312 17.105469 41.980469 C 16.851562 41.839844 16.59375 41.695312 16.339844 41.550781 L 14.679688 40.589844 C 12.726562 39.453125 10.707031 38.28125 8.695312 37.164062 C 8.453125 37.042969 8.199219 36.980469 7.925781 36.980469 C 7.785156 36.972656 7.652344 37 7.527344 37.054688 C 7.316406 37.160156 7.144531 37.691406 7.132812 38.066406 C 7.109375 39.214844 7.113281 40.375 7.121094 41.5 C 7.121094 42.375 7.125 43.253906 7.121094 44.128906 C 7.109375 44.628906 7.28125 44.929688 7.699219 45.167969 Z M 7.699219 45.167969"/><g fill="#FFF"><g><g><path d="M 4.390625 0.125 C 3.597656 0.125 2.894531 -0.0078125 2.28125 -0.28125 C 1.675781 -0.550781 1.207031 -0.9375 0.875 -1.4375 C 0.539062 -1.9375 0.375 -2.515625 0.375 -3.171875 L 0.375 -3.3125 C 0.375 -3.5 0.46875 -3.59375 0.65625 -3.59375 L 2.8125 -3.59375 C 3 -3.59375 3.09375 -3.546875 3.09375 -3.453125 L 3.09375 -3.296875 C 3.09375 -3.023438 3.234375 -2.78125 3.515625 -2.5625 C 3.804688 -2.351562 4.164062 -2.25 4.59375 -2.25 C 4.957031 -2.25 5.21875 -2.320312 5.375 -2.46875 C 5.53125 -2.625 5.609375 -2.796875 5.609375 -2.984375 C 5.609375 -3.203125 5.507812 -3.363281 5.3125 -3.46875 C 5.113281 -3.570312 4.757812 -3.703125 4.25 -3.859375 L 3.8125 -3.984375 C 2.84375 -4.273438 2.03125 -4.664062 1.375 -5.15625 C 0.71875 -5.644531 0.390625 -6.351562 0.390625 -7.28125 C 0.390625 -7.894531 0.554688 -8.441406 0.890625 -8.921875 C 1.222656 -9.398438 1.679688 -9.765625 2.265625 -10.015625 C 2.847656 -10.273438 3.503906 -10.40625 4.234375 -10.40625 C 4.992188 -10.40625 5.679688 -10.257812 6.296875 -9.96875 C 6.921875 -9.6875 7.410156 -9.285156 7.765625 -8.765625 C 8.128906 -8.242188 8.3125 -7.648438 8.3125 -6.984375 L 8.3125 -6.921875 C 8.3125 -6.734375 8.21875 -6.640625 8.03125 -6.640625 L 5.875 -6.640625 C 5.6875 -6.640625 5.59375 -6.675781 5.59375 -6.75 L 5.59375 -6.875 C 5.59375 -7.164062 5.457031 -7.429688 5.1875 -7.671875 C 4.925781 -7.910156 4.570312 -8.03125 4.125 -8.03125 C 3.8125 -8.03125 3.5625 -7.96875 3.375 -7.84375 C 3.195312 -7.71875 3.109375 -7.539062 3.109375 -7.3125 C 3.109375 -7.132812 3.175781 -6.984375 3.3125 -6.859375 C 3.445312 -6.742188 3.648438 -6.628906 3.921875 -6.515625 C 4.191406 -6.398438 4.613281 -6.253906 5.1875 -6.078125 C 5.257812 -6.046875 5.601562 -5.941406 6.21875 -5.765625 C 6.832031 -5.585938 7.34375 -5.257812 7.75 -4.78125 C 8.164062 -4.300781 8.375 -3.726562 8.375 -3.0625 C 8.375 -2.414062 8.207031 -1.851562 7.875 -1.375 C 7.539062 -0.894531 7.070312 -0.523438 6.46875 -0.265625 C 5.863281 -0.00390625 5.171875 0.125 4.390625 0.125 Z M 4.390625 0.125" transform="translate(37.222 43.402)"/></g></g></g><g fill="#FFF"><g><g><path d="M 8.015625 -8.203125 C 8.015625 -8.015625 7.921875 -7.921875 7.734375 -7.921875 L 3.453125 -7.921875 C 3.367188 -7.921875 3.328125 -7.878906 3.328125 -7.796875 L 3.328125 -6.5 C 3.328125 -6.425781 3.367188 -6.390625 3.453125 -6.390625 L 6.0625 -6.390625 C 6.25 -6.390625 6.34375 -6.296875 6.34375 -6.109375 L 6.34375 -4.3125 C 6.34375 -4.132812 6.25 -4.046875 6.0625 -4.046875 L 3.453125 -4.046875 C 3.367188 -4.046875 3.328125 -4.003906 3.328125 -3.921875 L 3.328125 -2.484375 C 3.328125 -2.398438 3.367188 -2.359375 3.453125 -2.359375 L 7.734375 -2.359375 C 7.921875 -2.359375 8.015625 -2.265625 8.015625 -2.078125 L 8.015625 -0.28125 C 8.015625 -0.09375 7.921875 0 7.734375 0 L 0.859375 0 C 0.671875 0 0.578125 -0.09375 0.578125 -0.28125 L 0.578125 -10 C 0.578125 -10.1875 0.671875 -10.28125 0.859375 -10.28125 L 7.734375 -10.28125 C 7.921875 -10.28125 8.015625 -10.1875 8.015625 -10 Z M 8.015625 -8.203125" transform="translate(46.98 43.402)"/></g></g></g><g fill="#FFF"><g><g><path d="M 7.5 0 C 7.332031 0 7.234375 -0.078125 7.203125 -0.234375 L 6.90625 -1.296875 C 6.882812 -1.359375 6.835938 -1.390625 6.765625 -1.390625 L 3.71875 -1.390625 C 3.644531 -1.390625 3.597656 -1.359375 3.578125 -1.296875 L 3.296875 -0.234375 C 3.253906 -0.078125 3.148438 0 2.984375 0 L 0.609375 0 C 0.503906 0 0.429688 -0.0234375 0.390625 -0.078125 C 0.347656 -0.140625 0.34375 -0.222656 0.375 -0.328125 L 3.421875 -10.046875 C 3.472656 -10.203125 3.578125 -10.28125 3.734375 -10.28125 L 6.75 -10.28125 C 6.90625 -10.28125 7.007812 -10.203125 7.0625 -10.046875 L 10.125 -0.328125 C 10.132812 -0.296875 10.140625 -0.257812 10.140625 -0.21875 C 10.140625 -0.0703125 10.054688 0 9.890625 0 Z M 4.234375 -3.609375 C 4.234375 -3.546875 4.265625 -3.515625 4.328125 -3.515625 L 6.15625 -3.515625 C 6.195312 -3.515625 6.222656 -3.523438 6.234375 -3.546875 C 6.253906 -3.566406 6.257812 -3.597656 6.25 -3.640625 L 5.3125 -7.03125 C 5.300781 -7.082031 5.28125 -7.109375 5.25 -7.109375 C 5.21875 -7.109375 5.191406 -7.082031 5.171875 -7.03125 L 4.234375 -3.640625 Z M 4.234375 -3.609375" transform="translate(56.34 43.402)"/></g></g></g><g fill="#FFF"><g><g><path d="M 0.859375 0 C 0.671875 0 0.578125 -0.09375 0.578125 -0.28125 L 0.578125 -10 C 0.578125 -10.1875 0.671875 -10.28125 0.859375 -10.28125 L 3.046875 -10.28125 C 3.203125 -10.28125 3.3125 -10.21875 3.375 -10.09375 L 5.15625 -7.203125 C 5.175781 -7.160156 5.203125 -7.140625 5.234375 -7.140625 C 5.273438 -7.140625 5.304688 -7.160156 5.328125 -7.203125 L 7.109375 -10.09375 C 7.179688 -10.21875 7.296875 -10.28125 7.453125 -10.28125 L 9.640625 -10.28125 C 9.828125 -10.28125 9.921875 -10.1875 9.921875 -10 L 9.921875 -0.28125 C 9.921875 -0.09375 9.828125 0 9.640625 0 L 7.4375 0 C 7.25 0 7.15625 -0.09375 7.15625 -0.28125 L 7.15625 -5.46875 C 7.15625 -5.519531 7.132812 -5.550781 7.09375 -5.5625 C 7.0625 -5.570312 7.03125 -5.554688 7 -5.515625 L 6.09375 -4 C 6.03125 -3.863281 5.914062 -3.796875 5.75 -3.796875 L 4.734375 -3.796875 C 4.578125 -3.796875 4.460938 -3.863281 4.390625 -4 L 3.484375 -5.515625 C 3.453125 -5.546875 3.421875 -5.5625 3.390625 -5.5625 C 3.347656 -5.5625 3.328125 -5.53125 3.328125 -5.46875 L 3.328125 -0.28125 C 3.328125 -0.09375 3.238281 0 3.0625 0 Z M 0.859375 0" transform="translate(67.816 43.402)"/></g></g></g><g fill="#FFF"><g><g><path d="M 4.390625 0.125 C 3.597656 0.125 2.894531 -0.0078125 2.28125 -0.28125 C 1.675781 -0.550781 1.207031 -0.9375 0.875 -1.4375 C 0.539062 -1.9375 0.375 -2.515625 0.375 -3.171875 L 0.375 -3.3125 C 0.375 -3.5 0.46875 -3.59375 0.65625 -3.59375 L 2.8125 -3.59375 C 3 -3.59375 3.09375 -3.546875 3.09375 -3.453125 L 3.09375 -3.296875 C 3.09375 -3.023438 3.234375 -2.78125 3.515625 -2.5625 C 3.804688 -2.351562 4.164062 -2.25 4.59375 -2.25 C 4.957031 -2.25 5.21875 -2.320312 5.375 -2.46875 C 5.53125 -2.625 5.609375 -2.796875 5.609375 -2.984375 C 5.609375 -3.203125 5.507812 -3.363281 5.3125 -3.46875 C 5.113281 -3.570312 4.757812 -3.703125 4.25 -3.859375 L 3.8125 -3.984375 C 2.84375 -4.273438 2.03125 -4.664062 1.375 -5.15625 C 0.71875 -5.644531 0.390625 -6.351562 0.390625 -7.28125 C 0.390625 -7.894531 0.554688 -8.441406 0.890625 -8.921875 C 1.222656 -9.398438 1.679688 -9.765625 2.265625 -10.015625 C 2.847656 -10.273438 3.503906 -10.40625 4.234375 -10.40625 C 4.992188 -10.40625 5.679688 -10.257812 6.296875 -9.96875 C 6.921875 -9.6875 7.410156 -9.285156 7.765625 -8.765625 C 8.128906 -8.242188 8.3125 -7.648438 8.3125 -6.984375 L 8.3125 -6.921875 C 8.3125 -6.734375 8.21875 -6.640625 8.03125 -6.640625 L 5.875 -6.640625 C 5.6875 -6.640625 5.59375 -6.675781 5.59375 -6.75 L 5.59375 -6.875 C 5.59375 -7.164062 5.457031 -7.429688 5.1875 -7.671875 C 4.925781 -7.910156 4.570312 -8.03125 4.125 -8.03125 C 3.8125 -8.03125 3.5625 -7.96875 3.375 -7.84375 C 3.195312 -7.71875 3.109375 -7.539062 3.109375 -7.3125 C 3.109375 -7.132812 3.175781 -6.984375 3.3125 -6.859375 C 3.445312 -6.742188 3.648438 -6.628906 3.921875 -6.515625 C 4.191406 -6.398438 4.613281 -6.253906 5.1875 -6.078125 C 5.257812 -6.046875 5.601562 -5.941406 6.21875 -5.765625 C 6.832031 -5.585938 7.34375 -5.257812 7.75 -4.78125 C 8.164062 -4.300781 8.375 -3.726562 8.375 -3.0625 C 8.375 -2.414062 8.207031 -1.851562 7.875 -1.375 C 7.539062 -0.894531 7.070312 -0.523438 6.46875 -0.265625 C 5.863281 -0.00390625 5.171875 0.125 4.390625 0.125 Z M 4.390625 0.125" transform="translate(79.292 43.402)"/></g></g></g><g fill="#FFF"><g><g><path d="M 8.203125 -10.28125 C 8.378906 -10.28125 8.46875 -10.1875 8.46875 -10 L 8.46875 -8.1875 C 8.46875 -8 8.378906 -7.90625 8.203125 -7.90625 L 5.828125 -7.90625 C 5.753906 -7.90625 5.71875 -7.863281 5.71875 -7.78125 L 5.71875 -0.28125 C 5.71875 -0.09375 5.625 0 5.4375 0 L 3.234375 0 C 3.046875 0 2.953125 -0.09375 2.953125 -0.28125 L 2.953125 -7.78125 C 2.953125 -7.863281 2.910156 -7.90625 2.828125 -7.90625 L 0.546875 -7.90625 C 0.359375 -7.90625 0.265625 -8 0.265625 -8.1875 L 0.265625 -10 C 0.265625 -10.1875 0.359375 -10.28125 0.546875 -10.28125 Z M 8.203125 -10.28125" transform="translate(89.05 43.402)"/></g></g></g><g fill="#FFF"><g><g><path d="M 6.03125 0 C 5.875 0 5.769531 -0.0664062 5.71875 -0.203125 L 4.125 -3.859375 C 4.101562 -3.921875 4.054688 -3.953125 3.984375 -3.953125 L 3.453125 -3.953125 C 3.367188 -3.953125 3.328125 -3.910156 3.328125 -3.828125 L 3.328125 -0.28125 C 3.328125 -0.09375 3.238281 0 3.0625 0 L 0.859375 0 C 0.671875 0 0.578125 -0.09375 0.578125 -0.28125 L 0.578125 -10 C 0.578125 -10.1875 0.671875 -10.28125 0.859375 -10.28125 L 5.25 -10.28125 C 5.914062 -10.28125 6.5 -10.140625 7 -9.859375 C 7.5 -9.585938 7.890625 -9.203125 8.171875 -8.703125 C 8.453125 -8.210938 8.59375 -7.644531 8.59375 -7 C 8.59375 -6.363281 8.4375 -5.804688 8.125 -5.328125 C 7.820312 -4.847656 7.394531 -4.492188 6.84375 -4.265625 C 6.769531 -4.234375 6.75 -4.179688 6.78125 -4.109375 L 8.578125 -0.328125 C 8.597656 -0.285156 8.609375 -0.234375 8.609375 -0.171875 C 8.609375 -0.0546875 8.53125 0 8.375 0 Z M 3.453125 -7.921875 C 3.367188 -7.921875 3.328125 -7.878906 3.328125 -7.796875 L 3.328125 -6.171875 C 3.328125 -6.085938 3.367188 -6.046875 3.453125 -6.046875 L 4.78125 -6.046875 C 5.101562 -6.046875 5.359375 -6.128906 5.546875 -6.296875 C 5.742188 -6.472656 5.84375 -6.703125 5.84375 -6.984375 C 5.84375 -7.265625 5.742188 -7.488281 5.546875 -7.65625 C 5.359375 -7.832031 5.101562 -7.921875 4.78125 -7.921875 Z M 3.453125 -7.921875" transform="translate(98.777 43.402)"/></g></g></g><g fill="#FFF"><g><g><path d="M 8.015625 -8.203125 C 8.015625 -8.015625 7.921875 -7.921875 7.734375 -7.921875 L 3.453125 -7.921875 C 3.367188 -7.921875 3.328125 -7.878906 3.328125 -7.796875 L 3.328125 -6.5 C 3.328125 -6.425781 3.367188 -6.390625 3.453125 -6.390625 L 6.0625 -6.390625 C 6.25 -6.390625 6.34375 -6.296875 6.34375 -6.109375 L 6.34375 -4.3125 C 6.34375 -4.132812 6.25 -4.046875 6.0625 -4.046875 L 3.453125 -4.046875 C 3.367188 -4.046875 3.328125 -4.003906 3.328125 -3.921875 L 3.328125 -2.484375 C 3.328125 -2.398438 3.367188 -2.359375 3.453125 -2.359375 L 7.734375 -2.359375 C 7.921875 -2.359375 8.015625 -2.265625 8.015625 -2.078125 L 8.015625 -0.28125 C 8.015625 -0.09375 7.921875 0 7.734375 0 L 0.859375 0 C 0.671875 0 0.578125 -0.09375 0.578125 -0.28125 L 0.578125 -10 C 0.578125 -10.1875 0.671875 -10.28125 0.859375 -10.28125 L 7.734375 -10.28125 C 7.921875 -10.28125 8.015625 -10.1875 8.015625 -10 Z M 8.015625 -8.203125" transform="translate(108.799 43.402)"/></g></g></g><g fill="#FFF"><g><g><path d="M 4.390625 0.125 C 3.597656 0.125 2.894531 -0.0078125 2.28125 -0.28125 C 1.675781 -0.550781 1.207031 -0.9375 0.875 -1.4375 C 0.539062 -1.9375 0.375 -2.515625 0.375 -3.171875 L 0.375 -3.3125 C 0.375 -3.5 0.46875 -3.59375 0.65625 -3.59375 L 2.8125 -3.59375 C 3 -3.59375 3.09375 -3.546875 3.09375 -3.453125 L 3.09375 -3.296875 C 3.09375 -3.023438 3.234375 -2.78125 3.515625 -2.5625 C 3.804688 -2.351562 4.164062 -2.25 4.59375 -2.25 C 4.957031 -2.25 5.21875 -2.320312 5.375 -2.46875 C 5.53125 -2.625 5.609375 -2.796875 5.609375 -2.984375 C 5.609375 -3.203125 5.507812 -3.363281 5.3125 -3.46875 C 5.113281 -3.570312 4.757812 -3.703125 4.25 -3.859375 L 3.8125 -3.984375 C 2.84375 -4.273438 2.03125 -4.664062 1.375 -5.15625 C 0.71875 -5.644531 0.390625 -6.351562 0.390625 -7.28125 C 0.390625 -7.894531 0.554688 -8.441406 0.890625 -8.921875 C 1.222656 -9.398438 1.679688 -9.765625 2.265625 -10.015625 C 2.847656 -10.273438 3.503906 -10.40625 4.234375 -10.40625 C 4.992188 -10.40625 5.679688 -10.257812 6.296875 -9.96875 C 6.921875 -9.6875 7.410156 -9.285156 7.765625 -8.765625 C 8.128906 -8.242188 8.3125 -7.648438 8.3125 -6.984375 L 8.3125 -6.921875 C 8.3125 -6.734375 8.21875 -6.640625 8.03125 -6.640625 L 5.875 -6.640625 C 5.6875 -6.640625 5.59375 -6.675781 5.59375 -6.75 L 5.59375 -6.875 C 5.59375 -7.164062 5.457031 -7.429688 5.1875 -7.671875 C 4.925781 -7.910156 4.570312 -8.03125 4.125 -8.03125 C 3.8125 -8.03125 3.5625 -7.96875 3.375 -7.84375 C 3.195312 -7.71875 3.109375 -7.539062 3.109375 -7.3125 C 3.109375 -7.132812 3.175781 -6.984375 3.3125 -6.859375 C 3.445312 -6.742188 3.648438 -6.628906 3.921875 -6.515625 C 4.191406 -6.398438 4.613281 -6.253906 5.1875 -6.078125 C 5.257812 -6.046875 5.601562 -5.941406 6.21875 -5.765625 C 6.832031 -5.585938 7.34375 -5.257812 7.75 -4.78125 C 8.164062 -4.300781 8.375 -3.726562 8.375 -3.0625 C 8.375 -2.414062 8.207031 -1.851562 7.875 -1.375 C 7.539062 -0.894531 7.070312 -0.523438 6.46875 -0.265625 C 5.863281 -0.00390625 5.171875 0.125 4.390625 0.125 Z M 4.390625 0.125" transform="translate(118.16 43.402)"/></g></g></g><g fill="#FFF"><g><g><path d="M 4.390625 0.125 C 3.597656 0.125 2.894531 -0.0078125 2.28125 -0.28125 C 1.675781 -0.550781 1.207031 -0.9375 0.875 -1.4375 C 0.539062 -1.9375 0.375 -2.515625 0.375 -3.171875 L 0.375 -3.3125 C 0.375 -3.5 0.46875 -3.59375 0.65625 -3.59375 L 2.8125 -3.59375 C 3 -3.59375 3.09375 -3.546875 3.09375 -3.453125 L 3.09375 -3.296875 C 3.09375 -3.023438 3.234375 -2.78125 3.515625 -2.5625 C 3.804688 -2.351562 4.164062 -2.25 4.59375 -2.25 C 4.957031 -2.25 5.21875 -2.320312 5.375 -2.46875 C 5.53125 -2.625 5.609375 -2.796875 5.609375 -2.984375 C 5.609375 -3.203125 5.507812 -3.363281 5.3125 -3.46875 C 5.113281 -3.570312 4.757812 -3.703125 4.25 -3.859375 L 3.8125 -3.984375 C 2.84375 -4.273438 2.03125 -4.664062 1.375 -5.15625 C 0.71875 -5.644531 0.390625 -6.351562 0.390625 -7.28125 C 0.390625 -7.894531 0.554688 -8.441406 0.890625 -8.921875 C 1.222656 -9.398438 1.679688 -9.765625 2.265625 -10.015625 C 2.847656 -10.273438 3.503906 -10.40625 4.234375 -10.40625 C 4.992188 -10.40625 5.679688 -10.257812 6.296875 -9.96875 C 6.921875 -9.6875 7.410156 -9.285156 7.765625 -8.765625 C 8.128906 -8.242188 8.3125 -7.648438 8.3125 -6.984375 L 8.3125 -6.921875 C 8.3125 -6.734375 8.21875 -6.640625 8.03125 -6.640625 L 5.875 -6.640625 C 5.6875 -6.640625 5.59375 -6.675781 5.59375 -6.75 L 5.59375 -6.875 C 5.59375 -7.164062 5.457031 -7.429688 5.1875 -7.671875 C 4.925781 -7.910156 4.570312 -8.03125 4.125 -8.03125 C 3.8125 -8.03125 3.5625 -7.96875 3.375 -7.84375 C 3.195312 -7.71875 3.109375 -7.539062 3.109375 -7.3125 C 3.109375 -7.132812 3.175781 -6.984375 3.3125 -6.859375 C 3.445312 -6.742188 3.648438 -6.628906 3.921875 -6.515625 C 4.191406 -6.398438 4.613281 -6.253906 5.1875 -6.078125 C 5.257812 -6.046875 5.601562 -5.941406 6.21875 -5.765625 C 6.832031 -5.585938 7.34375 -5.257812 7.75 -4.78125 C 8.164062 -4.300781 8.375 -3.726562 8.375 -3.0625 C 8.375 -2.414062 8.207031 -1.851562 7.875 -1.375 C 7.539062 -0.894531 7.070312 -0.523438 6.46875 -0.265625 C 5.863281 -0.00390625 5.171875 0.125 4.390625 0.125 Z M 4.390625 0.125" transform="translate(127.916 43.402)"/></g></g></g><g fill="#FFF"><g><g><path d="M 2.78125 0 C 2.726562 0 2.695312 -0.0195312 2.6875 -0.0625 L 2.5 -0.671875 C 2.488281 -0.691406 2.476562 -0.703125 2.46875 -0.703125 L 0.953125 -0.703125 C 0.941406 -0.703125 0.929688 -0.691406 0.921875 -0.671875 L 0.734375 -0.0625 C 0.722656 -0.0195312 0.691406 0 0.640625 0 L 0.25 0 C 0.1875 0 0.164062 -0.03125 0.1875 -0.09375 L 1.359375 -3.734375 C 1.378906 -3.785156 1.410156 -3.8125 1.453125 -3.8125 L 1.953125 -3.8125 C 2.003906 -3.8125 2.035156 -3.785156 2.046875 -3.734375 L 3.234375 -0.09375 C 3.234375 -0.0820312 3.234375 -0.0703125 3.234375 -0.0625 C 3.234375 -0.0195312 3.210938 0 3.171875 0 Z M 1.0625 -1.140625 C 1.0625 -1.117188 1.070312 -1.109375 1.09375 -1.109375 L 2.328125 -1.109375 C 2.347656 -1.109375 2.359375 -1.117188 2.359375 -1.140625 L 1.71875 -3.171875 C 1.71875 -3.179688 1.710938 -3.1875 1.703125 -3.1875 C 1.703125 -3.1875 1.695312 -3.179688 1.6875 -3.171875 Z M 1.0625 -1.140625" transform="translate(45.224 51.377)"/></g></g></g><g fill="#FFF"><g><g><path d="M 1.609375 -2.8125 C 1.910156 -2.8125 2.144531 -2.722656 2.3125 -2.546875 C 2.488281 -2.378906 2.578125 -2.144531 2.578125 -1.84375 L 2.578125 -0.078125 C 2.578125 -0.0546875 2.570312 -0.0351562 2.5625 -0.015625 C 2.550781 -0.00390625 2.53125 0 2.5 0 L 2.140625 0 C 2.117188 0 2.097656 -0.00390625 2.078125 -0.015625 C 2.066406 -0.0351562 2.0625 -0.0546875 2.0625 -0.078125 L 2.0625 -1.75 C 2.0625 -1.925781 2.007812 -2.070312 1.90625 -2.1875 C 1.800781 -2.300781 1.660156 -2.359375 1.484375 -2.359375 C 1.328125 -2.359375 1.195312 -2.3125 1.09375 -2.21875 C 0.988281 -2.125 0.925781 -2 0.90625 -1.84375 L 0.90625 -0.078125 C 0.90625 -0.0546875 0.894531 -0.0351562 0.875 -0.015625 C 0.863281 -0.00390625 0.847656 0 0.828125 0 L 0.46875 0 C 0.4375 0 0.410156 -0.00390625 0.390625 -0.015625 C 0.378906 -0.0351562 0.375 -0.0546875 0.375 -0.078125 L 0.375 -2.6875 C 0.375 -2.707031 0.378906 -2.722656 0.390625 -2.734375 C 0.410156 -2.753906 0.4375 -2.765625 0.46875 -2.765625 L 0.828125 -2.765625 C 0.847656 -2.765625 0.863281 -2.753906 0.875 -2.734375 C 0.894531 -2.722656 0.90625 -2.707031 0.90625 -2.6875 L 0.90625 -2.53125 C 0.90625 -2.519531 0.90625 -2.507812 0.90625 -2.5 C 0.914062 -2.5 0.925781 -2.503906 0.9375 -2.515625 C 1.082031 -2.710938 1.304688 -2.8125 1.609375 -2.8125 Z M 1.609375 -2.8125" transform="translate(49.075 51.377)"/></g></g></g><g fill="#FFF"><g><g><path d="M 2.78125 0 C 2.726562 0 2.695312 -0.0195312 2.6875 -0.0625 L 2.5 -0.671875 C 2.488281 -0.691406 2.476562 -0.703125 2.46875 -0.703125 L 0.953125 -0.703125 C 0.941406 -0.703125 0.929688 -0.691406 0.921875 -0.671875 L 0.734375 -0.0625 C 0.722656 -0.0195312 0.691406 0 0.640625 0 L 0.25 0 C 0.1875 0 0.164062 -0.03125 0.1875 -0.09375 L 1.359375 -3.734375 C 1.378906 -3.785156 1.410156 -3.8125 1.453125 -3.8125 L 1.953125 -3.8125 C 2.003906 -3.8125 2.035156 -3.785156 2.046875 -3.734375 L 3.234375 -0.09375 C 3.234375 -0.0820312 3.234375 -0.0703125 3.234375 -0.0625 C 3.234375 -0.0195312 3.210938 0 3.171875 0 Z M 1.0625 -1.140625 C 1.0625 -1.117188 1.070312 -1.109375 1.09375 -1.109375 L 2.328125 -1.109375 C 2.347656 -1.109375 2.359375 -1.117188 2.359375 -1.140625 L 1.71875 -3.171875 C 1.71875 -3.179688 1.710938 -3.1875 1.703125 -3.1875 C 1.703125 -3.1875 1.695312 -3.179688 1.6875 -3.171875 Z M 1.0625 -1.140625" transform="translate(53.959 51.377)"/></g></g></g><g fill="#FFF"><g><g><path d="M 0.6875 -3.1875 C 0.582031 -3.1875 0.492188 -3.21875 0.421875 -3.28125 C 0.359375 -3.34375 0.328125 -3.425781 0.328125 -3.53125 C 0.328125 -3.625 0.359375 -3.703125 0.421875 -3.765625 C 0.492188 -3.828125 0.582031 -3.859375 0.6875 -3.859375 C 0.789062 -3.859375 0.875 -3.828125 0.9375 -3.765625 C 1 -3.703125 1.03125 -3.625 1.03125 -3.53125 C 1.03125 -3.425781 1 -3.34375 0.9375 -3.28125 C 0.875 -3.21875 0.789062 -3.1875 0.6875 -3.1875 Z M 0.5 0 C 0.476562 0 0.457031 -0.00390625 0.4375 -0.015625 C 0.425781 -0.0351562 0.421875 -0.0546875 0.421875 -0.078125 L 0.421875 -2.6875 C 0.421875 -2.707031 0.425781 -2.722656 0.4375 -2.734375 C 0.457031 -2.753906 0.476562 -2.765625 0.5 -2.765625 L 0.859375 -2.765625 C 0.890625 -2.765625 0.910156 -2.753906 0.921875 -2.734375 C 0.941406 -2.722656 0.953125 -2.707031 0.953125 -2.6875 L 0.953125 -0.078125 C 0.953125 -0.0546875 0.941406 -0.0351562 0.921875 -0.015625 C 0.910156 -0.00390625 0.890625 0 0.859375 0 Z M 0.5 0" transform="translate(57.81 51.377)"/></g></g></g><g fill="#FFF"><g><g><path d="M 1.671875 0.046875 C 1.410156 0.046875 1.175781 -0.00390625 0.96875 -0.109375 C 0.769531 -0.210938 0.613281 -0.359375 0.5 -0.546875 C 0.394531 -0.734375 0.34375 -0.953125 0.34375 -1.203125 L 0.34375 -2.609375 C 0.34375 -2.859375 0.394531 -3.078125 0.5 -3.265625 C 0.613281 -3.453125 0.769531 -3.59375 0.96875 -3.6875 C 1.175781 -3.789062 1.410156 -3.84375 1.671875 -3.84375 C 1.929688 -3.84375 2.160156 -3.789062 2.359375 -3.6875 C 2.554688 -3.59375 2.707031 -3.453125 2.8125 -3.265625 C 2.925781 -3.085938 2.984375 -2.878906 2.984375 -2.640625 C 2.984375 -2.609375 2.957031 -2.585938 2.90625 -2.578125 L 2.546875 -2.5625 L 2.53125 -2.5625 C 2.507812 -2.5625 2.492188 -2.5625 2.484375 -2.5625 C 2.472656 -2.570312 2.46875 -2.582031 2.46875 -2.59375 L 2.46875 -2.625 C 2.46875 -2.851562 2.394531 -3.039062 2.25 -3.1875 C 2.101562 -3.332031 1.910156 -3.40625 1.671875 -3.40625 C 1.429688 -3.40625 1.234375 -3.332031 1.078125 -3.1875 C 0.929688 -3.039062 0.859375 -2.851562 0.859375 -2.625 L 0.859375 -1.1875 C 0.859375 -0.945312 0.929688 -0.753906 1.078125 -0.609375 C 1.234375 -0.472656 1.429688 -0.40625 1.671875 -0.40625 C 1.910156 -0.40625 2.101562 -0.472656 2.25 -0.609375 C 2.394531 -0.753906 2.46875 -0.945312 2.46875 -1.1875 C 2.46875 -1.207031 2.472656 -1.222656 2.484375 -1.234375 C 2.503906 -1.242188 2.523438 -1.242188 2.546875 -1.234375 L 2.90625 -1.21875 C 2.957031 -1.207031 2.984375 -1.195312 2.984375 -1.1875 L 2.984375 -1.15625 C 2.984375 -0.925781 2.925781 -0.71875 2.8125 -0.53125 C 2.707031 -0.34375 2.554688 -0.195312 2.359375 -0.09375 C 2.160156 0 1.929688 0.046875 1.671875 0.046875 Z M 1.671875 0.046875" transform="translate(61.112 51.377)"/></g></g></g><g fill="#FFF"><g><g><path d="M 1.515625 0.046875 C 1.242188 0.046875 1.007812 -0.0195312 0.8125 -0.15625 C 0.613281 -0.289062 0.472656 -0.484375 0.390625 -0.734375 C 0.328125 -0.921875 0.296875 -1.140625 0.296875 -1.390625 C 0.296875 -1.648438 0.328125 -1.867188 0.390625 -2.046875 C 0.472656 -2.285156 0.613281 -2.472656 0.8125 -2.609375 C 1.007812 -2.742188 1.242188 -2.8125 1.515625 -2.8125 C 1.773438 -2.8125 2.003906 -2.742188 2.203125 -2.609375 C 2.398438 -2.472656 2.539062 -2.285156 2.625 -2.046875 C 2.6875 -1.859375 2.71875 -1.640625 2.71875 -1.390625 C 2.71875 -1.140625 2.6875 -0.921875 2.625 -0.734375 C 2.539062 -0.484375 2.398438 -0.289062 2.203125 -0.15625 C 2.003906 -0.0195312 1.773438 0.046875 1.515625 0.046875 Z M 1.515625 -0.40625 C 1.660156 -0.40625 1.785156 -0.445312 1.890625 -0.53125 C 2.003906 -0.613281 2.082031 -0.726562 2.125 -0.875 C 2.164062 -1.007812 2.1875 -1.179688 2.1875 -1.390625 C 2.1875 -1.585938 2.171875 -1.753906 2.140625 -1.890625 C 2.085938 -2.035156 2.003906 -2.148438 1.890625 -2.234375 C 1.785156 -2.316406 1.65625 -2.359375 1.5 -2.359375 C 1.351562 -2.359375 1.222656 -2.316406 1.109375 -2.234375 C 1.003906 -2.148438 0.929688 -2.035156 0.890625 -1.890625 C 0.847656 -1.765625 0.828125 -1.597656 0.828125 -1.390625 C 0.828125 -1.179688 0.847656 -1.007812 0.890625 -0.875 C 0.929688 -0.726562 1.003906 -0.613281 1.109375 -0.53125 C 1.222656 -0.445312 1.359375 -0.40625 1.515625 -0.40625 Z M 1.515625 -0.40625" transform="translate(64.837 51.377)"/></g></g></g><g fill="#FFF"><g><g><path d="M 2.625 -2.078125 C 2.6875 -1.890625 2.71875 -1.65625 2.71875 -1.375 C 2.71875 -1.113281 2.691406 -0.894531 2.640625 -0.71875 C 2.566406 -0.476562 2.441406 -0.289062 2.265625 -0.15625 C 2.085938 -0.0195312 1.863281 0.046875 1.59375 0.046875 C 1.46875 0.046875 1.351562 0.0234375 1.25 -0.015625 C 1.144531 -0.0664062 1.050781 -0.140625 0.96875 -0.234375 C 0.957031 -0.242188 0.945312 -0.242188 0.9375 -0.234375 C 0.9375 -0.234375 0.9375 -0.226562 0.9375 -0.21875 L 0.9375 0.953125 C 0.9375 0.984375 0.925781 1.003906 0.90625 1.015625 C 0.894531 1.023438 0.878906 1.03125 0.859375 1.03125 L 0.5 1.03125 C 0.46875 1.03125 0.441406 1.023438 0.421875 1.015625 C 0.410156 1.003906 0.40625 0.984375 0.40625 0.953125 L 0.40625 -2.6875 C 0.40625 -2.707031 0.410156 -2.722656 0.421875 -2.734375 C 0.441406 -2.753906 0.46875 -2.765625 0.5 -2.765625 L 0.859375 -2.765625 C 0.878906 -2.765625 0.894531 -2.753906 0.90625 -2.734375 C 0.925781 -2.722656 0.9375 -2.707031 0.9375 -2.6875 L 0.9375 -2.546875 C 0.9375 -2.535156 0.9375 -2.523438 0.9375 -2.515625 C 0.945312 -2.515625 0.957031 -2.519531 0.96875 -2.53125 C 1.050781 -2.625 1.144531 -2.691406 1.25 -2.734375 C 1.351562 -2.785156 1.46875 -2.8125 1.59375 -2.8125 C 1.851562 -2.8125 2.066406 -2.742188 2.234375 -2.609375 C 2.410156 -2.484375 2.539062 -2.304688 2.625 -2.078125 Z M 2.03125 -0.671875 C 2.144531 -0.847656 2.203125 -1.085938 2.203125 -1.390625 C 2.203125 -1.671875 2.15625 -1.894531 2.0625 -2.0625 C 1.957031 -2.257812 1.785156 -2.359375 1.546875 -2.359375 C 1.335938 -2.359375 1.179688 -2.257812 1.078125 -2.0625 C 0.984375 -1.90625 0.9375 -1.675781 0.9375 -1.375 C 0.9375 -1.082031 0.984375 -0.851562 1.078125 -0.6875 C 1.179688 -0.5 1.335938 -0.40625 1.546875 -0.40625 C 1.753906 -0.40625 1.914062 -0.492188 2.03125 -0.671875 Z M 2.03125 -0.671875" transform="translate(68.28 51.377)"/></g></g></g><g fill="#FFF"><g><g><path d="M 0.296875 1.09375 C 0.285156 1.09375 0.273438 1.082031 0.265625 1.0625 C 0.265625 1.050781 0.265625 1.03125 0.265625 1 L 0.265625 0.734375 C 0.265625 0.671875 0.273438 0.640625 0.296875 0.640625 L 0.328125 0.640625 C 0.472656 0.640625 0.582031 0.625 0.65625 0.59375 C 0.738281 0.5625 0.804688 0.5 0.859375 0.40625 C 0.921875 0.320312 0.976562 0.191406 1.03125 0.015625 C 1.03125 0.00390625 1.03125 -0.00390625 1.03125 -0.015625 L 0.140625 -2.671875 C 0.128906 -2.679688 0.125 -2.691406 0.125 -2.703125 C 0.125 -2.742188 0.148438 -2.765625 0.203125 -2.765625 L 0.578125 -2.765625 C 0.628906 -2.765625 0.660156 -2.742188 0.671875 -2.703125 L 1.28125 -0.75 C 1.289062 -0.726562 1.296875 -0.71875 1.296875 -0.71875 C 1.304688 -0.71875 1.316406 -0.726562 1.328125 -0.75 L 1.90625 -2.703125 C 1.914062 -2.722656 1.925781 -2.738281 1.9375 -2.75 C 1.957031 -2.757812 1.976562 -2.765625 2 -2.765625 L 2.390625 -2.765625 C 2.421875 -2.765625 2.441406 -2.753906 2.453125 -2.734375 C 2.460938 -2.722656 2.460938 -2.703125 2.453125 -2.671875 L 1.484375 0.1875 C 1.398438 0.4375 1.316406 0.625 1.234375 0.75 C 1.148438 0.875 1.039062 0.960938 0.90625 1.015625 C 0.769531 1.066406 0.582031 1.09375 0.34375 1.09375 Z M 0.296875 1.09375" transform="translate(71.707 51.377)"/></g></g></g><g fill="#FFF"><g><g><path d="M 1.21875 0 C 1.164062 0 1.132812 -0.0234375 1.125 -0.078125 L 0.125 -3.71875 C 0.125 -3.71875 0.125 -3.726562 0.125 -3.75 C 0.125 -3.789062 0.148438 -3.8125 0.203125 -3.8125 L 0.59375 -3.8125 C 0.632812 -3.8125 0.660156 -3.785156 0.671875 -3.734375 L 1.375 -1.0625 C 1.382812 -1.050781 1.390625 -1.046875 1.390625 -1.046875 C 1.398438 -1.046875 1.40625 -1.050781 1.40625 -1.0625 L 2.078125 -3.734375 C 2.085938 -3.785156 2.117188 -3.8125 2.171875 -3.8125 L 2.546875 -3.8125 C 2.597656 -3.8125 2.628906 -3.785156 2.640625 -3.734375 L 3.34375 -1.0625 C 3.34375 -1.050781 3.34375 -1.046875 3.34375 -1.046875 C 3.351562 -1.046875 3.363281 -1.050781 3.375 -1.0625 L 4.078125 -3.734375 C 4.085938 -3.785156 4.117188 -3.8125 4.171875 -3.8125 L 4.53125 -3.8125 C 4.5625 -3.8125 4.582031 -3.800781 4.59375 -3.78125 C 4.601562 -3.757812 4.601562 -3.738281 4.59375 -3.71875 L 3.625 -0.078125 C 3.613281 -0.0234375 3.585938 0 3.546875 0 L 3.171875 0 C 3.117188 0 3.085938 -0.0234375 3.078125 -0.078125 L 2.375 -2.84375 C 2.375 -2.851562 2.367188 -2.859375 2.359375 -2.859375 C 2.347656 -2.859375 2.34375 -2.851562 2.34375 -2.84375 L 1.65625 -0.078125 C 1.644531 -0.0234375 1.617188 0 1.578125 0 Z M 1.21875 0" transform="translate(76.233 51.377)"/></g></g></g><g fill="#FFF"><g><g><path d="M 1.59375 -2.796875 C 1.695312 -2.796875 1.796875 -2.773438 1.890625 -2.734375 C 1.929688 -2.710938 1.945312 -2.675781 1.9375 -2.625 L 1.859375 -2.28125 C 1.847656 -2.238281 1.828125 -2.21875 1.796875 -2.21875 C 1.773438 -2.21875 1.757812 -2.222656 1.75 -2.234375 C 1.695312 -2.242188 1.640625 -2.25 1.578125 -2.25 C 1.535156 -2.25 1.503906 -2.25 1.484375 -2.25 C 1.316406 -2.238281 1.175781 -2.175781 1.0625 -2.0625 C 0.957031 -1.957031 0.90625 -1.816406 0.90625 -1.640625 L 0.90625 -0.078125 C 0.90625 -0.0546875 0.894531 -0.0351562 0.875 -0.015625 C 0.863281 -0.00390625 0.847656 0 0.828125 0 L 0.46875 0 C 0.4375 0 0.410156 -0.00390625 0.390625 -0.015625 C 0.378906 -0.0351562 0.375 -0.0546875 0.375 -0.078125 L 0.375 -2.6875 C 0.375 -2.707031 0.378906 -2.722656 0.390625 -2.734375 C 0.410156 -2.753906 0.4375 -2.765625 0.46875 -2.765625 L 0.828125 -2.765625 C 0.847656 -2.765625 0.863281 -2.753906 0.875 -2.734375 C 0.894531 -2.722656 0.90625 -2.707031 0.90625 -2.6875 L 0.90625 -2.4375 C 0.90625 -2.425781 0.90625 -2.414062 0.90625 -2.40625 C 0.914062 -2.40625 0.925781 -2.410156 0.9375 -2.421875 C 1.09375 -2.671875 1.3125 -2.796875 1.59375 -2.796875 Z M 1.59375 -2.796875" transform="translate(81.384 51.377)"/></g></g></g><g fill="#FFF"><g><g><path d="M 0.6875 -3.1875 C 0.582031 -3.1875 0.492188 -3.21875 0.421875 -3.28125 C 0.359375 -3.34375 0.328125 -3.425781 0.328125 -3.53125 C 0.328125 -3.625 0.359375 -3.703125 0.421875 -3.765625 C 0.492188 -3.828125 0.582031 -3.859375 0.6875 -3.859375 C 0.789062 -3.859375 0.875 -3.828125 0.9375 -3.765625 C 1 -3.703125 1.03125 -3.625 1.03125 -3.53125 C 1.03125 -3.425781 1 -3.34375 0.9375 -3.28125 C 0.875 -3.21875 0.789062 -3.1875 0.6875 -3.1875 Z M 0.5 0 C 0.476562 0 0.457031 -0.00390625 0.4375 -0.015625 C 0.425781 -0.0351562 0.421875 -0.0546875 0.421875 -0.078125 L 0.421875 -2.6875 C 0.421875 -2.707031 0.425781 -2.722656 0.4375 -2.734375 C 0.457031 -2.753906 0.476562 -2.765625 0.5 -2.765625 L 0.859375 -2.765625 C 0.890625 -2.765625 0.910156 -2.753906 0.921875 -2.734375 C 0.941406 -2.722656 0.953125 -2.707031 0.953125 -2.6875 L 0.953125 -0.078125 C 0.953125 -0.0546875 0.941406 -0.0351562 0.921875 -0.015625 C 0.910156 -0.00390625 0.890625 0 0.859375 0 Z M 0.5 0" transform="translate(83.826 51.377)"/></g></g></g><g fill="#FFF"><g><g><path d="M 1.75 -2.421875 C 1.75 -2.390625 1.738281 -2.367188 1.71875 -2.359375 C 1.707031 -2.347656 1.6875 -2.34375 1.65625 -2.34375 L 1.109375 -2.34375 C 1.085938 -2.34375 1.078125 -2.332031 1.078125 -2.3125 L 1.078125 -0.890625 C 1.078125 -0.734375 1.109375 -0.625 1.171875 -0.5625 C 1.242188 -0.5 1.351562 -0.46875 1.5 -0.46875 L 1.640625 -0.46875 C 1.660156 -0.46875 1.675781 -0.457031 1.6875 -0.4375 C 1.707031 -0.425781 1.71875 -0.40625 1.71875 -0.375 L 1.71875 -0.09375 C 1.71875 -0.0390625 1.691406 -0.015625 1.640625 -0.015625 L 1.40625 0 C 1.132812 0 0.925781 -0.046875 0.78125 -0.140625 C 0.644531 -0.242188 0.578125 -0.429688 0.578125 -0.703125 L 0.578125 -2.3125 C 0.578125 -2.332031 0.566406 -2.34375 0.546875 -2.34375 L 0.25 -2.34375 C 0.226562 -2.34375 0.207031 -2.347656 0.1875 -2.359375 C 0.175781 -2.367188 0.171875 -2.390625 0.171875 -2.421875 L 0.171875 -2.6875 C 0.171875 -2.707031 0.175781 -2.722656 0.1875 -2.734375 C 0.207031 -2.753906 0.226562 -2.765625 0.25 -2.765625 L 0.546875 -2.765625 C 0.566406 -2.765625 0.578125 -2.773438 0.578125 -2.796875 L 0.578125 -3.40625 C 0.578125 -3.425781 0.582031 -3.441406 0.59375 -3.453125 C 0.613281 -3.472656 0.632812 -3.484375 0.65625 -3.484375 L 1 -3.484375 C 1.019531 -3.484375 1.035156 -3.472656 1.046875 -3.453125 C 1.066406 -3.441406 1.078125 -3.425781 1.078125 -3.40625 L 1.078125 -2.796875 C 1.078125 -2.773438 1.085938 -2.765625 1.109375 -2.765625 L 1.65625 -2.765625 C 1.6875 -2.765625 1.707031 -2.753906 1.71875 -2.734375 C 1.738281 -2.722656 1.75 -2.707031 1.75 -2.6875 Z M 1.75 -2.421875" transform="translate(85.616 51.377)"/></g></g></g><g fill="#FFF"><g><g><path d="M 0.6875 -3.1875 C 0.582031 -3.1875 0.492188 -3.21875 0.421875 -3.28125 C 0.359375 -3.34375 0.328125 -3.425781 0.328125 -3.53125 C 0.328125 -3.625 0.359375 -3.703125 0.421875 -3.765625 C 0.492188 -3.828125 0.582031 -3.859375 0.6875 -3.859375 C 0.789062 -3.859375 0.875 -3.828125 0.9375 -3.765625 C 1 -3.703125 1.03125 -3.625 1.03125 -3.53125 C 1.03125 -3.425781 1 -3.34375 0.9375 -3.28125 C 0.875 -3.21875 0.789062 -3.1875 0.6875 -3.1875 Z M 0.5 0 C 0.476562 0 0.457031 -0.00390625 0.4375 -0.015625 C 0.425781 -0.0351562 0.421875 -0.0546875 0.421875 -0.078125 L 0.421875 -2.6875 C 0.421875 -2.707031 0.425781 -2.722656 0.4375 -2.734375 C 0.457031 -2.753906 0.476562 -2.765625 0.5 -2.765625 L 0.859375 -2.765625 C 0.890625 -2.765625 0.910156 -2.753906 0.921875 -2.734375 C 0.941406 -2.722656 0.953125 -2.707031 0.953125 -2.6875 L 0.953125 -0.078125 C 0.953125 -0.0546875 0.941406 -0.0351562 0.921875 -0.015625 C 0.910156 -0.00390625 0.890625 0 0.859375 0 Z M 0.5 0" transform="translate(88.047 51.377)"/></g></g></g><g fill="#FFF"><g><g><path d="M 1.609375 -2.8125 C 1.910156 -2.8125 2.144531 -2.722656 2.3125 -2.546875 C 2.488281 -2.378906 2.578125 -2.144531 2.578125 -1.84375 L 2.578125 -0.078125 C 2.578125 -0.0546875 2.570312 -0.0351562 2.5625 -0.015625 C 2.550781 -0.00390625 2.53125 0 2.5 0 L 2.140625 0 C 2.117188 0 2.097656 -0.00390625 2.078125 -0.015625 C 2.066406 -0.0351562 2.0625 -0.0546875 2.0625 -0.078125 L 2.0625 -1.75 C 2.0625 -1.925781 2.007812 -2.070312 1.90625 -2.1875 C 1.800781 -2.300781 1.660156 -2.359375 1.484375 -2.359375 C 1.328125 -2.359375 1.195312 -2.3125 1.09375 -2.21875 C 0.988281 -2.125 0.925781 -2 0.90625 -1.84375 L 0.90625 -0.078125 C 0.90625 -0.0546875 0.894531 -0.0351562 0.875 -0.015625 C 0.863281 -0.00390625 0.847656 0 0.828125 0 L 0.46875 0 C 0.4375 0 0.410156 -0.00390625 0.390625 -0.015625 C 0.378906 -0.0351562 0.375 -0.0546875 0.375 -0.078125 L 0.375 -2.6875 C 0.375 -2.707031 0.378906 -2.722656 0.390625 -2.734375 C 0.410156 -2.753906 0.4375 -2.765625 0.46875 -2.765625 L 0.828125 -2.765625 C 0.847656 -2.765625 0.863281 -2.753906 0.875 -2.734375 C 0.894531 -2.722656 0.90625 -2.707031 0.90625 -2.6875 L 0.90625 -2.53125 C 0.90625 -2.519531 0.90625 -2.507812 0.90625 -2.5 C 0.914062 -2.5 0.925781 -2.503906 0.9375 -2.515625 C 1.082031 -2.710938 1.304688 -2.8125 1.609375 -2.8125 Z M 1.609375 -2.8125" transform="translate(89.837 51.377)"/></g></g></g><g fill="#FFF"><g><g><path d="M 2.078125 -2.6875 C 2.078125 -2.707031 2.082031 -2.722656 2.09375 -2.734375 C 2.113281 -2.753906 2.140625 -2.765625 2.171875 -2.765625 L 2.515625 -2.765625 C 2.546875 -2.765625 2.566406 -2.753906 2.578125 -2.734375 C 2.597656 -2.722656 2.609375 -2.707031 2.609375 -2.6875 L 2.609375 -0.140625 C 2.609375 0.296875 2.484375 0.609375 2.234375 0.796875 C 1.984375 0.984375 1.648438 1.078125 1.234375 1.078125 C 1.179688 1.078125 1.097656 1.078125 0.984375 1.078125 C 0.929688 1.078125 0.90625 1.046875 0.90625 0.984375 L 0.921875 0.65625 C 0.921875 0.632812 0.929688 0.613281 0.953125 0.59375 C 0.972656 0.582031 0.992188 0.582031 1.015625 0.59375 C 1.066406 0.59375 1.140625 0.59375 1.234375 0.59375 C 1.535156 0.59375 1.75 0.535156 1.875 0.421875 C 2.007812 0.304688 2.078125 0.113281 2.078125 -0.15625 L 2.078125 -0.25 C 2.078125 -0.257812 2.070312 -0.265625 2.0625 -0.265625 C 2.0625 -0.265625 2.054688 -0.265625 2.046875 -0.265625 C 1.890625 -0.0859375 1.671875 0 1.390625 0 C 1.148438 0 0.9375 -0.0625 0.75 -0.1875 C 0.5625 -0.3125 0.429688 -0.492188 0.359375 -0.734375 C 0.304688 -0.890625 0.28125 -1.109375 0.28125 -1.390625 C 0.28125 -1.691406 0.304688 -1.925781 0.359375 -2.09375 C 0.429688 -2.3125 0.554688 -2.484375 0.734375 -2.609375 C 0.910156 -2.742188 1.117188 -2.8125 1.359375 -2.8125 C 1.648438 -2.8125 1.878906 -2.722656 2.046875 -2.546875 C 2.054688 -2.535156 2.0625 -2.53125 2.0625 -2.53125 C 2.070312 -2.539062 2.078125 -2.550781 2.078125 -2.5625 Z M 2.046875 -0.890625 C 2.054688 -0.941406 2.0625 -1 2.0625 -1.0625 C 2.070312 -1.132812 2.078125 -1.242188 2.078125 -1.390625 C 2.078125 -1.546875 2.070312 -1.65625 2.0625 -1.71875 C 2.0625 -1.78125 2.054688 -1.84375 2.046875 -1.90625 C 2.015625 -2.039062 1.945312 -2.148438 1.84375 -2.234375 C 1.75 -2.316406 1.625 -2.359375 1.46875 -2.359375 C 1.3125 -2.359375 1.179688 -2.316406 1.078125 -2.234375 C 0.984375 -2.148438 0.914062 -2.039062 0.875 -1.90625 C 0.832031 -1.789062 0.8125 -1.617188 0.8125 -1.390625 C 0.8125 -1.140625 0.828125 -0.972656 0.859375 -0.890625 C 0.898438 -0.753906 0.972656 -0.640625 1.078125 -0.546875 C 1.179688 -0.460938 1.3125 -0.421875 1.46875 -0.421875 C 1.625 -0.421875 1.75 -0.460938 1.84375 -0.546875 C 1.945312 -0.640625 2.015625 -0.753906 2.046875 -0.890625 Z M 2.046875 -0.890625" transform="translate(93.21 51.377)"/></g></g></g><g fill="#FFF"><g><g><path d="M 1.625 0.046875 C 1.351562 0.046875 1.113281 0.00390625 0.90625 -0.078125 C 0.707031 -0.171875 0.550781 -0.296875 0.4375 -0.453125 C 0.320312 -0.617188 0.265625 -0.804688 0.265625 -1.015625 L 0.265625 -1.140625 C 0.265625 -1.171875 0.269531 -1.191406 0.28125 -1.203125 C 0.300781 -1.222656 0.328125 -1.234375 0.359375 -1.234375 L 0.703125 -1.234375 C 0.722656 -1.234375 0.738281 -1.222656 0.75 -1.203125 C 0.769531 -1.191406 0.78125 -1.171875 0.78125 -1.140625 L 0.78125 -1.046875 C 0.78125 -0.859375 0.859375 -0.703125 1.015625 -0.578125 C 1.179688 -0.460938 1.394531 -0.40625 1.65625 -0.40625 C 1.90625 -0.40625 2.09375 -0.457031 2.21875 -0.5625 C 2.351562 -0.664062 2.421875 -0.804688 2.421875 -0.984375 C 2.421875 -1.085938 2.382812 -1.179688 2.3125 -1.265625 C 2.25 -1.347656 2.15625 -1.421875 2.03125 -1.484375 C 1.90625 -1.554688 1.722656 -1.640625 1.484375 -1.734375 C 1.222656 -1.828125 1.015625 -1.914062 0.859375 -2 C 0.703125 -2.082031 0.570312 -2.191406 0.46875 -2.328125 C 0.375 -2.472656 0.328125 -2.644531 0.328125 -2.84375 C 0.328125 -3.15625 0.4375 -3.398438 0.65625 -3.578125 C 0.875 -3.753906 1.175781 -3.84375 1.5625 -3.84375 C 1.832031 -3.84375 2.066406 -3.796875 2.265625 -3.703125 C 2.472656 -3.617188 2.628906 -3.492188 2.734375 -3.328125 C 2.847656 -3.171875 2.90625 -2.984375 2.90625 -2.765625 L 2.90625 -2.6875 C 2.90625 -2.65625 2.894531 -2.632812 2.875 -2.625 C 2.863281 -2.613281 2.847656 -2.609375 2.828125 -2.609375 L 2.46875 -2.609375 C 2.445312 -2.609375 2.425781 -2.613281 2.40625 -2.625 C 2.394531 -2.632812 2.390625 -2.648438 2.390625 -2.671875 L 2.390625 -2.734375 C 2.390625 -2.921875 2.3125 -3.078125 2.15625 -3.203125 C 2.007812 -3.335938 1.800781 -3.40625 1.53125 -3.40625 C 1.3125 -3.40625 1.140625 -3.359375 1.015625 -3.265625 C 0.890625 -3.171875 0.828125 -3.035156 0.828125 -2.859375 C 0.828125 -2.742188 0.859375 -2.644531 0.921875 -2.5625 C 0.984375 -2.488281 1.070312 -2.421875 1.1875 -2.359375 C 1.3125 -2.296875 1.5 -2.21875 1.75 -2.125 C 2.007812 -2.03125 2.21875 -1.9375 2.375 -1.84375 C 2.539062 -1.757812 2.675781 -1.648438 2.78125 -1.515625 C 2.882812 -1.378906 2.9375 -1.207031 2.9375 -1 C 2.9375 -0.789062 2.882812 -0.609375 2.78125 -0.453125 C 2.675781 -0.296875 2.519531 -0.171875 2.3125 -0.078125 C 2.113281 0.00390625 1.882812 0.046875 1.625 0.046875 Z M 1.625 0.046875" transform="translate(98.1 51.377)"/></g></g></g><g fill="#FFF"><g><g><path d="M 1.515625 0.046875 C 1.242188 0.046875 1.007812 -0.0195312 0.8125 -0.15625 C 0.613281 -0.289062 0.472656 -0.484375 0.390625 -0.734375 C 0.328125 -0.921875 0.296875 -1.140625 0.296875 -1.390625 C 0.296875 -1.648438 0.328125 -1.867188 0.390625 -2.046875 C 0.472656 -2.285156 0.613281 -2.472656 0.8125 -2.609375 C 1.007812 -2.742188 1.242188 -2.8125 1.515625 -2.8125 C 1.773438 -2.8125 2.003906 -2.742188 2.203125 -2.609375 C 2.398438 -2.472656 2.539062 -2.285156 2.625 -2.046875 C 2.6875 -1.859375 2.71875 -1.640625 2.71875 -1.390625 C 2.71875 -1.140625 2.6875 -0.921875 2.625 -0.734375 C 2.539062 -0.484375 2.398438 -0.289062 2.203125 -0.15625 C 2.003906 -0.0195312 1.773438 0.046875 1.515625 0.046875 Z M 1.515625 -0.40625 C 1.660156 -0.40625 1.785156 -0.445312 1.890625 -0.53125 C 2.003906 -0.613281 2.082031 -0.726562 2.125 -0.875 C 2.164062 -1.007812 2.1875 -1.179688 2.1875 -1.390625 C 2.1875 -1.585938 2.171875 -1.753906 2.140625 -1.890625 C 2.085938 -2.035156 2.003906 -2.148438 1.890625 -2.234375 C 1.785156 -2.316406 1.65625 -2.359375 1.5 -2.359375 C 1.351562 -2.359375 1.222656 -2.316406 1.109375 -2.234375 C 1.003906 -2.148438 0.929688 -2.035156 0.890625 -1.890625 C 0.847656 -1.765625 0.828125 -1.597656 0.828125 -1.390625 C 0.828125 -1.179688 0.847656 -1.007812 0.890625 -0.875 C 0.929688 -0.726562 1.003906 -0.613281 1.109375 -0.53125 C 1.222656 -0.445312 1.359375 -0.40625 1.515625 -0.40625 Z M 1.515625 -0.40625" transform="translate(101.722 51.377)"/></g></g></g><g fill="#FFF"><g><g><path d="M 0.46875 0 C 0.4375 0 0.414062 -0.00390625 0.40625 -0.015625 C 0.394531 -0.0351562 0.390625 -0.0546875 0.390625 -0.078125 L 0.390625 -3.71875 C 0.390625 -3.75 0.394531 -3.769531 0.40625 -3.78125 C 0.414062 -3.800781 0.4375 -3.8125 0.46875 -3.8125 L 0.828125 -3.8125 C 0.847656 -3.8125 0.863281 -3.800781 0.875 -3.78125 C 0.894531 -3.769531 0.90625 -3.75 0.90625 -3.71875 L 0.90625 -0.078125 C 0.90625 -0.0546875 0.894531 -0.0351562 0.875 -0.015625 C 0.863281 -0.00390625 0.847656 0 0.828125 0 Z M 0.46875 0" transform="translate(105.165 51.377)"/></g></g></g><g fill="#FFF"><g><g><path d="M 2.03125 -2.6875 C 2.03125 -2.707031 2.035156 -2.722656 2.046875 -2.734375 C 2.066406 -2.753906 2.085938 -2.765625 2.109375 -2.765625 L 2.46875 -2.765625 C 2.488281 -2.765625 2.503906 -2.753906 2.515625 -2.734375 C 2.535156 -2.722656 2.546875 -2.707031 2.546875 -2.6875 L 2.546875 -0.078125 C 2.546875 -0.0546875 2.535156 -0.0351562 2.515625 -0.015625 C 2.503906 -0.00390625 2.488281 0 2.46875 0 L 2.109375 0 C 2.085938 0 2.066406 -0.00390625 2.046875 -0.015625 C 2.035156 -0.0351562 2.03125 -0.0546875 2.03125 -0.078125 L 2.03125 -0.25 C 2.03125 -0.257812 2.023438 -0.265625 2.015625 -0.265625 C 2.003906 -0.265625 2 -0.257812 2 -0.25 C 1.851562 -0.0625 1.628906 0.03125 1.328125 0.03125 C 1.148438 0.03125 0.984375 0 0.828125 -0.0625 C 0.679688 -0.132812 0.5625 -0.238281 0.46875 -0.375 C 0.382812 -0.507812 0.34375 -0.671875 0.34375 -0.859375 L 0.34375 -2.6875 C 0.34375 -2.707031 0.347656 -2.722656 0.359375 -2.734375 C 0.378906 -2.753906 0.398438 -2.765625 0.421875 -2.765625 L 0.78125 -2.765625 C 0.800781 -2.765625 0.816406 -2.753906 0.828125 -2.734375 C 0.847656 -2.722656 0.859375 -2.707031 0.859375 -2.6875 L 0.859375 -1.015625 C 0.859375 -0.828125 0.90625 -0.675781 1 -0.5625 C 1.101562 -0.457031 1.25 -0.40625 1.4375 -0.40625 C 1.613281 -0.40625 1.753906 -0.460938 1.859375 -0.578125 C 1.972656 -0.691406 2.03125 -0.835938 2.03125 -1.015625 Z M 2.03125 -2.6875" transform="translate(106.884 51.377)"/></g></g></g><g fill="#FFF"><g><g><path d="M 1.75 -2.421875 C 1.75 -2.390625 1.738281 -2.367188 1.71875 -2.359375 C 1.707031 -2.347656 1.6875 -2.34375 1.65625 -2.34375 L 1.109375 -2.34375 C 1.085938 -2.34375 1.078125 -2.332031 1.078125 -2.3125 L 1.078125 -0.890625 C 1.078125 -0.734375 1.109375 -0.625 1.171875 -0.5625 C 1.242188 -0.5 1.351562 -0.46875 1.5 -0.46875 L 1.640625 -0.46875 C 1.660156 -0.46875 1.675781 -0.457031 1.6875 -0.4375 C 1.707031 -0.425781 1.71875 -0.40625 1.71875 -0.375 L 1.71875 -0.09375 C 1.71875 -0.0390625 1.691406 -0.015625 1.640625 -0.015625 L 1.40625 0 C 1.132812 0 0.925781 -0.046875 0.78125 -0.140625 C 0.644531 -0.242188 0.578125 -0.429688 0.578125 -0.703125 L 0.578125 -2.3125 C 0.578125 -2.332031 0.566406 -2.34375 0.546875 -2.34375 L 0.25 -2.34375 C 0.226562 -2.34375 0.207031 -2.347656 0.1875 -2.359375 C 0.175781 -2.367188 0.171875 -2.390625 0.171875 -2.421875 L 0.171875 -2.6875 C 0.171875 -2.707031 0.175781 -2.722656 0.1875 -2.734375 C 0.207031 -2.753906 0.226562 -2.765625 0.25 -2.765625 L 0.546875 -2.765625 C 0.566406 -2.765625 0.578125 -2.773438 0.578125 -2.796875 L 0.578125 -3.40625 C 0.578125 -3.425781 0.582031 -3.441406 0.59375 -3.453125 C 0.613281 -3.472656 0.632812 -3.484375 0.65625 -3.484375 L 1 -3.484375 C 1.019531 -3.484375 1.035156 -3.472656 1.046875 -3.453125 C 1.066406 -3.441406 1.078125 -3.425781 1.078125 -3.40625 L 1.078125 -2.796875 C 1.078125 -2.773438 1.085938 -2.765625 1.109375 -2.765625 L 1.65625 -2.765625 C 1.6875 -2.765625 1.707031 -2.753906 1.71875 -2.734375 C 1.738281 -2.722656 1.75 -2.707031 1.75 -2.6875 Z M 1.75 -2.421875" transform="translate(110.235 51.377)"/></g></g></g><g fill="#FFF"><g><g><path d="M 0.6875 -3.1875 C 0.582031 -3.1875 0.492188 -3.21875 0.421875 -3.28125 C 0.359375 -3.34375 0.328125 -3.425781 0.328125 -3.53125 C 0.328125 -3.625 0.359375 -3.703125 0.421875 -3.765625 C 0.492188 -3.828125 0.582031 -3.859375 0.6875 -3.859375 C 0.789062 -3.859375 0.875 -3.828125 0.9375 -3.765625 C 1 -3.703125 1.03125 -3.625 1.03125 -3.53125 C 1.03125 -3.425781 1 -3.34375 0.9375 -3.28125 C 0.875 -3.21875 0.789062 -3.1875 0.6875 -3.1875 Z M 0.5 0 C 0.476562 0 0.457031 -0.00390625 0.4375 -0.015625 C 0.425781 -0.0351562 0.421875 -0.0546875 0.421875 -0.078125 L 0.421875 -2.6875 C 0.421875 -2.707031 0.425781 -2.722656 0.4375 -2.734375 C 0.457031 -2.753906 0.476562 -2.765625 0.5 -2.765625 L 0.859375 -2.765625 C 0.890625 -2.765625 0.910156 -2.753906 0.921875 -2.734375 C 0.941406 -2.722656 0.953125 -2.707031 0.953125 -2.6875 L 0.953125 -0.078125 C 0.953125 -0.0546875 0.941406 -0.0351562 0.921875 -0.015625 C 0.910156 -0.00390625 0.890625 0 0.859375 0 Z M 0.5 0" transform="translate(112.666 51.377)"/></g></g></g><g fill="#FFF"><g><g><path d="M 1.515625 0.046875 C 1.242188 0.046875 1.007812 -0.0195312 0.8125 -0.15625 C 0.613281 -0.289062 0.472656 -0.484375 0.390625 -0.734375 C 0.328125 -0.921875 0.296875 -1.140625 0.296875 -1.390625 C 0.296875 -1.648438 0.328125 -1.867188 0.390625 -2.046875 C 0.472656 -2.285156 0.613281 -2.472656 0.8125 -2.609375 C 1.007812 -2.742188 1.242188 -2.8125 1.515625 -2.8125 C 1.773438 -2.8125 2.003906 -2.742188 2.203125 -2.609375 C 2.398438 -2.472656 2.539062 -2.285156 2.625 -2.046875 C 2.6875 -1.859375 2.71875 -1.640625 2.71875 -1.390625 C 2.71875 -1.140625 2.6875 -0.921875 2.625 -0.734375 C 2.539062 -0.484375 2.398438 -0.289062 2.203125 -0.15625 C 2.003906 -0.0195312 1.773438 0.046875 1.515625 0.046875 Z M 1.515625 -0.40625 C 1.660156 -0.40625 1.785156 -0.445312 1.890625 -0.53125 C 2.003906 -0.613281 2.082031 -0.726562 2.125 -0.875 C 2.164062 -1.007812 2.1875 -1.179688 2.1875 -1.390625 C 2.1875 -1.585938 2.171875 -1.753906 2.140625 -1.890625 C 2.085938 -2.035156 2.003906 -2.148438 1.890625 -2.234375 C 1.785156 -2.316406 1.65625 -2.359375 1.5 -2.359375 C 1.351562 -2.359375 1.222656 -2.316406 1.109375 -2.234375 C 1.003906 -2.148438 0.929688 -2.035156 0.890625 -1.890625 C 0.847656 -1.765625 0.828125 -1.597656 0.828125 -1.390625 C 0.828125 -1.179688 0.847656 -1.007812 0.890625 -0.875 C 0.929688 -0.726562 1.003906 -0.613281 1.109375 -0.53125 C 1.222656 -0.445312 1.359375 -0.40625 1.515625 -0.40625 Z M 1.515625 -0.40625" transform="translate(114.456 51.377)"/></g></g></g><g fill="#FFF"><g><g><path d="M 1.609375 -2.8125 C 1.910156 -2.8125 2.144531 -2.722656 2.3125 -2.546875 C 2.488281 -2.378906 2.578125 -2.144531 2.578125 -1.84375 L 2.578125 -0.078125 C 2.578125 -0.0546875 2.570312 -0.0351562 2.5625 -0.015625 C 2.550781 -0.00390625 2.53125 0 2.5 0 L 2.140625 0 C 2.117188 0 2.097656 -0.00390625 2.078125 -0.015625 C 2.066406 -0.0351562 2.0625 -0.0546875 2.0625 -0.078125 L 2.0625 -1.75 C 2.0625 -1.925781 2.007812 -2.070312 1.90625 -2.1875 C 1.800781 -2.300781 1.660156 -2.359375 1.484375 -2.359375 C 1.328125 -2.359375 1.195312 -2.3125 1.09375 -2.21875 C 0.988281 -2.125 0.925781 -2 0.90625 -1.84375 L 0.90625 -0.078125 C 0.90625 -0.0546875 0.894531 -0.0351562 0.875 -0.015625 C 0.863281 -0.00390625 0.847656 0 0.828125 0 L 0.46875 0 C 0.4375 0 0.410156 -0.00390625 0.390625 -0.015625 C 0.378906 -0.0351562 0.375 -0.0546875 0.375 -0.078125 L 0.375 -2.6875 C 0.375 -2.707031 0.378906 -2.722656 0.390625 -2.734375 C 0.410156 -2.753906 0.4375 -2.765625 0.46875 -2.765625 L 0.828125 -2.765625 C 0.847656 -2.765625 0.863281 -2.753906 0.875 -2.734375 C 0.894531 -2.722656 0.90625 -2.707031 0.90625 -2.6875 L 0.90625 -2.53125 C 0.90625 -2.519531 0.90625 -2.507812 0.90625 -2.5 C 0.914062 -2.5 0.925781 -2.503906 0.9375 -2.515625 C 1.082031 -2.710938 1.304688 -2.8125 1.609375 -2.8125 Z M 1.609375 -2.8125" transform="translate(117.899 51.377)"/></g></g></g></svg>